<?xml version="1.0" encoding="utf-8"?>
<!-- Generator: Adobe Illustrator 17.1.0, SVG Export Plug-In . SVG Version: 6.00 Build 0)  -->
<!DOCTYPE svg PUBLIC "-//W3C//DTD SVG 1.1//EN" "http://www.w3.org/Graphics/SVG/1.1/DTD/svg11.dtd">
<svg version="1.1" xmlns="http://www.w3.org/2000/svg" xmlns:xlink="http://www.w3.org/1999/xlink" x="0px" y="0px"
	 viewBox="0 0 191.5 275" enable-background="new 0 0 191.5 275" xml:space="preserve">
<g id="Layer_1" display="none">
</g>
<g id="Layer_1_copy">
	<g>
		<path fill="#9F825D" d="M29.5,43.5c0-10.4,0-20.7-0.1-31.1c2-1.6,4-3.1,6-4.7c0.7,0.4,1,1.1,0.9,1.9c-2.6,3.6-2.7,7.6-1.6,11.7
			c0.4,7.4-0.6,14.9,1.3,22.2c0.6,2.4,0.6,5.1-1.1,7.4c-1,1.1-2.3,1.4-3.7,1C28.1,49.8,28.4,46.7,29.5,43.5z"/>
		<path fill="#A27B49" d="M159,3.1c0.3,6.7,0.7,13.4,1,20.1c-0.9,0.9-2,1.1-3.2,0.7c-0.6-0.4-1.2-0.9-1.6-1.6
			c-1.5-4-0.1-8.8-3.4-12.2c-8.3,2.8-8.3,2.8-10.6,0.8l0.1-0.1c0.4-0.5,0.6-1.1,0.7-1.7c0.1-0.3,0.2-0.6,0.3-0.9
			c0.3-0.6,0.6-1.1,1.1-1.6c0.3-0.2,0.5-0.4,0.8-0.7c0.5-0.5,1-0.9,1.5-1.4c0.2-0.3,0.5-0.5,0.7-0.8c0.6-0.4,1.2-0.8,1.9-1.1
			c3.1-2.5,6.3-4.2,9.9-0.9C158.5,2.3,158.8,2.7,159,3.1z"/>
		<path fill="#CAD2C4" d="M45.1,12.3c0.5,0.5,1,1,1.6,1.5c0,0-0.2,0.2-0.2,0.2c-0.4,0.1-0.7,0.3-1.1,0.4c-0.3-0.2-0.6-0.5-0.8-0.7
			c0.1-0.4,0.2-0.7,0.2-1.1L45.1,12.3z"/>
		<path fill="#99866A" d="M160.4,25.9c0.4,0.1,0.8,0.2,1.1,0.4c2.6,2.4,3.1,5.6,3,8.9c0,1.2,0,2.4,0.1,3.6c0.8,3.2,1,6.4,2.8,9.5
			c1.9,3.2,2.3,6.9-1.4,9.7c-3.5,0.5-5.7-1.5-7.7-4c-1.8-3.4-0.7-7-0.9-10.5c0.3-5.3-0.7-10.7,0.8-15.9
			C158.9,26.8,159.5,26.2,160.4,25.9z"/>
		<path fill="#99866A" d="M157.2,23.3c0.9,0,1.9,0,2.8,0c0.1,0.9,0.3,1.8,0.4,2.7c-0.2,0.2-0.4,0.4-0.6,0.6
			c-1.6,1.1,0.8,4.8-2.9,4.6C154.2,28.4,154,25.8,157.2,23.3z"/>
		<path fill="#C3D6DC" d="M163,26.4c-0.4,0-0.8-0.1-1.2-0.3C162.2,26.2,162.6,26.3,163,26.4z"/>
		<path fill="#C2C0B7" d="M187.9,102.5c-1.9,16-4,32-1.6,48.1c-5.9,3.4-7.5,13.3-17,11.1c-2-2.6-0.2-4.2,1.6-5.7
			c3.3-1.6,4.7-4.4,5.3-7.7c-1-1.8-2.8-1.3-4.1-1.8c-0.7-0.2-1.3-0.6-2-1c-1.6-1.5-2.9-3.3-3.5-5.5c-0.3-4.3,4.4-6,5.2-9.9
			c0.7-1.2,1.4-2.4,1.6-3.8c3.9-3.5,3-9.1,5.7-13.1c0.5-0.5,1-0.9,1.6-1.3c5.3-3.4,0.9-7.8,1.1-11.7c-0.1-0.7-0.2-1.5-0.2-2.2
			c1-3.7,1.4-7.6,5.2-9.8c1.9,0.7,2.4,1.8,1.1,3.5c0,1,0,2.1,0,3.1c1.1,2.1,1.1,4.2,0,6.2l0,0c-0.4,0.3-0.6,0.7-0.4,1
			C187.6,102.3,187.7,102.5,187.9,102.5z"/>
		<path fill="#8D8C7D" d="M160,170.8c-0.1,3.6-0.2,7.3-0.3,10.9c-1.5,0.8-2.8,0.1-4.1-0.7c-3.7-3.3-8.5-4.6-12.6-7.1
			c-1.5-1.2-3.1-2.2-5.3-2c-0.7-0.1-1.3-0.3-1.9-0.7c-0.6-0.4-1-0.9-1.4-1.5c-0.3-0.6-0.5-1.3-0.6-2c0.4-3,0.2-5.9-1.4-8.6
			c-0.5-3.4-0.1-6.5,2.8-8.7c1-0.3,1.9,0,2.7,0.7c0.6,0.6,1.2,1.1,2,1c0.4-0.1,0.9-0.3,1.2-0.5c0.4,0,0.8-0.1,1-0.5
			c0,0-0.6-0.1-0.6-0.1s-0.5,0.3-0.5,0.3c0,0-0.7,0.1-0.7,0.2c-0.5-0.1-1-0.2-1.5-0.5c-0.8-0.6-1.3-1.3-1.6-2.1
			c-0.1-0.6-0.1-1.3,0-1.9c0.2-0.6,0.6-1.2,1.1-1.6c0.6-0.3,1.2-0.6,1.9-0.7c1.7-0.1,3.4,0.1,4.9,0.9c1.4,0.9,2.3,2.5,3.5,3.6
			c0.7,0.8,1.2,1.6,1.7,2.5c0.8,1.5,1.2,3.1,1.9,4.6c0.3,0.6,0.5,1.2,0.6,1.9c0.1,2,1.4,3.5,2.5,5c0.4,0.5,0.7,1,1,1.6
			c0.4,0.8,0.7,1.6,1,2.4c0.4,0.8,0.6,1.6,1.4,2.1C159.1,169.7,159.5,170.3,160,170.8z"/>
		<path fill="#B4B0A6" d="M158.6,169.1c-0.6-0.5-1.3-0.9-1.9-1.4c-0.4-0.6-0.9-1.1-1.4-1.6l0,0c-2.1-3.4,1.1-5.2,2.2-7.7
			c1.6-1.9,3.8-2.7,5.9-3.5c2.9-0.6,5.7-0.8,8.2,1c0.2,0.3,0.5,0.7,0.7,1c-1,1.6-2.1,3.1-3.1,4.7
			C167.5,166.7,159.1,162.3,158.6,169.1z"/>
		<path fill="#DEDFE2" d="M161.5,273.4c0.5-0.5,1-1,1.5-1.5C162.5,272.3,162,272.8,161.5,273.4z"/>
		<path fill="#B5B5B1" d="M160.1,187.8c0.5,1.1,1,2.2,1.4,3.3c0.8,0.8,0.5,2.3,1.5,3l0,0c1.6,1.7-0.3,4.4,1.6,6.1l0,0.1
			c3.8,3.7,5.9,8.5,7.3,13.5c2.6,8.9,6.6,17.4,9.4,26.3c1.7,5.3,1.7,10.6-2.9,14.2c-4.4,3.4-2.4,10.3-7.8,12.8c-0.5,0-1,0.1-1.4,0.2
			c-0.6,0.6-1.3,0.6-2,0.1c-0.2-0.3-0.4-0.7-0.5-1c-0.1-0.4-0.1-0.7-0.2-1.1c0.5-2.9,0.2-5.9,0.8-8.9c0.5-1.5,1.2-2.7,2.6-3.4
			c0.9-0.5,1.9-0.9,2.6-1.6c0.4-0.2,0.8-0.5,1.2-0.8c-0.6,0.3-1.1,0.7-1.6,1.1c-0.6,0.4-1.2,0.7-1.8,0.8c-1.1,0.4-2.1,0.2-3-0.4
			c-2.9-2.3-1.2-4.6,0.1-6.8c1.1-1.8,1.1-3.6-0.9-4.7c-2-1.1-3.7-0.9-4.9,1.7c-2.2,4.5-6.3,4.8-10.6,4.1c-1.2-0.3-2.3-1.4-3.5-1.2
			c-4.8,0.8-7.1-1.2-7.4-6c-0.1-1.5-0.6-3-2.6-3.2c-10.6,0.7-11.3,0.3-11.2-7.4c0.2-1.2,0.3-2.3,0.5-3.5c0.5-1.6,1.4-2.8,2.8-3.6
			c0.7-0.3,1.4-0.5,2.2-0.5c5.1,2.8,9.6,6.9,15.8,7.4c0.7,0.3,1.3,0.7,1.8,1.1c7.4,4.7,10.1,4.5,14.5-1.5c-1-2.2-4.5-1.4-5-4.2
			c-0.1-0.7-0.1-1.5,0-2.2c2.3-5,3.1-9.7-2-13.8c-2.5-2-2.2-5.7-4.4-8c-1-1.9-1.7-3.8-2.5-5.8c0.1-5.4,4.2-5.6,8.1-6.1
			C158.8,188,159.4,187.9,160.1,187.8z"/>
		<path fill="#797B6E" d="M160.1,187.8c-0.3,0.4-0.4,0.8-0.5,1.2c-6.6-1.2-5.5-4.7-2.8-8.8c0.9,0.5,1.9,1,2.8,1.5
			C159.8,183.8,160,185.8,160.1,187.8z"/>
		<path fill="#CFD2D5" d="M167.6,267.1c0.5,0,1.1,0.1,1.6,0.1c-1.5,0.6-3.1,1.1-4.6,1.7c-0.5-0.1-1.1-0.1-1.6-0.2
			c-0.4-1.4,0.4-2.1,1.6-2.5C165.7,265.9,166.7,266.3,167.6,267.1z"/>
		<path fill="#D7D9DE" d="M164.6,200.2c-0.5-2-1-4-1.6-6.1C163.6,196.2,164.1,198.2,164.6,200.2z"/>
		<path fill="#D7D9DE" d="M163,194.1c-0.5-1-1-2-1.5-3C162.1,192.1,162.5,193.1,163,194.1z"/>
		<path fill="#575148" d="M122.6,274.9c-2.6,0-5.2,0.1-7.8,0.1c-3-4.3-7.2,0-10.3-1.3c-5-1.9,3.4-5-0.9-6.9
			c-2.6-0.8-3.7-3.2-5.6-4.8c-1.9-4.3,0.3-7.2,3.3-9.8c3.3-0.7,5.6-2.4,5.7-6.2c2.7-5.1,6.9-8,12.5-9.1c3.7,0.5,4.5,4.3,7.1,6.1
			c2.2,1.5,0.8,3.5-1.2,4.6c-2.4,0.8-4.5-0.6-6.8-0.7c-1.4,0.4-1.4,1.7-1.6,2.8c-0.6,2.3-1.4,4.6-2,6.9c-2.5,3.7,0.1,6.4,2.1,8.9
			c1.9,2.4,3.4,5.1,5.6,7.3C123,273.5,122.9,274.2,122.6,274.9z"/>
		<path fill="#717068" d="M86.9,273.3c-5.8-0.4-11.7-0.8-17.5-1.2c1.5-2.1,0.3-4.8,1.6-7c1.2-1.5,3-2,4.5-3c10-4.5,9.8-14,11.1-22.7
			c0.2-0.8,0.6-1.5,1-2.1c0.8-0.9,1.8-1.6,3-1.8c0.9,0,1.5,0.4,2,1.1c3.2,7.5-1.7,13.7-3.1,20.5c-0.1,4.8-5.3,8.9-2,14.2
			C87.6,272.1,87.4,272.7,86.9,273.3z"/>
		<path fill="#817E73" d="M86.9,273.3c0-0.6-0.1-1.1-0.1-1.7c-0.4-0.3-0.7-0.8-0.7-1.4c0.1-0.8,0.3-1.6,0.7-2.3
			c0.2-0.5,0.4-1,0.7-1.5c0.4-0.8,0.8-1.5,1.2-2.2c0.3-0.5,0.7-1,1.1-1.4c0.5-0.4,1-0.7,1.6-1c0.3-0.1,0.6-0.1,1-0.1
			c0.7,0.1,1.3,0.3,1.9,0.6c0.8,0.6,1.3,1.4,1.7,2.3c0.2,0.8,0.2,1.6,0.1,2.4c0,0,0,0.5,0,0.5s0.5,0.2,0.6,0.1c1-0.4,1.9-0.9,2.9-1
			c1.5-0.3,3.1-0.1,4.6-0.8c2.1-0.8,4.2-1.5,9.7-3.5c-4.5,4.8-6.7,7.2-8.9,9.6c3,3,9.5-6.9,10.1,3.1
			C105.5,274.4,96.2,273.8,86.9,273.3z"/>
		<path fill="#8D8D88" d="M164.6,267.2c-0.6,0.5-1.1,1-1.7,1.4c-5.2,1-10.3,2-15.5,3c-0.2-0.7-0.1-1.3,0.3-2c1.9-2.1,5.1-2.1,7-4.2
			c0.9-3-3.9-3.3-2.9-6.2c0.1-2.1,4.6-0.7,3.1-4.1c3.1-4.1,7.1-4.7,11.7-3.7c0.4,0,0.7,0.1,1.1,0.1c1,0,2,0.1,2.9,0.1
			c0.6,0.3,0.8,0.5,0.7,0.9c-0.1,0.4-0.3,0.6-0.5,0.6c-0.6,1-1.1,2-1.7,3c-1.8,2.9,0.5,6.5-1.5,9.4l0,0
			C166.9,266.7,165.3,266.1,164.6,267.2z"/>
		<path fill="#6A6A61" d="M71.4,265.6c-0.5,2.2,5.1,6.3-2,6.4c0,0-0.6,0.1-0.6,0.1l-0.5-0.2c-0.5-0.6-1-1.1-1.5-1.5
			c-3.3-1.6-5.2-3.9-3.8-7.8c1.1-2.9-0.5-6,0.4-8.9c1.2-2.6,1.1-5.4,1.1-8.1c0.4-2.8-0.4-6.4,4.2-6.5c2.9,2.8,1.5,6.6,2.2,9.9
			c0.3,1.7-0.2,3.3-0.2,5C70.8,257.9,70.5,261.8,71.4,265.6z"/>
		<path fill="#57544D" d="M65.2,254.7c2.4,4.9-3.3,11.4,3.1,15.4c-3.7,1.5-7.4,1-11.2,0.3c-1.4-0.1-2.8-0.2-4.2-0.3
			c-0.1-0.4-0.2-0.8-0.4-1.2c0.3-0.7,0.7-1.2,1.3-1.7c3.9-1.9,5.8-5.4,7.5-9.1C62,256.4,62.3,254.1,65.2,254.7z"/>
		<path fill="#6C6C61" d="M147.6,270.4c-0.1,0.4-0.2,0.8-0.2,1.3c-8.3,1.1-16.5,2.1-24.8,3.2c-0.1-0.5-0.1-1.1-0.2-1.6
			c0.2-0.3,0.5-0.7,0.7-1c4.3-3.3,9.3-3,14.2-2.8c3.2-0.5,6.3-1.8,9.5,0C147.1,269.8,147.4,270.1,147.6,270.4z"/>
		<path fill="#717068" d="M57.1,270.5c3.7-0.1,7.5-0.2,11.2-0.3c0,0.6,0,1.2,0,1.7C64.5,271.4,60.8,271,57.1,270.5z"/>
		<path fill="#CBC8BD" d="M86.9,14c1.1,0,2.2,0.1,3.3,0.1c-1.4,6-4.8,6.8-12.5,3.1c0,0-0.1-0.1-0.1-0.1C80.7,16,83.8,15,86.9,14z"/>
		<path fill="#BAB2A2" d="M77.6,17.1c4.1-1.2,9.5,2.7,12.5-3.1c4.7,0,8.4,6.1,14,1.2c1,3.3,1.7,5.6,2.4,8c7.5-1.9,14.6-6.2,22.3-1.4
			c0.3,0.8,0.3,1.5-0.1,2.3c-1.5,2-3.4,3.5-5.9,3.9c-8.3-0.7-16.8,2.8-24.9-1.3c-2-1.2-3.6-2.9-5.3-4.5c-5.2-3.4-11.3,1-16.5-1.9
			C76.6,19.2,77.1,18.2,77.6,17.1z"/>
		<path fill="#BFA06F" d="M141.3,11c3.9-1.5,7.9-3,13.4-5c0.7,5.6,1.4,10.7,2.1,15.8c-3.2,0.5-3.3-2.1-3.9-4.1
			c-0.7-2.3-1.8-3.4-4.3-2.3c-0.6,0.3-1.3,0.5-1.9,0.6c-2.4-0.1-4.3,1.9-6.8,1.4c-1.4-0.7-1.8-1.9-1.8-3.4
			C139.2,13,140.3,12,141.3,11z"/>
		<path fill="#BB9767" d="M138.2,14c0.5,1,1.1,2.1,1.6,3.1c0,0.3,0.1,0.7,0.1,1c0,0.7,0,1.4-0.2,2c-1.1,2.5-2,5.2-4.4,6.9
			c-1,0.5-2.1,0.5-3.1,0.2c-1.4-0.5-2.4-1.6-3.1-2.9c-0.1-0.3-0.2-0.7-0.3-1c0-0.5,0-1,0-1.5c0,0,0.1-0.1,0.1-0.1
			c2-1.5,3.8-3.4,6-4.6C136,16,137.1,15,138.2,14z"/>
		<path fill="#BAB2A2" d="M135,17.1c-2,1.5-4,3.1-6,4.6C129.3,18,131.2,16.4,135,17.1z"/>
		<path fill="#BFA06F" d="M141.2,9.3c0.5-0.1,1-0.1,1.5-0.1c-0.4,0.5-0.9,1.1-1.3,1.6C141.3,10.4,141.3,9.8,141.2,9.3z"/>
		<path fill="#CA9F72" d="M34.2,51.3c-0.6-10.9-1.1-21.7-1.7-32.6c-0.4-0.4-0.6-0.8-0.5-1.3c0-0.5,0.1-0.7,0.2-0.7
			c1.4-3.3,3.8-4.6,7.3-4.1c0.7,0.1,1.4,0.4,2.1,0.8c0.3,0.2,0.6,0.4,0.9,0.7c0.5,0.5,1.1,0.9,1.7,1.3c0.6,0.3,1.2,0.7,1.8,1.1
			c3.5,2.3,6.9,4.8,9.3,8.4c0.3,0.6,0.5,1.3,0.7,2c0.6,4.2,6.1,7.9,1.4,12.7c-3.4,1-4.2-1.5-5.7-3.8c-2.8-4.5-4.8-9.9-10.8-11.5
			c-4.3,0.1-3.7,3.6-3.9,6.2c-0.5,4.9,0.8,9.7,2.5,14.2c1.2,3.2,2.3,6.3-0.2,9.4C36.3,55.5,35,53.8,34.2,51.3z"/>
		<path fill="#92876B" d="M34.2,51.3c1.5,1,3.1,2,4.6,3c0.4,0.2,0.7,0.3,1.1,0.5c2.4,4.1,1.6,8.1-0.5,12c-0.7,0.4-1.4,0.6-2.1,0.4
			c-1.9-4.4-7.2-4.5-9.8-7.9c-0.3-0.7-0.1-1.4,0.5-1.9c-2.6-4,1.5-4.4,3.3-6.1C32.2,51.3,33.2,51.3,34.2,51.3z"/>
		<path fill="#94713E" d="M32.7,17.1c-0.1,0.5-0.1,1-0.2,1.6c-3.5-4.8-0.1-7.1,3.3-9.5c0.9,0.1,1.8,0.3,2.7,0.4c0.7,0.4,1,1,0.9,1.7
			C38,14.1,33.5,13.4,32.7,17.1z"/>
		<path fill="#D5B297" d="M147.4,13.9c11-6.8,5.6,6,9.3,7.8c0.1,0.5,0.3,1,0.4,1.5c0.3,2.6,0.6,5.2,1,7.8c1.7,5-0.8,10-0.3,15
			c-1.3,1.8-2.7,3.6-5.1,1.6c-2.5-4.9-0.8-10.2-1.4-15.3c0-1.6-0.5-3.2-0.3-4.8C151.4,22.6,144.8,19.5,147.4,13.9z"/>
		<path fill="#BFA06F" d="M144.5,7.8c0.5-0.5,1-1,1.5-1.4C145.5,6.9,145,7.4,144.5,7.8z"/>
		<path fill="#BFA06F" d="M146.1,6.3c0.5-0.5,0.9-1,1.4-1.5C147.1,5.3,146.6,5.8,146.1,6.3z"/>
		<path fill="#BFA06F" d="M142.8,9.2c0.6-0.5,1.1-0.9,1.7-1.4C143.9,8.3,143.3,8.8,142.8,9.2z"/>
		<path fill="#928C79" d="M10.5,76.1c0.1-1.5,0.3-3,0.4-4.5c1.5-3.6,3.1-7.3,4.6-10.9c4.7,1.2,8.9,0.5,12.3-3.3
			c0,0.6,0.1,1.2,0.1,1.7c1,1.6,1.5,3.3,1.1,5.3c-0.8,3.1-3,4.8-5.7,6.2c-3.2,2.5-4,6-3.9,9.8c0.4,0.6,0.9,1,1.5,1.4
			c5.8,6.3,5.4,11.7-1.6,19.5c-3.5-3.6-6.9-7.2-6-13c0.6-3.6-2.5-6-3.6-9.1C9.7,78.1,10,77.1,10.5,76.1z"/>
		<path fill="#AF9669" d="M54.4,26.5c-3.2-3.1-6.3-6.2-9.5-9.2c0.1-0.6,0.4-1.2,0.9-1.6c0.3-0.1,0.6-0.2,0.9-0.2
			c2.5,1.6,5,3.2,7.5,4.9c2.2,2,4.4,4,6.5,6C58.7,28.4,56.6,28.4,54.4,26.5z"/>
		<path fill="#AF9669" d="M45,14c0.5,0,1,0,1.5,0c0.1,0.5,0.1,0.9,0.2,1.4c0,0-0.4,0.2-0.4,0.2C44.9,15.9,44.6,15.2,45,14z"/>
		<path fill="#9F825D" d="M45,14c0.4,0.5,0.9,1.1,1.3,1.6c-0.5,0.5-0.9,1.1-1.4,1.6c-0.5-0.1-1-0.1-1.4-0.1c-0.5-0.5-1.1-1-1.6-1.5
			l0,0c-0.5-0.5-1-1-1.5-1.4c-2.5,1-5.1,2-7.6,3c-0.4-4.5,4.4-3.9,6.1-6.3c0.5-0.5,1.1-0.5,1.7-0.1c0.4,0.1,0.9,0.3,1.3,0.6
			c0.6,0.2,1.1,0.7,1.4,1.2l0.3,0.2c0.6,0.3,1.1,0.7,1.5,1.2C44.9,13.8,45,14,45,14z"/>
		<path fill="#CA9F72" d="M44.9,13.8c-0.5-0.4-1-0.8-1.5-1.2c0.5-0.1,0.9-0.2,1.4-0.1C44.9,13,44.9,13.4,44.9,13.8z"/>
		<path fill="#BAB9B0" d="M175.4,54.4c0.5,0,1,0,1.6,0c0,0,0,0,0,0c0.9,0.9,0.6,2.3,1.6,3.1c3.1,5.7,6.2,11.4,9.2,17.1
			c-1.7,4.8,1.1,10.7-3.8,14.7c-2.4,0.3-3.6-1-4.4-3c-0.9-6.7-4.2-12.5-6.3-18.8C172.7,62.9,168.3,57.8,175.4,54.4z"/>
		<path fill="#C7C4BD" d="M184.8,88.5c2.5-4.3-5.7-11,3.1-13.9c4.9,5.7,4.8,11.4,0,17.1c-0.5-1-1.1-2.1-1.6-3.1
			C185.8,89.1,185.3,89.1,184.8,88.5z"/>
		<path fill="#C7C4BD" d="M187.9,101c0-2.1,0-4.2,0-6.2C189.9,96.8,189.9,98.9,187.9,101z"/>
		<path fill="#B4BFB7" d="M178.6,57.4c-0.5-1-1.1-2.1-1.6-3.1C177.5,55.4,178.1,56.4,178.6,57.4z"/>
		<path fill="#C7C4BD" d="M187.9,102.5c-0.2-0.4-0.4-0.7-0.5-1.1c0-0.1,0.3-0.3,0.5-0.4C187.9,101.5,187.9,102,187.9,102.5z"/>
		<path fill="#7D745A" d="M160,54.3c2,1,4.1,2.1,6.1,3.1c4.9-1,5.2,3.6,7.4,5.9c0.5,2.4-0.1,5,1.8,7.3c1.7,2.1,1.8,5,0.3,7.3
			c-3.1,4.6-4.1,9.6-4,15c-2.3,1.2-4.5,3.7-7,0.3c-1.4-3.3-3.6-6.4-2.8-10.3c0.6-2.1,2.3-3.7,3-5.7c1-1.8,2-3.6,2.1-6.2
			c-4.4-3.1-9.4-6.2-9-12.9C158,56.5,158.5,55.1,160,54.3z"/>
		<path fill="#9E9B89" d="M172.3,63.7c-2-2.1-4.1-4.2-6.1-6.3c-1.1-6.1-2.1-12.3-3.2-18.4c0.4-1.1,0.9-1.1,1.6-0.2c0,0,0,0,0,0
			c3.6,5.2,7.2,10.3,10.9,15.5c-3.8,4.1-0.3,8.3,0,12.4C172.4,67.8,173.7,64.4,172.3,63.7z"/>
		<path fill="#A47642" d="M160,54.3c0,1.5-0.1,3-0.1,4.5c-1.5,1.6,0.4,4.6-2.3,5.8c-0.7,0.3-1.4,0.3-2.2,0.3
			c-0.7-0.2-1.4-0.6-1.9-1.1c-0.4-0.6-0.7-1.3-0.7-2.1c2.6-4.3-2.2-9.1,1-13.4c1.1-1.1,2.2-2.3,3.3-3.4c0.6-1,1.1-2.4,2.7-1.4
			C159.9,47.1,160,50.7,160,54.3z"/>
		<path fill="#A27B49" d="M159.8,43.5c-0.9,0.5-1.8,0.9-2.7,1.4c-3-4.9,1.6-9.2,1.1-13.9c0.5-1.5,1.1-3,1.6-4.5
			C159.8,32.2,159.8,37.9,159.8,43.5z"/>
		<path fill="#B4BFB7" d="M164.5,38.8c-0.5,0.1-1,0.1-1.6,0.2c0-1.1,0.1-2.1,0.1-3.2C163.5,36.8,164,37.8,164.5,38.8z"/>
		<path fill="#A69D8C" d="M181.6,113.4l-0.8,0l-0.8,0c-2.5-0.1-3.6,1.7-4.7,3.5c-6.4-2.9-4-8-2.3-12c1.3-3.2,0.8-5.1-1.2-7.3
			c-0.4-0.7-0.6-1.4-0.7-2.1c0.2-2,1.1-3.8,0.6-6c-0.9-3.7,1.4-5.1,4.8-5c2.5,0.9,3.4,3,3.2,5.3c-0.3,3.8,1.6,6.7,3.5,9.6l0,0
			c0.7,2.8-0.9,5.8,0.9,8.7C185.5,110.4,184.1,112.4,181.6,113.4z"/>
		<path fill="#B5AFA2" d="M183.2,99.4c-9.8-1.2-4.6-9.1-6.2-13.9c1.5-1.4,3.1-1.3,4.6-0.1c1,1,2.1,2.1,3.1,3.1c0.5,0,1,0,1.5,0
			C185.3,92.2,184.2,95.8,183.2,99.4z"/>
		<path fill="#948B7D" d="M174,130.5c-2.1,3.1-4.2,6.1-6.2,9.2c-2.4,1.6-4.4,1.3-5.9-1.3c1.2-7.6,4.9-14.7,3.9-22.6
			c0.4-1.1,1.1-2.1,2.2-2.6c0.8-0.2,1.5,0,2.1,0.5c3.4,4.5-0.5,10.6,3.1,15.1C173.5,129.3,173.8,129.9,174,130.5z"/>
		<path fill="#878071" d="M171,144.1c0.5,0.1,0.9,0.1,1.3,0.3c0.5,0.6,1,1.2,1.4,1.9c1,3,0.4,6.6-2.6,6.8
			c-5.4,0.3-10.6,3.8-16.2,1.2c-1.2-1.2-1.6-2.8-1.5-4.4c0.3-2.1,1.6-3.6,3.4-4.7c0.3-0.2,0.7-0.3,1-0.5c0.7-0.2,1.4-0.4,2.1-0.4
			c2.8-0.5,5.2,3.4,8.2,0.7C169.1,144.5,170,144.1,171,144.1z"/>
		<path fill="#B5AFA2" d="M175.4,116.5c0.2-3.2,0.4-6.3,0.7-10.4c3.4,2.3-0.3,6.9,4,7.3c-0.1,5.2,0,10.5-4.7,14.1
			c-1.1,0.6-2,0.3-3-0.3c-0.5-0.5-0.9-1.1-1.2-1.8c-0.1-0.7-0.2-1.4,0-2.1c0.2-0.7,0.5-1.3,0.9-1.9
			C173.9,120.3,174.2,118.1,175.4,116.5z"/>
		<path fill="#ABA99C" d="M172.5,146c0-0.5-0.1-1-0.1-1.6c2.9,0.3,7.6-0.4,6.9,3.5c-0.5,3.4-1.2,8.8-7,9.1c0,0-0.1-0.2-0.1-0.2
			C169.9,153.2,175.7,149.6,172.5,146z"/>
		<path fill="#B5AFA2" d="M181.6,113.4c3.2-4.3-3.6-9.8,1.6-14C182.6,104,191.9,109.8,181.6,113.4z"/>
		<path fill="#797262" d="M171,144.1c-0.6,0.7-1.2,1.3-1.9,2c-4.9,1.7-5.8-1.7-6.6-5.2c0.2-0.3,0.3-0.7,0.5-1c1.6,0,3.1-0.1,4.7-0.1
			C168.9,141.2,170,142.7,171,144.1z"/>
		<path fill="#908273" d="M172.4,125.7c1,0.6,1.9,1.2,2.9,1.7c-0.4,1-0.9,2.1-1.3,3.1c-0.6,0-1.2-0.1-1.7-0.1
			C171,128.8,170.9,127.2,172.4,125.7z"/>
		<path fill="#AEB0AB" d="M136.6,150.6c-1,3.1-2.1,6.2-3.1,9.4c-1,3.4-2.3,6.8,1.6,9.3l0,0c0.5,0.6,1,1.1,1.5,1.6l0,0
			c1.3,1.2,1.4,2.6,0.8,4.1c-4.7,3.1-8.4,8.3-15.1,7.8c-4.5-3.1-7.8,0.3-11.4,2.1c-1.3,0.6-2.6,1.2-4.1,1.5
			c-5.2-1.6-8.4-7.1-5.7-11.3c2.5-3.9,3.6-9.3,9.1-10.8c2.1-0.6,1.9-2.8,2.6-4.4c0.5-2.1,3.4-2.9,3-5.5c1.2-3.3,4.6-3.7,6.9-5.4
			c2-1.3,3.6-3,4.8-5c0.5-0.5,1-1,1.5-1.4c3.4-2,6.8-4,10.9-2.4c0.4,0.6,0.7,1.2,0.9,1.9c0,0.7-0.1,1.4-0.4,2.1
			c-0.6,1-1.7,1.2-2.5,2c-0.1,0.5-0.2,0.9-0.2,1.4c-0.6,0.8-0.5,1.8-0.7,2.6C137,150.2,136.8,150.4,136.6,150.6z"/>
		<path fill="#9C9E93" d="M156.9,180.2c0.1,3.2-1.4,6.9,2.8,8.8c-2,3.5-8.2-0.4-9,5.2c0,0.3-0.1,0.6-0.1,0.9c-0.2,0.6-0.6,1.1-1,1.6
			c-0.2,0.2-0.5,0.4-0.7,0.7c-0.8,0.6-1.8,0.9-2.8,0.8c-2.1-0.4-2.9-1.8-2.8-3.8c0.1-0.7,0.3-1.4,0.6-2c4.5-5.1,0.7-9-2-13
			c-0.4-0.7-0.6-1.4-0.8-2.1c-0.2-1.6-0.1-3,0.9-4.4c0.3-0.2,0.6-0.5,0.9-0.7C147.9,174.4,154.2,174,156.9,180.2z"/>
		<path fill="#9C9286" d="M158.4,146c-1,1-2.1,2-3.1,3.1c-3,1.3-4.1-1-5.4-2.8c0.1-1-0.4-0.3-0.4-0.2c1.2,2.3,0.3,3.9-2.1,4.6
			c-1.1-1.7-2.2-3.3-3.2-5c-2.6-2.2-1.8-5.3-2-8c0-1.2-0.1-2.4,0-3.5c0-1.9,0-3.8,0.1-5.7c0-1.5,0-2.9,0.3-4.4
			c0.1-0.7,0.3-1.4,0.6-2.1c0.8-1.6,1.3-3.5,3.1-4.4c0.7-0.1,1.4,0,2.1,0.5c0.5,0.6,0.8,1.2,1.1,1.9c0.7,3.8-0.8,7.5-0.5,11.5
			c0.4,4.8,1.6,8.5,6.1,10.7C156.3,143.1,157.8,144.1,158.4,146z"/>
		<path fill="#B7AEA2" d="M147.3,150.7c0.8-1.6,1.5-3.2,2.5-5.2c1.9,1.2,3.6,2.4,5.4,3.6c0.1,1.5,0.1,3,0.2,4.5
			c1.8,2.8,5.9,0.3,7.6,3.3c-1.6,1-3.1,2-4.7,3c-4.1,2.9-6.4,1-7.8-3l0,0c-1.4-1.3,0.3-3.6-1.5-4.8
			C148.5,151.7,147.9,151.2,147.3,150.7z"/>
		<path fill="#9D9E95" d="M135.1,169.3c-3.1-0.5-6.1-0.9-9.7-1.5c2.6-2.5,5.3-5.1,8-7.8C143.7,161.4,133.5,166.3,135.1,169.3z"/>
		<path fill="#9F9A8A" d="M150.5,156.9c2.6,1,5.2,2,7.8,3c-1,2.1-2,4.2-3.1,6.2C152.4,163.8,149.9,161.2,150.5,156.9z"/>
		<path fill="#A5A193" d="M145.7,157c0.8,3.2,0.5,5.6-3.6,7.3C141.1,160.5,141.1,158.1,145.7,157z"/>
		<path fill="#696054" d="M144.3,136.7c-0.1,3-0.2,6-0.2,9c-1.5,0.1-2.9,0.2-4.4,0.3c-0.4-0.3-0.6-0.7-0.5-1
			c0.1-0.4,0.2-0.6,0.4-0.6c0.1-0.4,0.2-0.9,0.2-1.4c0.1-0.5,0.4-0.8,0.8-0.9c0,0,0.4-0.5,0.4-0.5s-0.5-0.5-0.5-0.5
			c-0.2-0.5-0.3-1-0.4-1.5c-0.2-0.9,0.1-1.7,0.7-2.4C142,136.4,143,135.8,144.3,136.7z"/>
		<path fill="#9D9E95" d="M136.6,175.5c0-1.6,0-3.1,0-4.7c2.6-1.5,5.5-4.4,6.2,1.5c0,0-0.1,0.1-0.1,0.1c-0.4,0.4-0.9,0.8-1.3,1.3
			c-1.2,1-2.3,2.1-4,2.2C137.2,175.8,136.9,175.7,136.6,175.5z"/>
		<path fill="#625C4F" d="M142.8,150.6c1.3,1.2,2.6,2.4,3.9,3.5c-0.3,0.3-0.5,0.7-0.8,1c-1.5-1-3.1-2-4.6-2.9
			c-0.4-0.4-0.5-0.7-0.4-1c0.1-0.3,0.3-0.5,0.4-0.5l0,0.1C141.7,150.2,142.2,150.1,142.8,150.6z"/>
		<path fill="#9F9A8A" d="M149,152.1c5.8,0,0.1,3.5,1.5,4.8C150,155.3,149.5,153.7,149,152.1z"/>
		<path fill="#696054" d="M138.2,149.1c0.5,0.5,1,1,1.5,1.5c1,1,0.8,2.2,0.3,3.3c-1.2,0.8-2.3,0.6-3.3-0.2c0-1.1,0-2.1-0.1-3.2
			c0,0,0-0.1,0-0.1C137.2,150.2,137.2,149.1,138.2,149.1z"/>
		<path fill="#575144" d="M136.6,153.8c1.1,0,2.1,0,3.2-0.1c0.5-0.8,1-0.8,1.5,0c-0.6,0.9-1.1,1.8-1.7,2.7
			C138.6,155.5,137.6,154.6,136.6,153.8z"/>
		<path fill="#9C9286" d="M138.2,149.1c-0.5,0.5-1.1,1-1.6,1.4c0.5-1,1-2.1,1.5-3.1C138.1,148,138.1,148.6,138.2,149.1z"/>
		<path fill="#9C9286" d="M141.3,153.7l-0.7,0.1c0,0-0.7,0-0.7,0c0-1-0.1-2-0.1-3.1c0.5,0,1.1,0,1.6,0c-0.1,0.5-0.1,1,0,1.5
			C141.2,152.7,141.3,153.2,141.3,153.7z"/>
		<path fill="#9D9E95" d="M136.6,170.8c-0.5-0.5-1-1-1.5-1.6C135.6,169.8,136.1,170.3,136.6,170.8z"/>
		<path fill="#9F9A8A" d="M155.3,166.2c0.5,0.5,0.9,1.1,1.4,1.6C156.2,167.3,155.7,166.7,155.3,166.2z"/>
		<path fill="#9C9286" d="M142.8,150.6c-0.5,0.1-1,0.1-1.5,0.1C141.8,150.7,142.3,150.7,142.8,150.6z"/>
		<path fill="#9C9286" d="M139.6,144.4c0,0.5,0.1,1,0.1,1.6c-0.5,0-1,0-1.5,0C138.7,145.5,139.2,145,139.6,144.4z"/>
		<path fill="#9F9A8A" d="M163,156.9c-2.7-0.7-6.8,1.8-7.6-3.3c4.4-5.5,15.3,3.8,17-7.6c4.8,3.7-0.5,7.2-0.2,10.8
			C169.2,156.8,166.1,156.9,163,156.9z"/>
		<path fill="#C5C4C0" d="M150.5,245.3c3.2-0.8,6.3-1.6,10.6-2.6c-2-1.4-3.1-2.1-4.7-3.2c4.7-0.1,8.1-5.3,13.1-1.3
			c7.1,5.7-2.9,8.8-1.8,13.5c0,0,0,0.1,0,0.1c-5,1.1-10.4-0.5-15.3,1.6c-1.3,0.2-2.5,0.2-3.8-0.2c-3-1.3-5.3-3.1-4.8-6.9
			C145.7,243.8,147.9,243.5,150.5,245.3z"/>
		<path fill="#C4C5C2" d="M147.4,229.9c-7,0.7-12.8-0.8-15.6-8.1c-2.3-4.8,0.8-7.9,3.7-10.9c3.5-0.5,7.1-0.6,10.4-2.3
			c0.7,0.1,1.3,0.4,1.9,0.8c0.9,4.6-1.7,9.6,1.5,13.9c0.3,0.7,0.5,1.3,0.6,2.1C149.9,227.4,149.3,229.1,147.4,229.9z"/>
		<path fill="#BDBDBA" d="M149,225.2c-0.5,0-1.1,0-1.6,0c-1-1.3-1.1-3.1-0.6-4.4c3-7.1,3.1-15.2,6.9-22c2.6,7.7,16,12.4,6.3,23.4
			c-1-1.3-1.7-2.2-3.4-0.5C154.6,223.7,152.7,226.6,149,225.2z"/>
		<path fill="#D1D2CF" d="M153.7,198.8c2.2,9.8-3.4,17.8-6.3,26.4c-2.6-5.2-4.6-10.4,0-15.5c-3.3-5.1-0.5-9.4,1.7-13.8l-0.1-0.1
			c0.4-0.6,1-1,1.5-1.5c0,0,0,0,0,0C153.5,194.5,153.6,196.7,153.7,198.8z"/>
		<path fill="#A2A4A1" d="M150.5,245.3c-2.1,0.6-4.2,1.1-6.2,1.7c-1.8,2.7,2.2,5.5-0.1,8.2c-9.1,2.7-12.7-1.1-10.9-11.7
			c2.2-3.4,4-7.1,6.4-10.4c5.5,2.1,1.9,7,3.1,9.6C145,246,149.7,237.9,150.5,245.3z"/>
		<path fill="#C4C3C1" d="M159.8,223.6c2.1,0.5,4.1,0.9,6.5,1.5c1.1,3.3,1.6,7.4-2.7,9.3c-5.8,2.6-11.6,2.8-16-3.1
			C151.7,228.9,154.1,223.6,159.8,223.6z"/>
		<path fill="#D2D3D0" d="M159.8,223.6c-3.9,2.9-5.6,9.3-12.3,7.7c-0.1-0.5-0.1-1-0.1-1.4c0.5-1.6,1.1-3.1,1.6-4.7
			c3.9-3.5,7.8-7.1,12.7-11.6c-0.7,3.6-1.2,6.1-1.7,8.5C159.9,222.7,159.9,223.1,159.8,223.6z"/>
		<path fill="#959692" d="M139.7,233c1.3,4.5-0.3,7.6-4.6,9.4c-0.3-0.1-0.6-0.1-0.9-0.2c-1.6-0.5-3.2,0.2-4.9,0.2
			c-0.8,0-1.5-0.1-2.2-0.4c-5.4-6.4-4.9-10.7,1.4-13.8c-0.1,1.9-0.2,3.7-0.4,6.1C132.4,233.9,136.1,233.4,139.7,233z"/>
		<path fill="#7B7B76" d="M128.6,228.2c-4.3,4.3-3.9,8.5,0.3,12.6c-3.6,2.8-4.6,2.9-5.9-0.5c-0.7-1.8-1-3.8-2.6-5.1
			c-1.2-1.8-1.4-3.8-1.1-5.9c0.8-2.6,1.5-5.3,2.7-7.7c0.3-1.1,0.9-2.1,1.8-2.8c1.9-0.9,3.6-0.4,5.1,1c2,1.8-1.6,3.8,0.1,5.6
			C128.8,226.2,128.7,227.2,128.6,228.2z"/>
		<path fill="#7D7D79" d="M136.7,211.4c-1.6,3.5-3.3,7-4.9,10.5c-0.4,0.1-0.9,0.3-1.3,0.4c-1.1-0.9-1.3-2.4-2.3-3.4
			c-0.4-1.5-0.1-2.8,0.4-4.2c1.6-2.8,2.7-6,4.6-8.7c0.5-0.6,1-1.2,1.6-1.7c1.6-1.1,3.2-1.7,4.3,0.4
			C140.6,207.6,139.6,209.9,136.7,211.4z"/>
		<path fill="#A6A8A4" d="M172.3,251.6c1-2.8,2-5.5,4.7-12.9C178.6,248,179.2,251.4,172.3,251.6L172.3,251.6z"/>
		<path fill="#63645E" d="M129,219.1c0.5,1,1,2.1,1.5,3.1c-0.5,1-1,2-1.6,3c-6.6-1.2,1.4-3.4-0.4-4.9
			C128.3,219.8,128.5,219.4,129,219.1z"/>
		<path fill="#ACA9A1" d="M167.6,265.6c0.5-3.1,1-6.3,1.5-9.4C168.6,259.3,168.1,262.4,167.6,265.6z"/>
		<path fill="#ACA9A1" d="M164.6,267.2c1-0.6,2-1.1,3-1.7c0,0.5,0,1,0,1.5C166.6,267.1,165.6,267.2,164.6,267.2z"/>
		<path fill="#ACA9A1" d="M170.8,253.2c-0.1-0.5-0.1-1-0.2-1.5c0.6,0,1.1-0.1,1.7-0.1c0,0,0,0,0,0
			C171.8,252.1,171.3,252.7,170.8,253.2z"/>
		<path fill="#5A5143" d="M35.5,268.4c-7.3,1.5-12.4,0.3-10.8-9c-1.2-1.5-0.8-3.1-0.4-4.8c2.5-2.5,5.3-2,8.1-0.8
			c1.1,0.4,2.2,1,3.4,1.3c2.8,0.8,6.6-0.5,7.9,3.6C41.2,262.1,38,264.9,35.5,268.4z"/>
		<path fill="#705433" d="M35.5,268.4c-0.8-6.2,1-10.2,8.2-9.1c0.7-0.2,1.4-0.1,2,0.4c1.5,2.8,3.4,5.5,2.3,9
			C43.9,268.5,39.7,268.4,35.5,268.4z"/>
		<path fill="#5A4636" d="M48.1,268.6c-1-3.1-2.1-6.2-3.1-9.3c1-1.5,2.5-1.9,4.2-1.9c1.6,0.1,3,0.7,3.9,2c0.3,3,2.2,5.8,1.5,9.1
			c-0.7,0.1-1.4,0.3-2.1,0.4C51,268.8,49.5,268.7,48.1,268.6z"/>
		<path fill="#B0B1AD" d="M24.9,254.8c0,1.5-0.1,3.1-0.1,4.6c-0.5-1.5-1.1-3.1-1.6-4.6c0,0,0,0,0,0
			C23.8,254.2,24.3,254.2,24.9,254.8z"/>
		<path fill="#6C6B60" d="M121.1,234.6c5.3-1.2,0.1,10.4,7.7,6.3c0.5-0.1,1-0.1,1.5-0.1c2.1-0.9,2.3,0.7,2.7,2.1
			c0,0.7-0.2,1.4-0.4,2.1c-0.3,0.7-0.7,1.3-1.1,1.9c-0.2,0.3-0.5,0.5-0.7,0.8c-2.6,2.8-4.2,5.5,1.2,7c0.6,0.3,1.2,0.7,1.6,1.2
			c0.3,2.3,1.8,4.3,1.4,6.8c-1.6,2.1-3.9,2.2-6.2,2.2c-1.9,0.1-3.9,0.1-5.6-1c-2.2-4.3-3.4-8.8-2.2-13.7c0.6-1.4,1.5-2.6,3.1-3.1
			c2-4.8-5.2-5.2-4.6-9.3c-0.5-0.4-0.7-1-0.7-1.6c0.3-0.6,0.7-1,1.2-1.4C120.5,234.7,120.8,234.6,121.1,234.6z"/>
		<path fill="#98958C" d="M119.7,236.2c0,0.5,0,1,0,1.6c-3.7,3.1-7.4,6.2-11,9.2c-0.7,0.5-1.5,0.5-2.2-0.1c-1.4-1.6-1.7-3.6-1.5-5.7
			c0.2-1.5,0.8-2.9,2-3.9c2.1-1.1,3.4-2.8,4.4-4.9c0.3-0.5,0.7-0.9,1.2-1.3c0.4-0.3,0.8-0.7,1.2-1.1c0.3-0.5,0.7-0.9,1.1-1.3
			c0.4-0.4,0.9-0.7,1.4-1c0.8-0.4,1.7-0.6,2.6-0.6c0.6,0,1.2,0.2,1.7,0.5c0.2,0.2,0.4,0.5,0.5,0.7c0,2.1,0,4.1,0,6.2c0,0,0,0,0,0
			C120.5,235,120.1,235.6,119.7,236.2z"/>
		<path fill="#372310" d="M122.4,273.3c-8.3-1-6.7-11.9-14.9-13.8c2.6-1.3,4.3-2.2,5.9-3.1c4.6,0.6,4.9,6.7,9.4,7.5
			c2.2,2.3,2.3,4.8,1.2,7.6C123.6,272.1,123.1,272.7,122.4,273.3L122.4,273.3z"/>
		<path fill="#8F8C83" d="M94.7,264.1c-0.6-0.6-1.2-1.3-1.8-1.9c-0.9-0.9-1.3-2-1.4-3.2c0-0.4,0.1-0.8,0.1-1.2
			c0.1-0.4,0.2-0.8,0.3-1.1c3.1-4.4,1.9-10.6,5.8-14.7c4.8,0.5,4.2,5,5.8,7.9c0.1,1.2-0.2,2.3-1.1,3.2c-1.1,2.7-2.1,5.3-3.2,8
			c0.2,0.3,0.5,0.6,0.7,0.9c-0.1,0.4-0.2,0.7-0.3,1.1C98.3,264.9,96.7,265.6,94.7,264.1z"/>
		<path fill="#19130E" d="M121.2,263.9c-7.2,2.3-4.6-5.5-7.8-7.5c0.5-2.6,1-5.2,1.6-7.7c0.4-1,1-1.9,2.3-2.2
			c0.7,0.1,1.4,0.5,1.8,1.1c1.9,2.9,0.5,6.3,1.7,9.3c0.8,1.6,0.7,3.4,0.7,5.1C121.8,262.7,121.7,263.3,121.2,263.9z"/>
		<path fill="#777469" d="M102.4,253.1c0-1,0.1-1.9,0.1-2.9c0.3-2.6,1.7-3.9,4.4-3.5c0.6,0.1,1.2,0.1,1.7,0.2
			c-0.1,2.2-0.2,4.3-0.4,7C106,253.6,104.2,253.4,102.4,253.1z"/>
		<path fill="#717068" d="M94.7,264.1c1.5-0.5,3.1-1.1,4.6-1.6l0,0c0-0.5-0.1-0.9-0.1-1.4c1.6,1.5,3.2,3.1,4.8,4.6
			c-1.1,1-2.2,1.9-3.3,2.9c-1.6-1.5-3.5-1.2-5.4-0.9c-0.3-0.2-0.5-0.4-0.8-0.6C94.6,266.1,94.7,265.1,94.7,264.1z"/>
		<path fill="#504D44" d="M124.2,247c-0.5,1.1-1,2.1-1.5,3.2c-0.3,0-0.7,0-1-0.1c-1.8-0.4-2.5-2.1-3.8-3.1l0,0
			c-1.3-1.6-1.2-3.2,0-4.7C120.1,243.9,122.2,245.5,124.2,247z"/>
		<path fill="#403C31" d="M118,242.3c0,1.6,0,3.1,0,4.7c-1,0.6-1.9,1.1-2.9,1.7C115,246.1,114,243,118,242.3z"/>
		<path fill="#8F8F88" d="M68.3,254.7c0-1.5,0.1-3.1,0.1-4.6c1.7-3.6-0.7-8.5,3.7-11.3c5.3,0,5.1,5.7,8,8.1c4-1.5,2.8-8.2,8.4-7.7
			c-1,9.9,0,20.8-12.4,25c-2.2,0.7-4.1-0.9-3.7-2.3C73.4,257.8,69.6,257.1,68.3,254.7z"/>
		<path fill="#4E4B43" d="M97.6,242.4c1,5.9-0.4,11.1-4.5,15.4c-2-1-3.9,1-6,0.2c1.5-7.3,3-14.6,4.5-21.9c-0.6-0.5-1.1-1.2-1.4-1.9
			c-0.2-0.8-0.2-1.6-0.1-2.4c1.5-3.4,3.5-2.6,5.7-0.8C98.2,234.6,100.1,238.1,97.6,242.4z"/>
		<path fill="#A5A6A1" d="M88.4,239.2c-0.8,1-1.6,2-2.3,3.1c-1.8,3.2-1.6,9-5.8,8.9c-7-0.2-3-9.1-7.5-12c0.1-0.3,0.2-0.6,0.4-0.9
			c0.6-0.8,1.4-1.4,2.2-1.8c0.6-0.3,1.2-0.5,1.8-0.7c1.6-0.3,3.2-0.5,4.8-1c2.1-0.3,4,0.1,5.8,1.3c0.5,0.5,0.9,1,1.2,1.6
			C88.8,238.2,88.6,238.7,88.4,239.2z"/>
		<path fill="#818076" d="M68.3,254.7c3.1,1,6.9-2.1,10,2.4c1.3,2.4-9.6,2.6-2.2,7c-1.6,0.5-3.1,1-4.7,1.5
			C65.7,263.3,69.2,258.4,68.3,254.7z"/>
		<path fill="#1E1A16" d="M87.1,258c1.6-1.3,3.1-2.5,5.2-4.2c0.3,1.8,0.5,2.9,0.7,4.1c0,0,0,0,0,0c-0.7,0.6-0.8,1.5-0.8,2.3
			c0,0.8,0,1.7-0.9,2.2l0,0c-0.4,0.6-0.8,1.2-1.2,1.8c-0.2,0.4-0.3,0.8-0.5,1.3c-0.3,0.6-0.7,1.3-1.1,1.9c-0.2,0.4-0.3,0.8-0.5,1.2
			c-0.3,0.6-0.7,1.3-1,1.9c-0.1,0.4-0.3,0.8-0.4,1.2C79.5,266.9,86.9,262.5,87.1,258z"/>
		<path fill="#999895" d="M91.5,234.5c0,0.5,0.1,1.1,0.1,1.6c-0.5,0.1-1,0.2-1.5,0.4c-0.2-0.3-0.4-0.5-0.5-0.8
			C89.8,234.7,90.3,234,91.5,234.5z"/>
		<path fill="#8F8F88" d="M90.1,236.5c-0.4,0.4-0.8,0.7-1.1,1.1c-0.3,0-0.5,0-0.8-0.1c-0.4-0.6-0.4-1.2,0-1.8
			c0.6-0.3,1.2-0.3,1.7,0.2L90.1,236.5z"/>
		<path fill="#717068" d="M96.1,270c-1,2.2-2.2,4-5.6,2.1c1.4-1.8,2.8-3.4,4.1-5c0,0,0.1,0.1,0.1,0.1
			C95.9,267.8,95.5,269.1,96.1,270z"/>
		<path fill="#575148" d="M96.1,270c-0.5-0.9-0.9-1.9-1.4-2.8c2.4-1.4,4.7-1.9,6,1.4C99.2,269.1,97.6,269.5,96.1,270z"/>
		<path fill="#575148" d="M91.4,262.3c0.1-1,0.2-2,0.2-2.9c0.4-0.6,0.9-0.6,1.4,0c-0.1,0.9-0.1,1.9-0.2,2.8
			C92.4,262.3,91.9,262.4,91.4,262.3z"/>
		<path fill="#575148" d="M90.2,264.2c0.4-0.6,0.8-1.2,1.2-1.8C91,263,90.6,263.6,90.2,264.2z"/>
		<path fill="#4E4B43" d="M88.7,267.3c0.4-0.6,0.7-1.3,1.1-1.9C89.4,266.1,89,266.7,88.7,267.3z"/>
		<path fill="#575148" d="M87.1,270.4c0.3-0.6,0.7-1.3,1-1.9C87.8,269.1,87.5,269.8,87.1,270.4z"/>
		<path fill="#ACA9A1" d="M152,251.5c5.3-3.5,10.5-0.2,15.7,0.2c-4.2,1.5-8.4,2.9-12.6,4.4c-0.9,1.5-2.4,1.7-3.9,1.8
			c-1.8,0-3.4-0.4-3.8-2.4c0.7-2.5,3.1-2,4.7-2.8c0.2-0.1,0.4-0.4,0.3-0.6C152.5,251.8,152.2,251.7,152,251.5z"/>
		<path fill="#767366" d="M152.3,259.6c0.5,3.2,11.6,0.1,4.6,7.7c-3.2-1.3-7.1,0-10-2.6c-1.3-1.3-2-2.7-1.2-4.5
			C147.7,257.9,149.9,257.1,152.3,259.6z"/>
		<path fill="#6C6C61" d="M147.5,264c3.2,0.8,7.7-2,9.4,3.3c-3.1,1-6.2,2.1-9.2,3.1c0,0-0.3-0.4-0.3-0.4c-0.9-1-1.6-2.2-1.4-3.6
			c0.1-0.7,0.4-1.3,0.8-1.8C146.9,264.4,147.2,264.2,147.5,264z"/>
		<path fill="#675F5C" d="M152.3,259.6c-2.1,0.5-4.2,0.9-6.4,1.4c-0.7,0.5-1.4,0.6-2.1,0.3c-1-0.7-1.6-1.6-1.4-2.9
			c2-4.1,5.8-0.1,8.3-1.9c1.5-0.1,2.9-0.2,4.4-0.3c0.9,0.2,1.9,0.3,4.6,0.8C156.2,258.1,154.3,258.8,152.3,259.6z"/>
		<path fill="#281E19" d="M54.5,268.5c0-2.7-8.3-3.5-1.8-7.7c4.8-4.3,6.3-10.8,10.4-15.6c1.8-0.8,2.7,0.2,3.4,1.7
			c-0.4,2.6-0.9,5.2-1.3,7.8C61.1,259,63.6,268.2,54.5,268.5z"/>
		<path fill="#808179" d="M72.9,239.2c-1.5,3.6-3,7.2-4.5,10.9c-0.1-3.7-0.2-7.4-0.3-11.1c-2.1-1.4-2-3.6-2.1-5.7
			c0-2.4-0.7-4.5-2.6-6.1c-1.1-0.9-1.9-2-1.7-3.5c0.7-2,1.6-4,3.6-5.1c0.7-0.2,1.4-0.2,2.1,0c1,0.5,1.8,1.2,2.4,2.1
			c2.3,3.8,1.4,8.9,4.9,12.2c0.8,1.5,2.5,2.6,1.4,4.7l0,0C75.2,238.6,73.7,238.2,72.9,239.2C72.9,239.2,72.9,239.2,72.9,239.2z"/>
		<path fill="#27291F" d="M68.1,231.6c0,2.5,0,4.9,0,7.4c-0.5,2.6-1.1,5.3-1.6,7.9c-0.9-0.5-1.9-1-2.8-1.5c-1.3-0.8-1.9-2-2.2-3.4
			C62.2,237.6,60,231.3,68.1,231.6z"/>
		<path fill="#7E5E33" d="M122.5,273.3c0.1-0.5,0.2-0.9,0.3-1.4c1.7-3.3,3.2-6.7,6-9.3c2.1-0.5,4.2-1,6.3-1.5c0.8-1,1.7-1.1,2.9-0.8
			c3.7,3.7,1.2,7.6,0.4,11.4C133,272.2,127.8,272.7,122.5,273.3z"/>
		<path fill="#6A5534" d="M138.3,271.7c0-3.6,0-7.2-0.1-10.7c0.1-1.2,0.7-2,1.8-2.4c1.1-0.3,2.1-0.1,2.9,0.8
			c0.5,0.5,1.1,1.1,1.6,1.6c0.9,0.9,1.1,2.2,1.8,3.2c0.4,0.5,0.8,0.9,1.3,1.3c-0.1,1.5-0.1,3-0.2,4.6
			C144.3,270.6,141.3,271.1,138.3,271.7z"/>
		<path fill="#B18352" d="M54.4,26.5c2.1-0.1,4.3-0.2,6.4-0.2c0.3,0,0.6,0,1,0c0.5-0.5,1-0.7,1.7-0.5c1.6,0.5,2.3,2.2,3.6,3
			c1.2,0.5,2.3,1.1,3.1,2.2c-0.2,3.6,3.5,5.6,3.9,9c-0.1,2.5-1.3,4.1-4,4.2c-3.5-3.4-5.9-0.5-8.5,1.5c-1.4-0.2-2.9-1.3-2.6-2.4
			C60.9,36.5,56.9,31.7,54.4,26.5L54.4,26.5z"/>
		<path fill="#9B927D" d="M63.6,26.5c-0.6-0.1-1.2-0.1-1.9-0.2c2.2-8.3,10.5-1.7,14.4-6c6.2-1.5,12.3-3.3,18.5,0
			C94.3,21,94,22,93.4,22.1C83.4,23,74.1,29.2,63.6,26.5z"/>
		<path fill="#6D6553" d="M63.6,26.5c10.3-2.1,20.7-4.1,31-6.2c1.1,1.5,2.2,3,3.2,4.5c1.6,1.3,3.1,2.6,1.9,4.9
			c-4.7,3.2-9.5-2.9-14.2,0.2c-3.3,0.1-6.5,1.3-9.8,1.2c-3.5-1-7-3.2-10.6-0.2C64.7,29.4,64.1,27.9,63.6,26.5z"/>
		<path fill="#8D7B5F" d="M99.4,29.7c-0.5-1.6-1-3.3-1.5-4.9c8.5,4.5,17.6-1.2,26.2,1.5c0.8-0.5,1.5-0.4,2.1,0.4
			c1,4.8-2,6.6-5.8,7.8c-3.6-0.1-6.9-2.1-10.6-1.4c-1.8-1.3-3.3-3-5.8-2.7c-1,0-1.9,0.3-2.8,0.2C100.5,30.4,99.9,30.1,99.4,29.7z"/>
		<path fill="#BB9767" d="M125.7,26.5c-0.6-0.1-1.1-0.2-1.7-0.3c1.6-1,3.2-1.9,4.8-2.9c0,0,0.2,0.3,0.2,0.3
			C129.8,26.6,128.7,27.6,125.7,26.5z"/>
		<path fill="#D7B697" d="M147.4,13.9c2.1,4.2,4.1,8.4,6.2,12.6c-2.9,2.6-6,2.8-9.2,0.8c-2.8-2.6-2.3-5.9-1.8-9.2
			c0.4-2,1.7-3.2,3.4-4.1C146.4,14,146.9,14,147.4,13.9z"/>
		<path fill="#D3A988" d="M145.9,14.1c-0.5,1-1,2-1.6,3c-1.4,3.8-2.5,7.7-4.1,11.3c-1.1,2.6-2.5,4.6-5.7,2.5c-1-1.7-0.7-3.2,0.5-4.6
			c1.1-2.6,2.1-5.1,3.2-7.7c0.5-0.5,1-1.1,1.5-1.6c0,0,0,0,0,0C141.8,16.1,143.9,15.1,145.9,14.1z"/>
		<path fill="#B2814B" d="M125.7,26.5c1.1-1,2.2-2,3.3-3c0.9,0.9,1.9,1.9,2.8,2.8c0,0.3,0.1,0.6,0.1,1c0.1,0.6,0,1.3-0.1,1.9
			c-0.2,0.6-0.4,1.2-0.7,1.8c-0.6,1.2-1.4,2.2-2.4,3.2c-3.3,1.7-3.2,5.8-5.8,7.9c-2.5,1-4-0.3-5.4-2.1c-0.2-0.3-0.3-0.6-0.5-1
			c-0.1-0.3-0.1-0.7-0.2-1c-0.1-1.1,0.1-2.1,0.6-3.1c0.5-0.9,1.3-1.6,2-2.3C121.5,30.6,123.6,28.6,125.7,26.5z"/>
		<path fill="#CF9D67" d="M135,26.4c0,1.6,0,3.1,0.1,4.7c2.1,2.2,2.9,4.8,2.3,7.7c-0.9,3.1-1.2,6.7-5.8,6.2
			c-2.9-5-3.4-10.2-1.2-15.5l0.1,0c0.9-0.8,0.6-2.2,1.5-3.1c0,0,0,0,0,0C132.9,26.4,134,26.4,135,26.4z"/>
		<path fill="#BFA06F" d="M139.7,17.1c-0.5,0.5-1,1.1-1.5,1.6C138.7,18.2,139.2,17.6,139.7,17.1z"/>
		<path fill="#D4BA9F" d="M38.8,54.3c-0.1-9.2-6.6-17.2-4.6-26.7c0.9-4.2,0.8-9.7,7.7-5.8c3.2,4,6.4,7.9,9,12.3
			c2.3,3.6,3.5,7.3,1.5,11.5c-1.6,2.6-4.1,0.7-6.2,1.2c-2,2.8,2.6,8.9-4.5,9.1C40.7,55.5,39.6,55.1,38.8,54.3L38.8,54.3z"/>
		<path fill="#CAAD91" d="M51.2,46.6c2.7-10.4-8.1-15.8-9.3-24.8c9.3,1.9,9.3,12.4,15.5,17.1c2.8,6.7,4.1,13.5,1.6,20.6
			c-0.7,1.3-1.8,2-3.2,2c-1.3-0.1-2.2-0.9-2.8-2.1c-1.1-3.8,0.3-8-1.7-11.8C51.2,47.3,51.2,46.9,51.2,46.6z"/>
		<path fill="#C69A6B" d="M57.3,60.6c0-7.2,0-14.5,0-21.7c-1-4.1-2-8.3-3-12.4c7.1,4.4,6.5,11.8,7.6,18.6c2.9,0.7,4.6,2.7,5.5,5.5
			C66,55.8,65,61.6,57.3,60.6z"/>
		<path fill="#AF9669" d="M40.3,14.1c0.5,0.5,1,1,1.5,1.4C41.3,15.1,40.8,14.6,40.3,14.1z"/>
		<path fill="#AF9669" d="M41.8,15.6c0.5,0.5,1.1,1,1.6,1.5C42.9,16.6,42.4,16.1,41.8,15.6z"/>
		<path fill="#C8A073" d="M38.8,54.3c1,0,2,0,3,0c4.9,1.8,1.8,8.2,6,10.4c1.9,2.1,5.1,1.8,7.1,3.8c0.3,0.7,0.4,1.4,0.3,2.1
			c-1.7,4.5-5.3,3.1-8.6,2.8c-2.6-0.7-5-1.8-6.9-3.8c-0.7-0.9-1-2-0.9-3.2C38.8,62.4,38.8,58.4,38.8,54.3z"/>
		<path fill="#615138" d="M38.8,66.5c0.6,0.5,1.2,1,1.8,1.6c1.3,3.1-0.3,4.4-3.1,4.8c-5.1-2.3-11,0.1-16.1-2.6
			c-0.4-0.7-0.3-1.3,0.3-1.9c2-1.6,4.1-3.1,6.1-4.7c4.6-3.5,6.8,0.5,9.6,2.9C37.9,66.6,38.4,66.6,38.8,66.5z"/>
		<path fill="#756447" d="M37.4,66.6c-3.2-1-6.4-1.9-9.6-2.9c0-1.5,0.1-3,0.1-4.5C32,60.5,38,59.4,37.4,66.6z"/>
		<path fill="#D0BDB1" d="M144.4,26.3c3.1,0.1,6.2,0.1,9.2,0.2c0,1.5,0,3,0,4.5c-2.5,2.2-0.7,5.6-2.3,8.1c-2,1.7-2.8,4.4-4.6,6.1
			c-2.9,2.6-5.9,3.6-7.6-1.5c-0.6-4.8-1.3-9.6,0.5-14.4C140.6,27,141.2,24.8,144.4,26.3z"/>
		<path fill="#D7B697" d="M150.6,38.8c0.5-2.8-1.4-6.6,3.1-7.8c0,5.8,0.1,11.6,0.1,17.4c1,4.6,5,9.2-0.1,13.8
			c-1.5,1.6-3.1,1.5-4.7,0.1c-0.4-0.6-0.6-1.3-0.5-2c0.8-2.1,0.3-4.1-0.3-6.1C146.9,48.7,147.9,43.6,150.6,38.8z"/>
		<path fill="#7C715A" d="M21.7,68.4c0,0.5,0.1,1.1,0.1,1.6c3.1,2.3,8,2.7,8.1,8c0.6,2.9-2.3,5.6-0.4,8.6c0.5,0.9,0.9,1.9,1.1,2.9
			c0.2,2.9-0.1,5.7-1.8,8.2c-0.5,0.5-1.1,0.8-1.8,0.9c-4.4,0.5-2.7,6.4-6.5,7.5c-0.7,0.2-1.3,0.1-1.9-0.5l0,0
			c-1.6-1.2-3.4-2.3-1.4-4.6l0,0c0.4-0.8,0.8-0.9,1.4-0.1c1.4-6.4,10.1-13.3-1.5-18.6l0,0C15.5,76.7,18,72.3,21.7,68.4z"/>
		<path fill="#8D836D" d="M181.6,85.4c-1.5,0-3.1,0-4.6,0.1c-7.4,1.1-2.1,7.5-4.6,10.7c-2.8,0.4-2.5-1.1-1.8-2.9
			c-5.3-10.2,8.3-19.3,1.7-29.6c1.1,1,2.1,2,3.2,3.1C177.2,73.1,183.1,78,181.6,85.4z"/>
		<path fill="#775F44" d="M156.6,63.8c1.1-1.7,2.2-3.3,3.2-5c-2.2,8.2,15.6,7.3,8.1,17.9c-0.4,0.5-1.3,0.7-1.9,1
			c-0.3-0.1-0.6-0.2-0.9-0.3c-2-1-2.2-3.8-4.6-4.3c-1.9-0.1-2.2,0.9-1.6,2.3c0.7,1.5,2.2,2.9,0.5,4.7c-4,1.5-8.1,3.2-12.5,1.2
			c-2.3-1.1-4-2.6-4.7-5.1c-0.1-2.7,1.5-4,3.8-4.7c3-0.4,2.2-3.2,3-5c0.5-0.9,1.2-1.6,2.2-1.9C153.2,64.4,155.2,66.3,156.6,63.8z"/>
		<path fill="#342314" d="M162.7,82.5c1,3.5,2.1,6.9,3.1,10.4c-0.2,1-0.6,1.9-1.6,2.4c-0.7,0.2-1.3,0.3-2,0.2
			c-0.7-0.2-1.3-0.4-1.9-0.7c-0.6-0.3-1.1-0.8-1.6-1.3c-1-1.3-2-2.7-3.3-3.8c-0.5-0.5-0.9-1.1-1.3-1.6c-0.2-0.3-0.3-0.6-0.5-0.9
			c-1.3-4,0.8-5.9,4.2-7c0.7-0.1,1.4-0.1,2,0c0.7,0.1,1.3,0.3,1.9,0.7C162.2,81.3,162.5,81.8,162.7,82.5z"/>
		<path fill="#8E8068" d="M162.7,82.5c-0.4-0.1-0.7-0.3-1-0.5c-0.7-0.3-1.2-0.7-1.6-1.3l0,0c-1.1-0.4-1.1-0.9-0.1-1.4
			c-1.8-0.9-3.6-1.7-5.8-2.8c1.6-3.1,0.3-9.7,7.4-5c2,1.7,1.8,5.1,4.6,6.3c0,0,0,0,0,0C166.2,80.2,165.6,82.2,162.7,82.5z"/>
		<path fill="#6C5C4D" d="M162.9,94.9c1-0.7,2-1.3,2.9-2c1.6,0.1,3.2,0.2,4.8,0.4c0.6,1,1.2,1.9,1.8,2.9c0,0,0,0,0,0
			c2.1,1.7,2.7,3.9,0.6,5.8c-2.7,2.4-5.1-0.5-7.7-1c-1.4-0.7-2.5-1.5-3.2-3C161.9,96.9,162.1,95.8,162.9,94.9z"/>
		<path fill="#D6A867" d="M148.9,60.7c1.6,0.5,3.2,1,4.7,1.5c0,0.5,0,1,0,1.5c-0.2,0.3-0.5,0.5-0.7,0.8c-5.2,4.7-12.8,2.7-18.4,6.7
			c-1.8,1.3-4.4,0.8-6.4-0.9c-0.5-0.6-0.9-1.3-1.2-2c-0.5-2.3-0.6-4.6,0.8-6.8c3.2-2.3,7.3-1.6,10.7-3.3
			C142.1,58.4,146.1,57.2,148.9,60.7z"/>
		<path fill="#5F421C" d="M156.6,63.8c-0.1,1.3-0.2,2.5-0.4,3.8c-1.3-0.7-2.7-1.4-4-2.1c0-0.6,0.3-0.9,0.9-1c0.8,0,1.6-0.2,2.3-0.6
			C155.8,63.8,156.2,63.8,156.6,63.8z"/>
		<path fill="#775F44" d="M155.4,63.9c-0.7,0.4-1.3,0.7-2,1.1c-0.4-0.3-0.5-0.6-0.4-0.9c0.1-0.3,0.3-0.5,0.4-0.5c0,0,0.2,0,0.2,0
			C154.2,63.7,154.8,63.8,155.4,63.9z"/>
		<path fill="#908273" d="M166.2,99.3c1.8,0.6,3.6,1.3,6.2,2.2c0-1.8,0-3.5,0-5.3c11.5,5.3-4.9,14.5,2.9,20.3c2,3.4,1.2,5.6-2.8,6.4
			c-3.5-3.3-1-7.4-1.2-10.4c0.1,0.6-0.7,1-1.8,0.9l-0.6-0.2C166.2,109,165.8,104.2,166.2,99.3z"/>
		<path fill="#C8BDB7" d="M166.2,99.3c3.4,4.2,3.1,9.1,2.7,14c-0.4,0.5-0.8,1.1-1.2,1.6c0.1,10.5-6.6,19.2-7.6,29.4
			c-0.6,0.5-1.2,1.1-1.8,1.7c0,0,0,0,0,0c-1.5-0.5-3.1-1.1-4.6-1.6c-5.7-5.6-4.1-13-4.9-19.8c-0.2-1.8-0.2-3.5-1.3-5
			c0-0.5-0.1-1-0.1-1.5c-5.5-5-4.6-12.1-5.7-18.4c-0.5-2.8,2.7-5,5.3-3.6c5.4,2.7,10.8,1.9,16.2,1.6
			C164.3,98.2,165.3,98.8,166.2,99.3z"/>
		<path fill="#BEB5A9" d="M158.3,144.5c0-10.8,6.7-19.5,9.4-29.5c0.8,8.7-0.8,17-4.6,24.9c0,0,0,0,0,0c-1,1.8,0.3,4.7-2.8,5.3
			C159.5,145.3,158.9,145,158.3,144.5z"/>
		<path fill="#776B5B" d="M169.5,113.4c0.6-1.4,1.2-2.7,3-6.8c0,7.2,0,11.7,0,16.3c0,0,0,0,0,0c-1.2,0.9-1.1,1.9-0.1,2.9
			c0,0,0,0,0,0c0,1.6-0.1,3.2-0.1,4.7C165.8,125.7,170.5,119.1,169.5,113.4z"/>
		<path fill="#948B7D" d="M159.9,144.5c1.1-1.5,2.1-3.1,3.2-4.6c2,2.1,4.1,4.2,6.1,6.2c-3.2,8-6.2-0.8-9.3-0.1
			c-0.5-0.3-0.6-0.7-0.5-1C159.6,144.6,159.7,144.5,159.9,144.5z"/>
		<path fill="#9C9286" d="M159.9,144.5c0,0.5,0,1,0,1.6c0,0-0.8,0-0.8,0s-0.8,0-0.8,0c0-0.5,0-1,0-1.6
			C158.9,144.5,159.4,144.5,159.9,144.5z"/>
		<path fill="#908273" d="M172.4,125.7c0-1,0-1.9,0.1-2.9C172.5,123.8,172.5,124.8,172.4,125.7z"/>
		<path fill="#BDBEBA" d="M122.7,181.8c5.4-0.4,7.5-8.2,13.9-6.3c0,0,0,0.1,0,0.1c4,8.7,1.1,16.3-3.7,23.7
			c-0.8,4.9-2.8,9.3-4.7,13.8c-0.8,1.7-1.5,3.5-3.1,4.7c-1.6,0.6-1.6,2.6-2.9,3.4c-1.8,0.5-3.2-0.1-4.4-1.4c-0.9-0.9-1.5-2-1.9-3.2
			c-2.1-8.6-3.1-17.4-2.8-26.2C116.3,187.5,117,181.9,122.7,181.8z"/>
		<path fill="#A47E44" d="M130.2,144.4c-0.4,0.1-0.8,0.1-1.2,0.1c-1.9,0-0.4-3.8-3.2-2.9c-4.4-5-2.4-10.1,0.3-14.9
			c1.4-2.5,3.6-4.8-0.4-6.9c-2.4-4.2,0.2-7,3.2-9c3.8-2.6,5.2,1.5,7.5,3.3c0.5,0.4,1,0.9,1.4,1.5c0.5,0.9,0.7,1.9,0.8,2.9
			c0.1,1-0.1,2-0.3,3c-0.7,1.8-1,3.8-1.1,5.7c-0.5,1.9-0.6,3.9-0.3,5.8c0.1,1.1-0.1,2.1-0.3,3.1
			C135.5,139.6,131.1,140.7,130.2,144.4z"/>
		<path fill="#A4A5A0" d="M114.8,160c0.4,1.7,0.9,3.3,1.6,5.8c-10-3.1-8.7,7.9-14.2,11.1c4.2,1.1-1.5,8.2,4.8,7.9
			c0.7,2.1-0.8,3-2.3,3c-4.5,0-7.4,2.9-10.4,5.5c-1.2,0.4-2.3,0.2-3.3-0.5c-1.1-1.3-1.2-2.9-0.9-4.5c0.3-1.2,0.9-2.1,1.7-3.1
			c3.3-5.9,4.4-12.9,8.5-18.5c2.8-1.4,4.8-3.8,7.1-5.8C109.7,159.1,112,157.4,114.8,160z"/>
		<path fill="#7A5627" d="M127.2,141.3c0.6,1.1,1.2,2.1,1.9,3.2c-0.9,2.6-1.1,5.7-4.7,6.3c-2,1-4.1,0.8-6.2,0.5
			c-3.1-2.7-2.5-5.9-1.2-9.2c1.1-2,2.5-3.8,6.5-4.4C124.7,137.5,124.2,142.1,127.2,141.3z"/>
		<path fill="#63584B" d="M117.8,150.6c2.2,0.1,4.4,0.1,6.6,0.2c-2.6,1.5-5.3,3-7.9,4.5c-2.5,3.3-7,3.7-9.5,6.8
			c-0.6,0.5-1.1,1-1.7,1.5c-0.7,0.4-1.4,0.6-2.1,0.7c-1.2,0-2.2-0.4-3.1-1.2c-2.4-3.2-0.6-5.4,2-6.8c4.2-2.3,8-5.4,12.6-6.9
			C115.8,149.4,116.9,149.8,117.8,150.6z"/>
		<path fill="#989894" d="M94.7,192.5c-0.1-9.3,8.1-5.3,12.3-7.7c1-0.5,2.1-1,3.1-1.6c1.9-1.1,4-1.5,5.1,0.7
			c1.1,2.2-0.7,3.6-2.5,4.6c-0.6,0.4-1.2,0.8-1.9,1.1c-2.4,0.5-4.7,1.4-7,2.1c-1.7,0.3-3.1,1.2-4.7,1.7c-0.6,0.2-1.3,0.4-2,0.4
			c-0.7,0-1.3-0.2-1.9-0.6C95.1,193,94.9,192.8,94.7,192.5z"/>
		<path fill="#A4A5A2" d="M110.2,188c1.3-1,2.6-2,4.7-3.5c-2.1-0.5-3.4-0.9-4.7-1.2c4-2.3,7.4-8.6,12.5-1.4
			c-2.6,2.6-5.2,5.2-7.7,7.8C113.1,189.9,111.3,189.8,110.2,188z"/>
		<path fill="#A99E8A" d="M130.2,144.4c1.6-3.1,3.2-6.2,4.8-9.2c1.4-1.6,1.9-4.5,5.5-3.6c2.1,1.8,0.8,4.5,1.2,6.9c-0.3,1-0.6,2-1,3
			c-0.3,0-0.6,0-0.9,0C136.6,142.4,133.4,143.4,130.2,144.4z"/>
		<path fill="#B9B8B0" d="M105.5,161.6c3.6-2.1,7.3-4.2,10.9-6.2c3.7,3-2.8,2.5-1.6,4.7c-4.6,2.5-9.2,5-13.8,7.6
			c-0.4-0.6-0.4-1.3-0.2-2c0.6-1.4,2.3-1.5,3-2.8l0,0.1C104.5,162.7,105,162,105.5,161.6z"/>
		<path fill="#9C9286" d="M139.8,141.4c0.3,0,0.6,0,0.9,0c0,0,0.7,0,0.7,0c0.4,0.5,0.5,0.8,0.2,1.1c-0.2,0.2-0.4,0.2-0.7,0.2
			c-0.4,0.1-0.7,0.2-1.1,0.4C139.8,142.5,139.8,141.9,139.8,141.4z"/>
		<path fill="#B5B6B1" d="M130.4,198.8c5.9-6.7,5-15.3,6.2-23.2c1.6-1.1,3.2-2.1,4.7-3.2c1.5,1.2,0,3.4,1.5,4.7c0,0.5,0,1,0,1.6
			c-1.2,5.3,5.1,9.9,1.5,15.5l0,0c-0.9,5.8-7,7.7-9.2,12.5l0,0C129.4,206.6,133.9,200.3,130.4,198.8z"/>
		<path fill="#A8A8A3" d="M135.1,206.7c0.6-6,5.1-9.1,9.2-12.5c1,1,2,2,3,3.1c0.8,4.3-3.3,8-1.5,12.5c-2.6,2.8-5.4,4.9-9.2,1.7
			c0.6-1.9,1.1-3.7,2.2-7.1C136.8,205.6,136,206.1,135.1,206.7z"/>
		<path fill="#A8A8A3" d="M144.3,194.1c0.1-5.2-9-9.5-1.5-15.5C150.5,183.1,151.5,188.2,144.3,194.1z"/>
		<path fill="#BFC0BD" d="M145.9,209.7c-1.5-1.1-3.1-2.3-4.7-3.5c2.3-3.2,4.3-6.1,6.3-8.9c0.6-0.5,1.2-0.9,1.7-1.4
			c-0.6,4.6-1.1,9.2-1.7,13.8C146.9,209.7,146.4,209.7,145.9,209.7z"/>
		<path fill="#A8A8A3" d="M142.8,177.1c-0.5-1.6-1-3.1-1.5-4.7c0.5,0,1,0,1.5,0.1C142.8,174,142.8,175.5,142.8,177.1z"/>
		<path fill="#B5B5B1" d="M150.6,194.2c-0.5,0.5-1,1-1.5,1.5C149.6,195.2,150.1,194.7,150.6,194.2z"/>
		<path fill="#C0AEA6" d="M163.3,97.6c-6.3,5.7-12.6,3-20.2-1.3c1.6,8.3,3,15,4.3,21.8c-0.5,0-1-0.1-1.5-0.1
			c-7.3-3.2-5.6-10.8-8.2-16.4c-0.1-9.4,3.1-12.1,12.1-10c3.7,0.9,7,3.5,11.1,2.5c0.8-0.1,1.5,0.2,2,0.8c0,0,0,0,0,0
			C163,95.8,163.2,96.7,163.3,97.6z"/>
		<path fill="#BDAEA4" d="M147.5,119.6c7.2,7,2.8,16.9,6.2,24.8C142.5,138.4,146.4,128.7,147.5,119.6z"/>
		<path fill="#A0845E" d="M139.8,100.8c2,5.7,4.1,11.5,6.1,17.2c-0.5,1.6-1,3.1-1.5,4.7c-2.8-2.3-4.8-5.5-7.7-7.6l-0.2-0.2
			c-3.2-5.4-4.3-11-1.7-17c0.7-0.5,1.5-0.8,2.3-0.8C139.4,97.4,138.5,99.9,139.8,100.8z"/>
		<path fill="#927F6B" d="M141.7,138.4c-3.2-1-3.5-3.1,1.3-8.4c-5,3.3-6.5,4.2-7.9,5.1c0-0.8,0-1.5,0-2.3c-0.5-2,1.1-4,0-5.9
			c0.5-1.9,1-3.8,1.5-5.8c2.5,0,3.8,1.6,5,3.5c1.5,2.7,1.3,6,2.7,8.7c0,1.1,0.1,2.3,0.1,3.4C143.4,137.3,142.5,137.8,141.7,138.4z"
			/>
		<path fill="#755F46" d="M144.2,133.4c-1.5-2.6-2.9-5.1-4.4-7.7c0.4-3.1-1.1-5.4-3.1-7.6c0-1,0-2,0-3c5.5-0.4,7.5,2.7,7.7,7.7
			c0,0,0,0,0,0c-1.3,1.5-0.9,3.1-0.2,4.7C144.2,129.4,144.2,131.4,144.2,133.4z"/>
		<path fill="#A0845E" d="M144.2,127.4c0.1-1.6,0.2-3.1,0.2-4.7C144.3,124.3,144.2,125.9,144.2,127.4z"/>
		<path fill="#3F362A" d="M140.9,142.7c0.1-0.5,0.3-0.9,0.5-1.3c0.3,0.5,0.7,1,1,1.5C141.9,142.8,141.4,142.8,140.9,142.7z"/>
		<path fill="#98958D" d="M142.8,259.4c-1,0-2,0.1-3,0.1c-3.8,2.4-4.9-1-6.4-3.2c-0.5,0-0.9-0.1-1.4-0.1c-4.4-3-3.9-6.8-1.6-10.8
			l0,0c0.5-0.5,1-1,1.5-1.6l0-0.1c0.9-0.8,1.4-2.4,3.1-1.5c0,0,0.1,0.1,0.1,0.1c-0.3,6.5-2.6,14.7,9.3,10.9c1.1-2,3.2-0.6,4.6-1.5
			c1-0.1,2-0.1,3-0.2c1.5,0.1,2.9,0.2,5.9,0.4c-3.8,1.4-6.3,2.3-8.7,3.2c-0.1,0,0,0.6,0.1,0.7c0.4,0.3,0.9,0.4,1.4,0.6
			C148.1,257.4,145.5,258.4,142.8,259.4z"/>
		<path fill="#B1B2AA" d="M149.1,251.7c-1.5,0.5-3.1,1-4.6,1.5c-5.3-2-2.8-4.1-0.2-6.3C145.9,248.5,147.5,250.1,149.1,251.7z"/>
		<path fill="#7B7B76" d="M135,242.3c-1,0.5-2.1,1-3.1,1.5c-0.5-1-1-2.1-1.5-3.1c1.5-0.4,3.1-0.7,4.6-1.1
			C135,240.5,135,241.4,135,242.3z"/>
		<path fill="#989894" d="M110.2,188c1.6,0.5,3.2,1.1,4.7,1.6c1,9.3,2.1,18.6,3.1,27.9c0.5,0.5,0.9,1.1,1.4,1.6
			c1,0.5,2.1,0.9,3.1,1.4c0.9,0.2,1,1.1,1.5,1.6c-1,2.1-2,4.2-3,6.4c0,0-0.2-0.2-0.2-0.2c-0.4-0.4-0.8-0.8-1.1-1.1
			c-0.4-0.4-0.7-0.8-1-1.3c-0.4-0.4-0.7-0.9-1-1.3c-0.2-0.2-0.4-0.5-0.6-0.7c-0.4-0.4-0.9-0.9-1.3-1.3c-0.7-0.7-1.3-1.5-1.9-2.3
			c-1.3-2.3-2.2-4.7-3-7.1c-0.9-5.7-1.7-11.5-3.2-17.1C107.1,192.9,106.5,189.8,110.2,188L110.2,188z"/>
		<path fill="#9A9A95" d="M124.1,217.4c0.6-1.5,1.1-3,1.7-4.6c3.7-2.2,3.8,0.9,4.6,3.1c-0.5,1.1-0.9,2.2-1.4,3.3
			c-0.1,0.4-0.3,0.8-0.4,1.2c-1.4-0.4-2.9-0.8-4.3-1.2c-0.5-0.3-0.7-0.7-0.6-1.1C123.8,217.6,123.9,217.4,124.1,217.4z"/>
		<path fill="#A9A9A5" d="M124.1,217.4c0.1,0.6,0.1,1.2,0.2,1.7c-0.1,1-0.1,2-0.2,2.9c-0.5-0.5-1-1.1-1.5-1.6
			C123.1,219.4,123.6,218.4,124.1,217.4z"/>
		<path fill="#ACADA8" d="M130.4,215.9c-1.5-1-3.1-2.1-4.6-3.1c1.6-4.7,3.1-9.3,4.7-14c9.1-1.9-0.7,7.6,4.7,7.9
			C133.5,209.8,132,212.8,130.4,215.9z"/>
		<path fill="#A2A29E" d="M24.9,254.8c-0.6,0-1.1,0-1.7,0c1-1,2.1-2.1,3.1-3.1c0,0,0.6-0.1,0.6-0.1c0,0,0.2-0.6,0.2-0.6
			c-0.2-0.3-0.5-0.6-0.8-0.9c-0.5-0.5-1.1-1-1.6-1.5c-2.9,0.5-4.7-2.1-7.2-2.2c0.6,0.7,2.1,0.8,2.5,2.2c-8.6,1.7-13.8-3.5-18.6-9.3
			c0.5-3,1.4-5.7,4.6-6.9c3.3-0.5,4.9,2.7,7.6,3.4c4.8,2.9,9.6,5.8,14.8,7.9c2.5,1.5,5.2,2.6,6.9,5.1c0.8,1.3,1.3,2.6,1.6,4.1
			c0.2,1.1,0,2.2-0.5,3.2c-0.5,0.5-1.1,0.9-1.8,1c-0.7,0.1-1.4-0.1-2-0.5C30,255.9,27.5,255.3,24.9,254.8z"/>
		<path fill="#BEBEBC" d="M20.1,248.5c-3.4-1.9-6.7-3.7-10.1-5.6c0.4-0.6,0.7-1.3,1.1-1.9c4.6,2.5,9.1,5,13.7,7.6
			C23.2,248.5,21.6,248.5,20.1,248.5z"/>
		<path fill="#BEBEBC" d="M26.3,250c1.6,0.6,3.1,1.1,6.7,2.4c-3.1,0.4-4.1,0.5-5.1,0.6c-0.6-0.4-1.1-0.8-1.6-1.4c0,0,0,0,0,0
			C26.3,251.1,26.3,250.6,26.3,250z"/>
		<path fill="#9D9282" d="M34,256.3c0.6-0.1,1.2-0.2,1.8-0.3c1.8-1.7,4-2.3,6.3-2.7c1.6-0.1,3.1,0.6,4.7,0.8c2.2,1,5,1.7,2.6,5.1
			c-1.5,0-2.9,0.1-4.4,0.1c0,0-0.6-0.1-0.6-0.1s-0.6,0-0.6,0c-3.1-0.5-6.1-1-9.2-1.5c-0.5-0.1-0.8-0.4-0.8-0.7
			C33.8,256.5,33.9,256.3,34,256.3z"/>
		<path fill="#705433" d="M34,256.3c0.1,0.5,0.3,0.9,0.5,1.3c-0.6-0.4-1.3-0.8-1.9-1.2C33.1,256.4,33.5,256.3,34,256.3z"/>
		<path fill="#55544B" d="M49.3,259.3c0-3-2-3.1-4.1-3c0.2-4.9,4.3-3.2,6.8-4c2.9-0.4,3.2-2.9,4.2-4.9c1.4-3,2.9-6.2,7.4-5
			c0,1,0,2.1,0.1,3.1c-2.8,5.8-1.6,14.4-11,15.4C51.6,260.3,50.5,259.8,49.3,259.3z"/>
		<path fill="#88867A" d="M130.4,245.4c0.5,3.6,1,7.2,1.6,10.8c-2,0-4,0-6.1,0C125.1,251.2,126.1,247.6,130.4,245.4z"/>
		<path fill="#674D2E" d="M128.8,262.6c1.3,5.2-2.7,7-6,9.3c-0.5-2.7-1-5.3-1.6-8c0-0.5,0-0.9,0.1-1.4c0.5-0.6,1.1-0.6,1.6-0.1
			C124.9,262.5,126.8,262.5,128.8,262.6z"/>
		<path fill="#504D44" d="M122.9,262.4c-0.5,0-1.1,0.1-1.6,0.1c-0.6-1.5-1.2-3.1-1.8-4.6c-0.9-3.4-2.2-6.9,3.1-7.9
			c0,0,0.2,0.2,0.2,0.2C119.5,254.3,129,258.2,122.9,262.4z"/>
		<path fill="#88867A" d="M133.4,256.4c2.1,1.1,4.3,2.1,6.4,3.2c-0.5,0.5-1.1,1-1.6,1.5c-1.1,0.1-2.1,0.1-3.2,0.2
			c-1.1-0.2-2.3-0.4-3.8-0.6C132.1,258.8,132.7,257.6,133.4,256.4z"/>
		<path fill="#88867A" d="M131.9,243.9c-0.5,0.5-1,1-1.5,1.6C130.9,244.9,131.4,244.4,131.9,243.9z"/>
		<path fill="#7B7B76" d="M119.7,236.2c0.5-0.5,0.9-1.1,1.4-1.6C120.6,235.1,120.2,235.6,119.7,236.2z"/>
		<path fill="#BCBBB6" d="M120.9,225.3c0,0.5,0,0.9,0,1.4c-0.3,0.7-0.8,1.2-1.4,1.6c-1,0.5-2,1-3.1,1.5c-0.4-0.4-0.9-0.6-1.4-0.7
			c0,0-0.8-0.1-0.8-0.1c-0.5-0.1-1-0.2-1.5-0.3c0,0-0.7-0.1-0.7,0c-0.5,0.1-1,0.2-1.5,0.4c-0.5,0.4-0.9,0.7-1.4,1.1
			c-1.8,3.3-3.1,6.6-2.1,10.4c-0.1,2-0.1,4-0.2,6c-1.5,1.2-2.9,2.3-4.4,3.5c-4.7-0.7-1.8-6.1-4.9-7.8c-1-3.6-2.1-7.2-3.1-10.8
			c-2-2.9-2.3-6.1-2.4-9.5c-0.3-1.2-0.8-2.4-1-3.6c-0.2-2.1-0.1-4.2,1.4-5.9c1-0.7,2.1-0.9,3.3-0.6c1.3,0.6,1.8,1.8,2,3
			c0.1-1.5-0.5-2.6-1.3-3.6c-1-1.9-0.8-4-1-6c-0.2-1.3-0.8-2.4-1.9-3.2c-0.5-0.4-1-0.9-1.4-1.4c-0.8-1.1-1.5-2.3-1.9-3.6
			c-0.2-0.7-0.2-1.3-0.2-2c0.2-1,0.6-1.9,1.5-2.5c1,0,2.1-0.1,3.1-0.1c0,0,0,0,0,0c1,1.1,2,1,3,0l0,0c4.6,0.3,3.3,4.2,4.2,6.8
			c1.5,4.2,1.1,8.5,1.2,12.8c0,1.1,0,2.3,0,3.4c0,0.7,0,1.4,0,2c0,0.6,0.2,1.2,0.3,1.8c0.6,0.7,1.4,0.9,2.2,0.9
			c0.9-0.1,1.8-0.1,2.8-0.1c0.6,0,1.3,0.1,1.9,0.3c2.5,0.7,4.8,1.8,7.3,2.3c0.7,0.1,1.2,0.4,1.6,0.9l0,0
			C120,224.2,120.5,224.7,120.9,225.3z"/>
		<path fill="#A9A9A5" d="M107.1,240.7c-2.8-5.5-4.2-10.7,3.1-14c1.1,0.8,1.5,1.9,1.6,3.2c-0.8,2.7-1,5.6-3.1,7.7
			C108.1,238.7,107.6,239.7,107.1,240.7z"/>
		<path fill="#BDBAB3" d="M108.6,237.7c0.5-2.6,1-5.2,1.6-7.8c1.8-0.8,2.5,0.2,2.9,1.7C110.9,233,115.8,239.8,108.6,237.7z"/>
		<path fill="#8D8982" d="M113.1,231.5c-1-0.6-2-1.1-2.9-1.7c0-1,0-2.1,0-3.1c0,0,0,0,0,0c1-0.9,2.1-0.9,3.1,0l0,0
			c0.5,0.6,1,1.1,1.5,1.6l0,0c0.4,0.3,0.5,0.6,0.4,0.9c-0.1,0.3-0.2,0.5-0.3,0.5c0,0.5,0,1.1-0.1,1.6l0,0
			C114.3,231.5,113.7,231.5,113.1,231.5z"/>
		<path fill="#A9A9A5" d="M114.9,229.8c-0.1-0.5-0.1-1-0.1-1.5c0.5,0.5,1,1,1.6,1.5C115.9,229.9,115.4,229.8,114.9,229.8z"/>
		<path fill="#8D8982" d="M114.9,231.4c0.2,0.1,0.3,0.2,0.5,0.3C115.2,231.6,115,231.5,114.9,231.4
			C114.8,231.4,114.9,231.4,114.9,231.4z"/>
		<path fill="#A9A9A5" d="M119.5,228.3c0.5-0.5,0.9-1.1,1.4-1.6c0.1,0.5,0.1,1,0.1,1.5C120.5,228.3,120,228.3,119.5,228.3z"/>
		<path fill="#4E4B43" d="M93,259.4c-0.5,0-0.9,0-1.4,0c0.5-0.5,1-1.1,1.4-1.6C93.1,258.3,93,258.9,93,259.4z"/>
		<path fill="#403C31" d="M122.6,250c-3.3,1.7-3,4.9-3.1,7.9c-0.5-3.6-1-7.3-1.5-10.9C119.5,248,121,249,122.6,250z"/>
		<path fill="#8F8C83" d="M99.3,262.5c0.2,0.1,0.3,0.2,0.5,0.3C99.6,262.7,99.5,262.6,99.3,262.5C99.3,262.5,99.3,262.5,99.3,262.5z
			"/>
		<path fill="#B2B2AF" d="M90,236.1c-0.4,0.1-0.9,0.2-1.4,0.2c-5.9-2.1-9.2-8.5-15.8-9.3c-3.1-1.3-2.5-4.8-4.3-6.9
			c-0.6-0.3-1.2-0.7-1.7-1.1l0,0c-1.7-1.4-2-3.2-1.3-5.2c0.3-0.7,0.8-1.2,1.5-1.7c4.2-1.5,6.4,2.2,9.3,3.8c3.2,1.8,6,4,9.4,0.8
			c0.4-1,0.6-2,0.8-3c0.2-0.7,0.5-1.4,1-2c0.5-0.6,1.2-0.8,2-0.8c4.2,5.6,3.4,11.8,2,18c-0.3,1.5-1.2,2.8,0.2,4.2
			c0,0.5-0.1,1-0.1,1.5C91,235,90.5,235.5,90,236.1z"/>
		<path fill="#999895" d="M91.6,233c-5.4-6.7,2.8-15.2-3.1-21.8c-3.1-2.5-2.8-5.7-1.7-9c1-1.3,1.8-3.1,3.8-0.9
			c0.3,0.4,0.2-0.9,0.7-1.1c0.7-0.3,1.2-0.2,1.7,0.3l0,0c3.3,4.1,3.1,8.3,0.1,12.4c0,2,0,4.1,0,6.1c0.5,0.5,0.9,1.1,1.4,1.6
			c0,3.7,0,7.3,0,11C93.5,232.1,92.6,232.5,91.6,233z"/>
		<path fill="#C2C2BD" d="M73,225.2c7.4,0.5,11.9,5.3,15.7,11.1c-0.1,0.4-0.2,0.9-0.4,1.3c-2-0.5-3.9-1.1-5.8-1.6c-0.3,0-0.7,0-1,0
			c-0.7-0.1-1.3-0.3-1.9-0.6c-0.3-0.2-0.5-0.4-0.8-0.6c-1.7-1.6-3.5-3.1-5.1-5c-0.7-0.8-1.2-1.7-1.4-2.8
			C72.1,226.3,72.4,225.7,73,225.2z"/>
		<path fill="#8F8F88" d="M76,237.7c-1-1-2.1-2.1-3.1-3.1c2.6-2.7,5.2-1.5,7.8,0l0,0c0.5,0.5,0.9,1.2,1.6,1.5c0,0,0.1,0,0.1,0
			C80.3,236.6,78.2,237.1,76,237.7z"/>
		<path fill="#8F8F88" d="M72.9,239.2c1-0.5,2.1-1.1,3.1-1.6C75,238.2,74,238.7,72.9,239.2z"/>
		<path fill="#6C6C61" d="M146,265.5c-0.5-1.5-1-3.1-1.5-4.6c0.5,0,1,0,1.5,0c0.5,1,1,2,1.5,3c0,0,0,0.1,0,0.1
			C147,264.6,146.5,265.1,146,265.5z"/>
		<path fill="#767366" d="M146,265.5c0.5-0.5,1-1,1.5-1.5c0,0.5,0,0.9,0,1.4c0,0-0.8,0.1-0.8,0.1S146,265.5,146,265.5z"/>
		<path fill="#65665A" d="M63.6,242.3c-6.9,1.2-3,10.8-9.5,12.3c-0.9-1-1.6-2.1-1.8-3.4c-0.1-2.3-2.4-4-1.9-6.5
			c4.6-4.3,10.1-8,10.6-15.1c0.9-1.8,2.8-2.6,4-4.1c1,2.1,2.1,4.2,3.1,6.3C62.6,233.5,64.7,238.6,63.6,242.3z"/>
		<path fill="#94958F" d="M66.6,212.9c0,2,0.1,4.1,0.1,6.1c-1.5,1.5-2.9,3-4.4,4.6c-0.3-0.2-0.6-0.4-0.9-0.7
			c-0.3-0.7-0.4-1.4-0.4-2.1c-1.2-5.6-1.2-11.3-2.2-16.9c-0.2-1.1-0.1-2.2,0.2-3.3c0.5-1.1,1.2-1.9,2.4-2.2c1.2,0,2.2,0.4,3.2,1
			C70.5,203.1,68.6,208,66.6,212.9z"/>
		<path fill="#A2A39D" d="M80.7,234.5c-2.6,0-5.2,0-7.8,0c-4.8-3.5-3-9.3-4.7-13.9c-0.4-0.4-0.5-0.7-0.3-1.1
			c0.1-0.3,0.3-0.5,0.4-0.5c1.6,2.1,3.2,4.1,4.7,6.2c0,0.5,0,1,0,1.5c0.5,0.6,1,1.1,1.5,1.5C76.6,230.4,78.6,232.4,80.7,234.5z"/>
		<path fill="#44463C" d="M65,225.4c0.3,2.3,0.1,4.2-3.1,3.1c-0.3-0.1-0.7-0.2-1-0.3c-0.6-0.4-1-0.9-1.3-1.5c-0.2-0.7-0.1-1.4,0-2
			c0.6-0.9,1.2-1.6,2.4-1c0,0,0.2-0.1,0.2-0.1C63.2,224.1,64.1,224.8,65,225.4z"/>
		<path fill="#94958F" d="M68.2,219c0,0.5,0,1.1-0.1,1.6c-0.5-0.6-1-1.1-1.4-1.7C67.2,219,67.7,219,68.2,219z"/>
		<path fill="#D9AF74" d="M54.2,68.4c-2.7,1.6-4.9,1.4-6.2-1.8c0.2-4.1,3.2-5.2,6.4-6c1,0,1.9,0,2.9,0c5-2,7-6.6,9.4-10.9
			c0-0.3-0.1-0.6-0.1-0.9c0-0.6,0-1.3,0.2-1.9c0.7-1.5,1.4-2.9,3.2-3.2c0.9-1.5,1.9-3,2.8-4.5c0.2-0.3,0.4-0.6,0.6-0.8
			c0.7-0.2,1.3-0.2,2-0.1c2.1,1.2,4.7,1.5,5.8,4.1c0.2,1.5-0.5,2.7-1.4,3.9c-3.2,5.3-6.7,10.4-11.5,14.5
			C65.7,67.1,60.3,68.4,54.2,68.4z"/>
		<path fill="#AC7930" d="M70.1,43.7c-0.6,1.5-1.2,3-1.8,4.5c-0.5,0.5-1,1-1.5,1.5c0,0,0,0,0,0c-2.9-0.2-4.3-2-4.8-4.7
			c0.8-2.9,1.5-5.7,2.4-8.8C68.3,38,69.9,40.3,70.1,43.7z"/>
		<path fill="#655540" d="M65.2,30.8c2.6-3.9,5.4-6.1,9.3-1.3c-0.3,1.6-1.4,2.4-3,2.6c-0.7-0.1-1.3-0.4-1.9-0.9
			C68.2,31.1,66.7,30.9,65.2,30.8z"/>
		<path fill="#D3C2B3" d="M69.6,31.2c0.6,0,1.2,0,1.7,0c1.5,0.5,2.6,1.4,3,3.1c0.2,1.6-0.1,3-1.4,4c0,0.3-0.1,0.6-0.1,1
			C71.6,36.6,64.9,36.2,69.6,31.2z"/>
		<path fill="#CEC1C1" d="M99.4,29.7c0.4,0.2,0.8,0.2,1.2,0.2c0.7,0.2,1.4,0.4,2.1,0.7c3.1,2,7.4,2.3,9.2,6.3c0.3,3.7-2.4,4-4.9,4.2
			c-3.5,0.2-7,0.4-10.5-0.3c-3.4-3.7-5.2-9-10.4-11.1c-0.5-0.6-0.8-1.2-0.9-1.9C90.4,24.4,94.6,29.3,99.4,29.7z"/>
		<path fill="#CEC1C1" d="M72.9,34.2c-0.5-1-1-2-1.6-3c1-0.6,2.1-1.1,3.1-1.7c3.6-0.6,7.1-1.2,10.7-1.8c0,0,0.4,0.6,0.4,0.6
			C83,36.2,80.2,37.5,72.9,34.2z"/>
		<path fill="#BAB2A2" d="M110.2,35.8c-3.1-1.6-6.2-3.2-9.3-4.8c0.6-0.5,1.4-1,2.1-1.2c2.5-0.3,5-0.6,7.1,1.2
			c3.1,0.6,6.2,1.1,9.2,1.7c0,1,0,2,0.1,3c-0.5,0.5-1,1-1.3,1.7l-0.2-0.1C114.9,39,112.8,36,110.2,35.8z"/>
		<path fill="#615242" d="M110.2,31c-2.6-0.1-5.1-0.1-7.7-0.2c-1-0.9-0.9-1.9,0-2.8C105.2,28.7,109.1,26.1,110.2,31z"/>
		<path fill="#6D6553" d="M102.5,28c0,0.9,0,1.9,0,2.8c-0.5,0.1-1,0.1-1.6,0.2c-0.1-0.4-0.2-0.8-0.3-1.2
			C101.2,29.2,101.8,28.6,102.5,28z"/>
		<path fill="#D5B297" d="M148.9,60.7c-4.1-0.1-8.2-0.1-12.3-0.2c-1-0.3-2-0.7-2.6-1.7c-2-3.8,1.4-6.8,1.6-10.2
			c0.2-3.2,1.6-6.6-0.4-9.7c0-2.6,0-5.2,0-7.7c3.1-4.7,6.2-9.3,9.3-14c0,3.1,0,6.2,0,9.2c-6.7,5.9-1.4,13.6-3.1,20.3
			c3,3.5,4.5,8.1,8.4,10.8c0.4,1.2,0.2,2.2-0.6,3.1L148.9,60.7z"/>
		<path fill="#D3C2B3" d="M110.2,35.8c3.1-2.4,5.3,0,7.7,1.5c0.1,0.5,0.1,1,0.2,1.6c-2.1,8.4-9.1,4.3-14.1,5.4c-3.3,0-6.5,0-9.8,0
			c-4.6-0.6-9.5,1.5-13.6-2.1c-2.1-1.1-4.1-2.2-6.2-3.3c6.7-4.6,13.4-2.5,20.2,0C99.7,37.1,106.1,42.4,110.2,35.8z"/>
		<path fill="#D1A871" d="M103.8,42.2c4.8-0.9,10.4,1.4,14.3-3.3c1.5,1,3,1.9,4.5,2.9c1.2,0.4,2,1.2,2.2,2.5c-0.1,0.8-0.5,1.5-1.1,2
			c-2.5,1.6-5.2,2.1-8.1,1.8c-4-1-8-0.8-12-0.3c-7.1-0.2-14.1-1.6-21.3-0.6c-1.3-0.3-2.4-0.9-3.2-2.1c0.5-1,1-1.9,1.5-2.9
			c4.7,0,9.5,0.1,14.2,0.1C97.8,42.9,100.9,43.1,103.8,42.2z"/>
		<path fill="#B47023" d="M124.1,43.6c-0.5-0.6-1-1.2-1.5-1.8c-0.2-4.6,0.8-8.3,6.1-9c1.5,3,2.5,6.2,1.6,9.6
			C129.2,46.7,127,47.2,124.1,43.6z"/>
		<path fill="#C48C4C" d="M124.1,43.6c9.9-0.1,3-7.3,4.6-10.9c0.5-1.1,1.1-2.1,1.6-3.2c0.5,5.2,1,10.3,1.5,15.5
			c0.1,3.2-1.6,4.5-4.6,4.4c-2.2-0.7-3.8-1.7-3.2-4.4C124.1,44.6,124.1,44.1,124.1,43.6z"/>
		<path fill="#BB9767" d="M131.9,26.4c-0.5,1-1,2.1-1.5,3.1C130.9,28.5,131.4,27.4,131.9,26.4z"/>
		<path fill="#D1A871" d="M118.2,37.4c0.4-0.6,0.9-1.1,1.3-1.7C119.1,36.3,118.6,36.8,118.2,37.4z"/>
		<path fill="#D3A988" d="M127.4,48.4c1.5-1.1,3-2.2,4.5-3.4c1.1-2.1,2.2-4.1,3.2-6.2c8.1,6.7,0.5,13.4,0,20.1
			C128.6,58.3,126,54.8,127.4,48.4z"/>
		<path fill="#9F9888" d="M18.6,105.6c0.5,0,1,0,1.5,0.1c1.6-0.2,2.9,0.4,4,1.9c0-3.5-0.7-7,2.3-9.6c0.4-0.1,0.8-0.2,1.2-0.3
			c1.2,0.6,1.8,1.5,2.2,2.7c0.3,1.5,0.7,3,0.7,4.6c-0.2,10.5,7.9,17.2,11.7,25.8c1,1.3,1.3,2.7,1.3,4.2c-0.1,0.8-0.2,1.5-0.5,2.2
			c-0.7,1.4-1.5,2.6-3.1,3c-3-0.1-4-4-7.2-3.6c-0.7-0.1-1.3-0.4-1.9-0.7c-1.6-0.8-1.9-2.7-3-4l0,0c-4.7-5.6-4.4-14.1-10.8-18.7
			C17.5,110.8,18.1,108.2,18.6,105.6z"/>
		<path fill="#E7CABB" d="M54.4,60.6c-2.1,2-4.3,4-6.4,6c-11.8,0.9-1.4-9.5-6.2-12.2c1.7-0.4,2.8-1.1,1.5-3.1
			c-1.9-3-3.1-6.6,0.5-8.7c3.6-2.1,5.1,2.1,7.3,4c0,0,0,0.1,0,0.1c2.4,3.2,2,7.2,3.1,10.8C54.3,58.5,54.4,59.6,54.4,60.6z"/>
		<path fill="#D4BA9F" d="M54.3,57.5c-1-3.6-2.1-7.2-3.1-10.8C55.8,49.2,55.7,53.2,54.3,57.5z"/>
		<path fill="#A17A51" d="M46.5,71.5c2.6-0.6,5.8,2.2,7.8-1.5c3.1-2.3,4.8,0.1,6.7,2c0.2,4.1,1.6,8.1,2.4,12.1
			c-0.2,0.7-0.5,1.4-1,1.9c-1.5,1.2-3.3,1.4-5.1,1.4c-3.1-0.6-5.9-0.2-8.2,2.2c-2,1.2-3.7,2.8-5.8,3.9c-2.8,1.5-6,0.5-5.9-2.4
			c0.2-5.2-4.3-5.5-6.6-7.9c1.4-6.6,7.4-3.7,11.1-5.4c1.7-1.3,4.6,0.4,5.6-2.3C47,74.2,45.6,73.1,46.5,71.5z"/>
		<path fill="#C69756" d="M60.4,73.1c-2.1-1-4.1-2.1-6.2-3.1c0-0.5,0-1.1-0.1-1.6c2.3-5.6,11.9-1.5,12.5-9.4
			c2.8,0.9,5.5-5.8,8.4-0.1c-0.5,3.3-3.2,5-5.3,7.1c-1.2,1-2.7,1.6-3.8,2.7c-0.4,0.5-0.8,0.9-1.2,1.3c-0.4,0.5-0.8,0.9-1.2,1.4
			C62.7,72.3,61.8,73.1,60.4,73.1z"/>
		<path fill="#81684A" d="M46.5,71.5c1.1,0.9,2.1,1.9,3.2,2.8c-0.8,3.4-3.8,2.5-6.1,3c-0.7,0-1.4-0.1-2.1-0.4
			c-1.9-1.4-4.4-1.7-6.1-3.6c-0.2-0.7-0.2-1.3,0.3-1.9c2.4,0,4.5-0.6,4.9-3.5C42.6,69.2,44.5,70.4,46.5,71.5z"/>
		<path fill="#4F4130" d="M35.7,71.5c0,0.5,0,1,0.1,1.5c0.3,0.3,0.5,0.7,0.4,1.1c0,0.4-0.1,0.6-0.2,0.6c-0.6,0.7-1.4,1-2.2,1.2
			c-0.6,0.2-0.6,0.5-0.5,1.2c0.2,1-1,0.8,0.1,0.8c-1.3,2.7-2.6,5.5-5.5,1.3c-2.1-3-4.2-6.1-6.3-9.1C26.5,70.2,31.6,66.1,35.7,71.5z"
			/>
		<path fill="#E0C5BA" d="M148.9,57.5c-8.5,0.5-7.5-5.5-7.6-10.9c5.9,0.7,2.6-9.5,9.3-7.8c0,5.7,0,11.4,0,17.1
			C151.1,57.6,150.4,57.9,148.9,57.5z"/>
		<path fill="#FAD4AD" d="M148.9,57.5c0.6-0.5,1.1-1.1,1.7-1.6c2.2,2.4,1.8,4-1.5,4.6C149,59.5,149,58.5,148.9,57.5z"/>
		<path fill="#655A49" d="M26.4,98c0,5.7,0,11.5,0,17.5c-6.2-1.1-1.5-8.4-6.3-9.9c2.6-3.3,0.1-9.1,5.4-11.1
			C25.8,95.7,26.1,96.8,26.4,98z"/>
		<path fill="#C4B4AC" d="M28,101c-0.1-1.1-0.2-2.2-0.3-3.3c0.5-3.1,1-6.2,1.6-9.3c0.4-0.7,0.9-1.3,1.6-1.8c4.3-1.7,6.5,0,6.3,4.4
			c-0.1,2.8,1.1,5.5,0.6,8.3C35.1,103.6,31.8,104,28,101z"/>
		<path fill="#716053" d="M28,79c3.4,1.9,4.2-0.2,4.5-2.9c-0.3-0.4-0.4-0.7-0.2-1c0.2-0.3,0.3-0.4,0.5-0.4c0.9-0.1,1.8-0.2,2.7-0.3
			c2.2,0.2,4.6-0.2,6.3,1.6c0.5,0,1,0,1.6,0c1,1,0.5,2.1,0.1,3.1c-3.5,3.4-9.7-0.8-12.5,4.5c0,0-0.1,0.7-0.1,0.7
			c-0.2,0.4-0.5,0.8-0.8,1.1c-0.3,0.4-0.7,0.7-1,0.9c-0.4,0.3-0.8,0.4-1.3,0.4C21.4,84.1,29.9,81.7,28,79z"/>
		<path fill="#6A6147" d="M17,82.3c0.5-1.8,1-3.6,4.8-1.6C19.6,81.5,18.3,81.9,17,82.3C17,82.3,17,82.3,17,82.3z"/>
		<path fill="#A17A51" d="M27.8,86.9c0.1-0.4,0.1-0.9,0.2-1.3c0.3-0.3,0.6-0.5,0.9-0.8c0.4,0.2,0.7,0.3,1.1,0.5
			c0.9,0.9,1.5,1.9,0.9,3.2c-0.6,0-1.1-0.1-1.7-0.1C28.7,87.9,28.2,87.4,27.8,86.9z"/>
		<path fill="#C08D44" d="M153.4,63.6c0.1,0.5,0.1,0.9,0,1.4c-0.4,0.2-0.8,0.4-1.1,0.5c-0.6,0.5-1.2,1-1.8,1.4
			c-0.9,1.3-0.6,3.6-2.9,3.9c-3.7-0.5-5.9,0.7-5.7,4.8c-0.7,3-1.1,6.2-3.5,8.5c-3.2,0.5-5.6-1.1-8.1-2.8c-3.5-3.4-7-6.9-1.5-11.5
			C137,67.8,145.2,65.7,153.4,63.6z"/>
		<path fill="#68513F" d="M159.9,79.2c0.1,0.5,0.2,0.9,0.1,1.4c-2.9,1.2-5.7,2.5-4.9,6.5c-2.2,1.8-4.2,0.7-6.3-0.3
			c-0.6-0.4-1.2-0.9-1.7-1.5c-0.2-0.3-0.4-0.6-0.6-1c-0.3-0.7-0.5-1.4-0.5-2.2c0.1-1.2,0.6-2.2,1.5-2.9
			C151.6,79.2,155.7,79.2,159.9,79.2z"/>
		<path fill="#A37539" d="M141.1,76c-2.2-6.6-0.6-9.2,6.5-6.2c0.9,1,0.9,2.1,0,3.1c-1.5,1.1-3,2.2-4.6,3.3c0,0-0.6,0.4-0.6,0.4
			c0,0-0.7-0.1-0.7-0.1S141.1,76,141.1,76z"/>
		<path fill="#7D745A" d="M166.1,77.7c-3.8-0.4-4.7-3-4.6-6.3C169.8,68.6,162.4,77.2,166.1,77.7z"/>
		<path fill="#997D5D" d="M147.5,72.9c0-1,0-2.1,0-3.1c1-1,2-1.9,2.9-2.9c0,2.6,0.1,5.3,0.1,7.9C149.5,74.2,148.5,73.6,147.5,72.9z"
			/>
		<path fill="#462C17" d="M147.5,79.2c0,1,0,2,0,2.9c-0.5,0.6-1.1,0.9-1.9,0.9c-1.2-0.2-2.1-0.8-2.9-1.7c-1.2-1.8-1.3-3.5,0.4-5.1
			c0,0,0,0,0,0C144.4,77.2,146,78.2,147.5,79.2z"/>
		<path fill="#B3A093" d="M139.8,100.8c-0.6-1-1.1-2-1.7-2.9c-3.6-4.9-0.4-8.2,2.6-11.5c8.3-2.9,13.4,3.6,19.7,6.5
			c0.3,0,0.6,0.2,0.9,0.4c0.5,0.3,0.7,0.6,0.5,1c-0.1,0.3-0.3,0.5-0.5,0.5c-5.1,5.3-9.3-0.9-14-1.3
			C141.1,93.1,138.8,94.7,139.8,100.8z"/>
		<path fill="#9C8779" d="M160.5,92.9c-6.4-2-12.8-3.9-19.1-5.9c-0.3-0.3-0.6-0.5-0.8-0.8c-0.7-1.6-0.6-3,0.6-4.3
			c2.4-0.5,4.4,0.7,6.4,1.9l0.1,0.4c0.5,0.2,0.9,0.6,1.2,1c2.1,0.6,4.2,1.2,6.3,1.8c0,0,0,0,0,0c0.6,0.4,1.2,0.8,1.7,1.4
			C158,90,159.2,91.5,160.5,92.9z"/>
		<path fill="#68513F" d="M156.8,88.5c-0.6-0.5-1.1-0.9-1.7-1.4C155.7,87.6,156.2,88,156.8,88.5z"/>
		<path fill="#6C5C4D" d="M161.4,94.8c0-0.5-0.1-1-0.1-1.5c0.5,0.5,1,1.1,1.6,1.6c0,0-0.8,0-0.8,0L161.4,94.8z"/>
		<path fill="#68513F" d="M160,80.7c0.5,0.4,1.1,0.9,1.6,1.3C161.1,81.6,160.6,81.1,160,80.7z"/>
		<path fill="#BB894F" d="M128.8,69.9c-2.3,4.6,0.4,7.6,3.1,10.8c-0.1,0.3-0.2,0.6-0.3,1c-2.7,2.9-4.5,7-9.1,7.6
			c-2.2-0.8-4.6-1.1-6.9-1.4c-2.5-1.2-4.3-3.5-6.9-4.6c-0.5-0.6-0.8-1.2-0.9-2c0-1.6,0.7-2.9,1.6-4.1c1-1.1,2.3-1.9,3.7-2.4
			c0.7-0.2,1.4-0.3,2.1-0.3c5.6,1.4,7.3-1.1,6.1-6.4c0-1.1,0.4-2.1,1.2-2.9c3.3-1.4,4.8,0.9,6.3,3.1
			C128.8,68.9,128.8,69.4,128.8,69.9z"/>
		<path fill="#E1B979" d="M127.4,48.4c2.6,3.5,5.2,7.1,7.7,10.6c0.5,0.5,1,1,1.5,1.5c-2.5,3.6-5.1,3.6-7.8,0.1
			c-0.4-0.1-0.7-0.2-1.1-0.3c-3.2-2.4-5.4-5.8-9.4-7.2c-2.8-1-4.5-3.4-1.9-6.5c2.6-0.5,5.1-1,7.7-1.5
			C125.2,46.2,126.3,47.3,127.4,48.4z"/>
		<path fill="#CF9F57" d="M128.8,68.3c-2.1-1-4.3-1.9-6.4-2.9c-0.4,0-0.8-0.1-1.1-0.1c-3.6-0.8-6.7-2.6-9.7-4.7
			c-1.6-1.1-2.6-2.6-0.9-4.5c8.5-3.7,11.9-2.8,18.1,4.3c0,0,0,0,0,0C128.8,63.2,128.8,65.8,128.8,68.3z"/>
		<path fill="#D1C6C4" d="M165.2,103.4c-4,5.5,3.9,14.5-5.2,17.4c-3.9,1.3-5.2-3-4.9-6C155.6,108.9,159.5,105.4,165.2,103.4z"/>
		<path fill="#A9A9A5" d="M119.5,219c-0.5-0.5-1-1.1-1.4-1.6C118.5,218,119,218.5,119.5,219z"/>
		<path fill="#B99255" d="M136.6,97.8c0,5.7,0,11.4,0,17.1c-0.7,1-1.5,1.9-2.3,3c-0.7-2.3-1.5-4.5-2.8-8.7
			c-2.5,4.5-4.1,7.4-5.7,10.3c0,0.3,0.1,0.7,0.2,1c0.1,2.6-1.2,4.8-1.7,7.2c-1.9,4-2.1,8.5-4.4,12.3c-2.6,2.9-5.3,3.1-8.1,0.4
			c-1.7-2.1-0.4-4.5-0.8-6.8c0-4.2-2.9-7.4-3.6-11.4c0-1.6,0.6-2.9,1.9-3.9c10.1-1.1,8.1-10.2,10.6-16.3c0.5-1,1.3-1.8,2.3-2.2
			c3.2-0.1,6.1-0.3,8.8-2.9C133.4,94.8,133.8,95.2,136.6,97.8z"/>
		<path fill="#9B6C2B" d="M119.3,139.9c0.6-4.8-0.7-10,3.4-14c1.9-1.6,1.8-4.3,3-6.3c0,0,0,0,0,0c1.8-0.4,3.6-0.8,5.3-1.2
			c-0.3,2.2-0.1,4.7-1.2,6.4c-3.4,5.2-6.1,10.2-2.7,16.5c-2.5,5.9-5.2-6.8-7.7,0.1c-0.5-0.3-0.6-0.6-0.5-1
			C119.1,140,119.2,139.9,119.3,139.9z"/>
		<path fill="#624526" d="M136.7,118.1c6.1,0.5,4.9,3.9,3.1,7.6c-1.1-1.5-2.2-3-3.3-4.5C136.6,120.1,136.6,119.1,136.7,118.1z"/>
		<path fill="#2A1D0E" d="M135,126.9c2.3,2,2.4,4,0,5.9C135,130.9,135,128.9,135,126.9z"/>
		<path fill="#A0A29D" d="M91.6,192.6c0,1-0.1,2.1-0.1,3.1c-2.2,0.8-3.1-0.9-4.1-2.3c-1-1.5-0.7-3.7-2.6-4.7c-0.9-0.3-1.7-0.6-2.5-1
			c-0.6-0.2-1.1-0.5-1.7-0.8c-0.3-0.1-0.5-0.3-0.8-0.5c-0.8-0.5-1.7-0.9-2.5-1.4c-0.9-0.5-1.6-1.2-2.1-2.1c-0.4-0.9-0.6-1.9-0.8-3
			c-5.2-6.6-9.3-13.9-14.4-20.5c0.2-1.2,0.2-2.5-0.3-3.7c-0.1-1.1,0.3-2,1.2-2.7c6.1-0.7,9,4.2,13.7,8.4c-1.2-3.1-1.2-5.3,0.9-6.8
			c7-1.3,11.4,5.7,18,5.8c1,0.5,1.8,1.2,2.4,2.2c3.4,5.9-1.1,9.3-4.3,13.1c-0.1,0.7-0.2,1.4-0.4,2c-1.7,3.1,1.5,5.9,0.6,8.9
			c0,0.3,0,0.7,0,1C91.6,189.5,91.6,191.1,91.6,192.6z"/>
		<path fill="#A0A29D" d="M101.1,166.3c0,0.4-0.1,0.8-0.1,1.3c-2.6,6.3-5.2,12.6-7.9,18.9c-0.3-0.3-0.6-0.5-0.9-0.8
			c-1.8-8.3,2.2-14.4,7.7-19.8C100.4,166,100.8,166.2,101.1,166.3z"/>
		<path fill="#A0A29D" d="M93.2,186.5c-0.5,0.5-1,1-1.5,1.5c0,0-0.1-0.2-0.1-0.2c-0.5-1.5,0.2-1.8,1.5-1.5L93.2,186.5z"/>
		<path fill="#B28F57" d="M119.3,139.9c0.1,0.5,0.1,1,0.2,1.5c-0.6,3.1-1.2,6.1-1.7,9.2c-0.8,0.1-1.6,0.1-2.4,0.2
			c-4.4,1.1-8.8,2-12.3,5.2c-3.3,3-7.3,3.4-11.5,3.2c-3.6-0.3-7-1-9.5-3.9c-0.4-1.5,0.3-2.2,2-2.5c-3.4-1.7-7.2-2.5-8.9-6.2
			c-1.9-5.6,4.6-7.3,5.4-11.7c1.9-2.3,5-2,7.3-3.6c1.8-0.2,2.5-1.9,3.9-2.8c4.1,0.9,3,4.1,3,6.8c0.1,7,1.3,7.8,8.3,5.1
			c2.8-1.2,5.6-2.6,8.7-0.7C114.3,139.8,116.8,139.8,119.3,139.9z"/>
		<path fill="#AB9677" d="M91.5,156.9c9.2,2.6,14.6-9.3,23.9-6.1c-3.7,5.4-13.7,3.5-14.6,12.3c-0.3,0.3-0.5,0.6-0.8,0.9
			c-2.1,1.1-3.8,0.6-5.4-1c-0.5-0.5-1-1-1.5-1.5c0,0,0.1-0.7,0.1-0.7c-0.5-0.3-0.9-0.6-1.2-0.9C91.2,158.9,90.6,158,91.5,156.9z"/>
		<path fill="#A4A5A0" d="M103.8,162.8c-0.9,1.2-1.8,2.3-2.7,3.5c0,0-0.4-0.2-0.4-0.2c-0.8-1.1-0.7-2.1,0.2-3.1c0,0-0.1,0.1-0.1,0.1
			C101.8,163,102.8,162.9,103.8,162.8z"/>
		<path fill="#A4A5A0" d="M105.5,161.6c-0.6,0.5-1.2,0.9-1.8,1.4C104.4,162.5,105,162,105.5,161.6z"/>
		<path fill="#B6B7B3" d="M110.1,188c1.1,8.8,2.2,17.5,3.2,26.3c1.7,4.5-1.8,5-4.6,6c-2.7,0.3-5.9,0-5.9-3.2c0-8.6-2.7-17-1.5-25.6
			c0.1-0.8,0.7-1.3,1.2-1.9C105.1,189.1,107.6,188.5,110.1,188z"/>
		<path fill="#A4A5A0" d="M102.6,189.6c0.6,8.5,1.4,17.1,1.7,25.6c0.1,3.4,1.9,3.7,4.4,3.7c0.6-0.5,1.2-0.5,1.8,0
			c0.3,0.7,0.3,1.3,0,2c-0.6,0.3-1.2,0.7-1.7,1.1c-1,0-2,0-3,0.1c-2.3,1.6-3.6,0.3-4.7-1.6c0-0.5,0-1,0-1.6c0.7-0.7,0.7-1.5,0.7-2.4
			c0-0.9-0.1-1.7-0.7-2.4c-1.1-7.2-2.1-14.5-3.2-21.7C99.4,191.6,101,190.6,102.6,189.6z"/>
		<path fill="#A4A5A0" d="M97.8,192.6c-1,0-2,0-3,0C95.7,192.6,96.7,192.6,97.8,192.6z"/>
		<path fill="#C29C61" d="M136.6,97.8c-5.6-3.2-7.3,10.9-14,3.2c-0.7-0.8-1.2-2.1-0.5-2.7c5.5-4.6,6.2-11.8,9.8-17.4
			c0,0,0-0.2,0-0.2c2.1,1,4.1,2.1,6.2,3.1c1.5,0.6,1.9,2.1,3,3.1c0,0,0.2,0.2,0.2,0.2c-1.1,3.6-2.1,7.2-3.2,10.8
			C137.6,97.9,137.1,97.8,136.6,97.8z"/>
		<path fill="#A9A9A5" d="M110.2,220.6c-0.5-0.5-1.1-1.1-1.6-1.6c1.6-1.6,3.2-3.1,4.7-4.7c1.1,2,2.1,4.1,3.2,6.1
			c-0.3,0.3-0.5,0.6-0.8,0.9C113.7,222.4,111.9,222.1,110.2,220.6z"/>
		<path fill="#A9A9A5" d="M116.5,220.5c0.5,0.5,1,1.1,1.5,1.6c-0.3,0.1-0.7,0.2-1,0.3c-0.6-0.4-0.9-1-0.6-1.8L116.5,220.5z"/>
		<path fill="#A9A9A5" d="M119.5,223.7c-0.5,0-1-0.1-1.5-0.1c-0.3-0.3-0.5-0.6-0.4-0.9c0.1-0.3,0.2-0.5,0.3-0.5c0,0,0.2-0.1,0.2-0.1
			C118.5,222.6,119,223.2,119.5,223.7z"/>
		<path fill="#A9A9A5" d="M120.9,225.3c-0.5-0.5-0.9-1.1-1.4-1.6C119.9,224.3,120.4,224.8,120.9,225.3z"/>
		<path fill="#BDBDBB" d="M27.9,245.5c-5.2-2.6-10.3-5.2-15.5-7.8c-0.5-0.6-1-1.1-1.3-1.8c-4-9.1-1.7-12.4,8.2-12
			c5.2,0,8.8,3.7,13.2,5.6c1.4,1.8,0.9,4.5,2.9,5.9c0.6,0.3,1.1,0.6,1.6,0.9c1.1,0.8,2.4,1,3.6,1.6c2.3,1.1,4.6,2.2,5.4,4.9
			c0.2,1.1,0,2.2-0.7,3.1c-8.2,2.6-9.8,1.9-16.7-6.7C30.2,241.7,29.9,243.8,27.9,245.5z"/>
		<path fill="#AEAFAB" d="M20.1,225.2c-2.6,0.3-5.2,0.7-8.9,1.2c0.3,3.5,0.7,7.3,1.1,11.2c-2.1-1.6-4.1-3.1-6.2-4.7
			c1-4.6,5.8-8.9,1.4-14c-0.5-0.4-0.8-0.9-1-1.6c-0.1-0.6,0-1.3,0.1-1.9c0.3-0.9,0.7-1.8,1.2-2.7c0.7-1.1,1.5-2.2,2.7-3
			c1.2-0.8,2.5-1.1,3.9-0.5c1.9,1.2,3.1,2.8,3.3,5.1c-0.8,3.7,3.5,6.1,2.5,9.8C20.2,224.5,20.2,224.9,20.1,225.2z"/>
		<path fill="#AEAEAB" d="M27.9,245.5c4.5-6.1-5.6-7.1-3.9-13.2c6.3,5.8,10.8,14.5,20.9,13.1c2.2,4,1.8,6.9-3.4,7.8
			c-2.8-0.2-5.3-1.2-7.4-3.1C32,248.5,29.9,247,27.9,245.5z"/>
		<path fill="#908A87" d="M34.1,250c2.6,0.5,5.2,1.1,7.8,1.6c2.1,1.6,3.7,0.2,5.2-1c2.3-1.8,4.6-3,7.2-0.5c-0.1,1.5-0.1,3-0.2,4.5
			c-3,0.5-5.9,1.1-8.9,1.6c-1.2-0.5-2.5-0.9-3.7-1.4c-2.5,1.3-4.1-0.3-5.8-1.6C35.2,252.2,34.6,251.1,34.1,250z"/>
		<path fill="#B9B1AB" d="M35.7,253.2c1.9,0.5,3.9,1.1,5.8,1.6c-1.9,0.4-3.8,0.8-5.7,1.1C35.8,255.1,35.7,254.2,35.7,253.2z"/>
		<path fill="#B0B1AD" d="M26.3,251.6c0.5,0.5,1.1,0.9,1.6,1.4C27.4,252.5,26.9,252.1,26.3,251.6z"/>
		<path fill="#9D9E9B" d="M99.2,215.9c0,2.5,0,5,0,7.6c-0.8,0.1-1.5,0.2-2.3,0.3c-0.2-3.6-0.5-7.3-0.7-10.9c-1.4-3.4-3.7-7,1.6-9.3
			c0,2.6,0,5.1,0.1,7.7C99.1,212.5,98,214.5,99.2,215.9z"/>
		<path fill="#A4A5A0" d="M97.8,203.5c-0.5,3.1-1,6.2-1.6,9.3c-1,0-2,0-3.1,0c0-4.1,0-8.3-0.1-12.4
			C95.3,200.5,97.5,200.5,97.8,203.5z"/>
		<path fill="#8E8F8B" d="M88.5,192.6c1,1,2,2.1,3,3.1c0.1,0.5,0.1,1,0.2,1.5c0.7,1,0.8,2.1,0,3.1c0,2,0,4,0,7.7
			c-1.5-3.6-2.4-5.6-3.2-7.6c-0.3-0.3-0.6-0.6-1-0.8C86.1,197,86.1,194.6,88.5,192.6z"/>
		<path fill="#C7C7C2" d="M117.9,222.2c0,0.5,0.1,1,0.1,1.5c-3.1,2.2-5.4,0-7.8-1.6c-0.4-0.4-0.5-0.7-0.4-1c0.2-0.3,0.3-0.5,0.5-0.5
			c0,0,0,0,0,0c2.1,0,4.1,0,6.2,0C116.9,221.1,117.4,221.7,117.9,222.2z"/>
		<path fill="#A9A9A5" d="M101,220.6c1.6,0.5,3.1,1.1,4.7,1.6c-1.1,0.7-2.2,1.5-3.4,2.2C101.8,223.1,101.4,221.8,101,220.6z"/>
		<path fill="#A4A5A0" d="M99.2,215.9c-0.5-1.6-0.9-3.1-1.4-4.7C98.3,212.7,98.7,214.3,99.2,215.9z"/>
		<path fill="#A9A9A5" d="M113.3,226.7c-1,0-2.1,0-3.1,0C111.2,226.7,112.3,226.7,113.3,226.7z"/>
		<polygon fill="#A4A5A0" points="97.3,197.4 96.7,197.4 97,196.8 		"/>
		<path fill="#A4A5A0" d="M91.6,200.3c0-1,0-2.1,0-3.1c0.5,1.1,0.9,2.1,1.4,3.2C92.6,200.4,92.1,200.3,91.6,200.3z"/>
		<path fill="#8B8985" d="M98.4,229c-0.1-0.4-0.2-0.7-0.3-0.9c0.2-0.1,0.4-0.1,0.6-0.2C98.7,228.2,98.6,228.5,98.4,229z"/>
		<path fill="#B6B7B3" d="M100.9,214.3c0.5,1,1,2.1,1.5,3.1c-0.5,0.6-1,0.6-1.5,0C100.9,216.4,100.9,215.3,100.9,214.3z"/>
		<path fill="#A9A9A5" d="M100.9,217.5c0.5,0,1,0,1.5,0c-0.5,0.5-1,1.1-1.5,1.6C100.9,218.5,100.9,218,100.9,217.5z"/>
		<path fill="#A4A5A0" d="M94.6,220.6c-0.5-0.5-0.9-1.1-1.4-1.6C93.6,219.5,94.1,220,94.6,220.6z"/>
		<path fill="#A9A9A5" d="M110.2,220.6c0,0.5-0.1,1-0.1,1.5c-0.5,0-1,0-1.5,0C109.2,221.6,109.7,221.1,110.2,220.6z"/>
		<path fill="#A9A9A5" d="M114.9,228.3c-0.5-0.5-1-1-1.5-1.6C113.8,227.3,114.4,227.8,114.9,228.3z"/>
		<path fill="#B4B4B3" d="M66.6,212.9c-3.5-3.6,3.1-9.6-3-12.5c-0.4-0.3-0.6-0.7-0.6-1.2c0-0.5,0.1-0.7,0.2-0.7
			c3.1-2.8,6.4-1.3,9.9-0.9c3.3,0.3,7.3,3.4,10-1.4c0.3-0.7,0.9-1.1,1.5-1.3c4.2-0.2,2.1,3.9,3.7,5.5c0,0,0.1,0,0.1,0
			c0,3.6,0,7.2,0,10.8c-0.1,0.6-0.1,1.2-0.2,1.8c-4,2.1-4.5-3.5-7.3-3.3c2.6,0.9,4.1,4.2,7.3,4.6c0,1.1,0,2.3,0,3.4
			c-5.4,3.6-9.4-0.2-13.8-2.5c-2.4-1.3-4-5.1-7.7-2.5L66.6,212.9z"/>
		<path fill="#CCCCCB" d="M66.9,212.6c-0.3-5.5,2.2-3.7,4.9-2c5.1,3.2,9.9,7.3,16.6,7C78.8,226.5,74.1,214.2,66.9,212.6z"/>
		<path fill="#C7C7C8" d="M88.3,214.2c-5.8-0.7-10.5-3.4-15.2-8.3c7.6-1,10.6,4.7,15.2,7C88.4,213.4,88.4,213.8,88.3,214.2z"/>
		<path fill="#A2A39D" d="M82.3,236c-0.5-0.5-1.1-1-1.6-1.5C81.2,235,81.8,235.5,82.3,236z"/>
		<path fill="#B2B2AF" d="M74.5,228.3c-0.5-0.5-1-1-1.5-1.5C73.5,227.2,74,227.8,74.5,228.3z"/>
		<path fill="#85867E" d="M45,242.3c-2-1.1-4.1-2.2-6.1-3.3c-0.9-0.8-2.3-0.4-3-1.5l0.1,0c-0.2-3.7,2.7-3,4.8-3.3
			c0.8,0.1,1.5,0.3,2.2,0.5c3.2,1.9,6.7,2,10.3,2.2c1.8-3.4,4.4-6,6.8-8.9c0.7-0.3,1.4-0.2,1.9,0.4c0,0,0,0,0,0
			c2.9,9.9-4.3,13.2-10.9,17C46.9,248.4,46.2,244.8,45,242.3z"/>
		<path fill="#96958C" d="M45,242.3c2,1.1,4,2.1,6,3.2c0.5,2,5.8,0.5,3.3,4.6c-4.3-0.7-7.7,6.2-12.5,1.5c1-2.1,2-4.2,3-6.3
			C44.9,244.3,44.9,243.3,45,242.3z"/>
		<path fill="#A9A9A3" d="M60.5,203.4c1.6,6.1,3.5,12.2,1.6,18.6c-4.2,1.2-5-2.3-6.5-4.7c-1.4-5.1-5.5-7.8-9.3-10.8
			c-4.4-3.5-5.7-8.7-7.6-13.7c-1-1.9-3.1-2.7-4.4-4.2c-0.6-0.9-1-2.4-0.2-2.7c5.6-2,3.7-7.3,5-11.1c1.3-1.9,3-2.1,4.9-1
			c1.9,1.4,2.9,3.5,4,5.5c0.7,1.4,1,2.8,0.8,4.4C47.5,191.2,52.3,199.3,60.5,203.4z"/>
		<path fill="#C4C5BF" d="M60.5,203.4c-0.3,1.2-0.7,2.4-1,3.5c-6.7-3-9.5-9.2-12.8-15c-1.7-3.1-3.9-6.5,1.4-8.6
			c8.3,2.7,10.1,10,12.2,17.2C60.3,201.5,60.4,202.5,60.5,203.4z"/>
		<path fill="#A2A39E" d="M60.2,200.6c-4.1-5.7-8.1-11.5-12.2-17.2c-0.5-1.1-1-2.1-1.5-3.2c0.3-4.3,0.7-8.5,5.9-9.8
			c2.1,1.3,1.8,3.3,2.1,5.4c0.8,6.7,4.5,11.7,9.6,15.9c0.6,0.9,0.8,1.9,0.7,3c-0.2,1.5-1.1,2.4-2.1,3.4c-0.2,0.2-0.5,0.5-0.7,0.7
			C61.4,199.4,60.8,200,60.2,200.6z"/>
		<path fill="#5F605B" d="M57.2,216.1c1.7,2,3.3,4,5,5.9c0,0.5,0,1,0,1.5c-0.7,0.7-1.3,1.3-2,2c-3.4,0.6-5.2-2.4-7.9-3.6
			c-0.9-0.7-1.6-1.6-2.1-2.7c-0.3-0.7-0.4-1.5-0.4-2.3c0.1-0.8,0.3-1.5,0.7-2.2C53.3,212,55.3,213.8,57.2,216.1z"/>
		<path fill="#A2A39E" d="M63.7,198.8c0,0.5,0,1.1,0,1.6c-0.5-0.5-1.1-1-1.6-1.5c0,0,0.1-0.2,0.1-0.2
			C62.7,198.3,63.2,198.4,63.7,198.8z"/>
		<path fill="#A0A09C" d="M52.9,220.1c2.4,1.8,4.8,3.7,7.2,5.5c0.1,0.4,0.2,0.8,0.4,1.2c0.5,0.4,0.6,0.8,0.4,1.1
			c-0.2,0.4-0.3,0.5-0.5,0.5c-2.6,11.1-8.5,14.3-18.5,7.6c-0.7-2.6-4.8-3.3-3.9-6.8c3.8-5.1,8.8,1.1,13-1.6
			C53.3,225.7,50.3,222.1,52.9,220.1z"/>
		<path fill="#65665A" d="M60.4,228.4c0-0.6,0.1-1.1,0.1-1.7c0.5,0.6,1,1.1,1.4,1.7c0,0-0.8,0-0.8,0S60.4,228.4,60.4,228.4z"/>
		<path fill="#E1D4D9" d="M94.7,38.8c-6.7,0-13.5,0-20.2,0c-0.5-0.2-1-0.4-1.5-0.6c0-1.4,0-2.7,0-4.1c5.8,1.4,9.1-2.5,12.6-5.9
			C89.9,30.6,99.6,28.4,94.7,38.8z"/>
		<path fill="#D9A962" d="M74.5,59c-2.6,0-5.2,0-7.8,0c4.1-4.6,8.3-9.3,12.4-13.9c1,0,2.1,0,3.1,0.1c2.5,1.3,4.4,3,4,6.1
			c-4,4.8-3.7,9.7-0.1,14.5c-0.1,2.6-1,4.5-3.8,5C77.3,68.4,76.6,63.2,74.5,59z"/>
		<path fill="#C69A6B" d="M66.7,49.7c0.5-0.5,1-1,1.5-1.5C67.7,48.7,67.2,49.2,66.7,49.7z"/>
		<path fill="#D9AF74" d="M103.8,42.2c-3,1.9-6,1.9-9,0.1C97.8,42.2,100.8,42.2,103.8,42.2z"/>
		<path fill="#CE9D52" d="M85.3,51.3c-1-2.1-2.1-4.1-3.1-6.2c7.3,0,14.5,0,21.8,0c1.5,1,3.3,1.2,5,1.5c6.4,1,6.8,2.6,2.7,8.1
			c-4.5-2.4-7.1,4-11.4,2.6c-1.9-1.3-2.5-3.9-5.5-5.2c-1.5,4.7,0,9.8-2,14.1c-1.4,2.2-3.7,3.9-4,6.8c-1,1.2-2.4,1.5-3.9,1.4
			c-0.7-0.1-1.4-0.4-2-0.8c-0.6-0.5-1-1.1-1.3-1.7c-0.2-0.7,0-1.4,0.4-2c1-1.6,2.1-3.2,3.1-4.8C82.1,60.6,82.4,55.9,85.3,51.3z"/>
		<path fill="#D9A962" d="M110.2,54.3c8.4-10-7.7-3.7-6.2-9.2c4.1,0.5,8.2,1,12.4,1.5c1.8,6.7,12.1,5.9,12.4,14
			c-5.6-4.4-12-4.7-18.6-3.1c-0.6,0.5-1.2,0.5-1.8,0C108,55.9,108.7,54.9,110.2,54.3z"/>
		<path fill="#817F72" d="M32.2,162.7c0.1-0.9,0.3-1.8,0.4-2.7c1.2-2.5,3.6-3.3,5.8-4.4c3.3-0.2,6.6-0.2,9.8-0.8
			c2,1.3,4.5,1.6,6.3,3.4c-0.3,5.1-3.7,8.7-6.4,12.6c-3.8,1.9-7.6,5-11.4,0c-0.2-2.7-0.7-5.3-3.7-6.4
			C32.6,164,32.3,163.4,32.2,162.7z"/>
		<path fill="#9F9D92" d="M38.7,156.8c-2,1.1-4.1,2.1-6.1,3.2c1.6-2.4,3.2-4.8,5.2-7.8c-2.8-4.5-7.5-7.4-12.9-9.4
			c0-3.2-3-5.8-1.6-9.2c0.5,0,1,0,1.5,0c1.8,1.7,4.6-0.8,6.2,1.5c0.5,0,1.1,0,1.6,0c3.3,0.5,4.3,3.1,5.3,5.8c1.2,3,2.4,6.1,5,8.3
			C44.3,153.3,41.9,155.3,38.7,156.8z"/>
		<path fill="#817F72" d="M29.7,163.5c0.5-0.1,0.9-0.3,1.3-0.6c0.4,0,0.9,0,1.3-0.2c0,0,0.5,0.5,0.5,0.5c1.5,1.5,4.1,2.2,3.7,5
			c-0.7,2.9-0.5,6.2-3.4,8.2c-1.4,0.8-2.9,1-4.5,0.5c-0.7-0.4-1.3-0.9-1.8-1.5c0-1,0-1.9,0-2.9c0.8-1,0.5-2.3,1.1-3.3
			C28.3,167.3,29,165.4,29.7,163.5z"/>
		<path fill="#B8B4A6" d="M23.2,133.7c0.5,3.1,1.1,6.1,1.6,9.2c-1-3.2-2.1-6.5-3.1-9.7c-0.1-0.2,0.1-0.4,0.2-0.7
			C22.4,132.9,22.8,133.3,23.2,133.7z"/>
		<path fill="#B8B4A6" d="M30.9,135.1c-2.1-0.5-4.1-1-6.2-1.5c1-0.5,2.1-1.1,3.1-1.6C28.9,133.1,29.9,134.1,30.9,135.1z"/>
		<path fill="#CEC1BD" d="M28,101c3.4-0.2,7.2,0.8,9.3-3.1c0.5-2.3,2.3-3,4.4-3.2c7.3-1.4,8.6-0.2,8.8,6.9c0.1,3.5-0.9,6.5-2.5,9.5
			c-1.5,3-3.3,5.9-2.3,9.4c0.1,1.9,0.6,3.7,1,5.6c0,2.1-0.2,4.3-2.6,4.9c-2.3,0.5-4.4-0.8-4.8-2.9c-1.6-8.6-9-14.3-11.2-22.6
			C28,104.1,28,102.5,28,101z"/>
		<path fill="#C4B4AC" d="M28,105.6c6,7.3,11.4,15,14.5,27.7c1.5-4.7,1.9-6.1,2.4-7.5c3.3-0.7,3.5,2.3,4.7,4.1
			c0.3,0.7,0.5,1.5,0.5,2.3c0.1,2.4,0.3,4.8-0.8,7c-0.4,0.7-1.1,1.2-1.8,1.5c-3,0.3-5.8,0-5.7-4.1l0,0c1.3-1.6,1.5-3.1-0.1-4.6
			C35,124.4,28.7,116.4,28,105.6z"/>
		<path fill="#827F71" d="M41.9,149.1c-8.1-1.3-4.3-10.6-9.3-14c5.4-3.1,5.4,2.7,7.7,4.7c0.7,0.3,1.2,0.7,1.7,1.2
			c0.9,1.1,1.7,2.3,2.6,3.4C46.4,149.1,46.1,149.5,41.9,149.1z"/>
		<path fill="#BFB0A7" d="M40.4,141.3c0-0.5-0.1-1-0.1-1.5c0.5-1,1-2.1,1.5-3.1c2.1,1,4.2,2.1,6.2,3.1c1,3.3-0.1,5.2-3.7,5.4
			C42.3,144.6,41.4,142.9,40.4,141.3z"/>
		<path fill="#BFB0A7" d="M41.7,132.1c3.2,1.4,3.1,3,0.1,4.6C41.8,135.1,41.7,133.6,41.7,132.1z"/>
		<path fill="#A27139" d="M60.4,73.1c0.6-1.1,1.2-2.2,1.8-3.3c0.4-0.5,0.9-1,1.4-1.5l0,0c0.7-0.6,1.4-0.6,2.1,0
			c1.4,1.6,1.4,3.5,0.9,5.4c-2.4,5.8,1.5,6,5.4,6.1c3.2-0.5,3.9-4.8,7.5-4.7c7,1.9,2.9,7.6,4,11.5c0.2,1.2-0.2,2.4,0.6,3.4
			c1.2,0.2,2.1-0.7,3.1-0.8c1.7-0.2,3.2,0.4,4.4,1.6c0.4,0.6,0.6,1.2,0.6,1.9c-0.1,0.7-0.4,1.3-0.8,1.9c-1.6,2-3.8,2.8-6.2,3.3
			c-0.4,0.2-0.9,0.3-1.3,0.5c-0.4,0.2-0.6,0.5-0.5,1c0.3,0.4,0.6,0.8,1.1,0.9c1.5,0.8,2.8,1.7,2.9,3.6c-0.3,1.9-1.5,3.2-3,4.4
			c-1.3,0.8-2.7,1.4-4.2,1.4c-0.8,0-1.5-0.2-2.2-0.6c-3.5-2-6.4-4.4-7.2-8.6c-0.4-2.3-0.2-4.5,0.4-6.7c0.2-0.9,1.2-1.4,1.2-2.3
			c-1,1.2-2.3,1.5-3.8,1.4c-2.7-0.5-4-2.4-5-4.7c-0.3-0.9-0.3-1.9-0.4-2.9c-0.3-0.6-0.6-1.1-1.1-1.5C59.2,80.7,56.3,77.4,60.4,73.1z
			"/>
		<path fill="#BEB1AB" d="M41.9,96.3c-1.5,0.5-3.1,1.1-4.6,1.6c-7.9,0.8,4.5-12.2-6.4-9.4c-0.5-1-1-2-1.4-3.1
			c0.3-0.7,0.7-1.2,1.4-1.6c0,0,0.2-0.1,0.2-0.1c2.5-0.4,4.9-0.9,7.7-1.4c0.2,3.6,0.3,6.7,0.5,11.2c3.7-2.7,6.3-4.6,8.9-6.5
			c4.7-2.1,7,0.3,8.7,4.4c1.5,3.8,1.2,7.5,0.9,11.3c-0.6,2.1-1.3,4.1-2.2,6.1c-1.3,1.7-3,2.7-5.2,2.2c-2.8-3.1,0-6.5-0.2-9.8
			c-0.1-2.4,1.2-4.8-1.5-6.7C45.7,92.7,44.1,95.8,41.9,96.3z"/>
		<path fill="#BA935F" d="M73,93.2c0,2.6-0.1,5.1-0.1,7.7c-5.6,6.2-9.4,5.6-14.5-2.2c0-4.6-4.6-8.4-2.6-13.4c2,0,4.1,0,6.1,0
			c3.3,1.4,0.1,9.4,7.1,7C70.5,92.5,72,91.9,73,93.2z"/>
		<path fill="#B1977B" d="M55.9,85.4c1.5,4.1,3.1,8.3,4.6,12.4c-0.4,0.4-0.7,0.8-1,1.2c-0.4,0.8-0.4,1.6-0.4,2.4
			c-0.1,0.9-0.4,1.7-1,2.3c-0.4,0.4-1,0.6-1.6,0.7c-0.3-0.1-0.5-0.3-0.8-0.4c-0.9-6.4,3-14.9-7.5-17C50.5,85.4,52.7,83.2,55.9,85.4z
			"/>
		<path fill="#CBA365" d="M68.3,93.2c0.9,2.6-0.2,3.6-2.6,2.8c-5.7-1.9-2.9-6.9-3.7-10.6c0-0.5,0-1,0-1.5c0.5,0,1,0.1,1.5,0.1
			c0.6,0.5,1.2,0.9,1.5,1.7c1.1,2,2.1,4.1,3.2,6.1C69.2,92.2,69.3,92.7,68.3,93.2z"/>
		<path fill="#634A34" d="M43.5,79.2c0-1-0.1-2.1-0.1-3.1c2.1-0.6,4.2-1.2,6.3-1.7c1.2,0.8,2.3,1.6,5.2,3.6
			C49.7,78.6,46.6,78.9,43.5,79.2z"/>
		<path fill="#B57F3F" d="M82.2,87c-6-2.3,4.3-9.1-3.1-11c-2.6-1.8-3.3-5.5-6.6-6.7c-0.6-0.3-1.2-0.6-1.8-1
			c-1.2-0.8-2.2-1.7-2.6-3.2c2.1-2,4.2-4.1,6.4-6.1c6.6,0.8,4.8,7.5,7.7,11c0,0.5,0.1,1,0.1,1.5c0.5,0.5,1,1,1.4,1.5l0.2,0.1
			c7.7,4.6,11.2,4,15.9-2.5c0.7-0.9,1.7-1.5,2.9-1.6c3.6,0.6,6.6,2,6.9,6.3c1.9,2.2-7,2.7-0.9,5.6c0,0.5,0,1,0.1,1.6
			c3.1,2.3,4.8,5.5,6,9.1c0.2,0.7,0.2,1.5,0.2,2.2c-1.3,5.5-2.3,10.9,0.9,16.2c1.2,2,1.1,4.4-0.7,6.4c-0.6,0.4-1.3,0.6-2,0.5
			c-1.8-0.9-3-3-5.3-2.9c-1.1-0.2-2-0.6-2.9-1.2c-2.4-3.5-6.8-4.9-9.3-8.4c1.6-4.8-5-6.6-4.2-11.1l0.1-0.1c0.7-1.8,5.7-1.9,2.1-5.4
			c-2.8-3.7-5.7-2.4-8.5-0.1C84.1,88,83.1,87.9,82.2,87z"/>
		<path fill="#A17A51" d="M68.1,65.1c1.1,0.4,2.1,0.8,3.2,1.2c-1.3,2.7-3.4,3.1-5.9,2c-0.6,0-1.2,0-1.8-0.1
			C65.1,67.2,66.6,66.2,68.1,65.1z"/>
		<path fill="#A17A51" d="M63.6,68.3c-0.5,0.5-0.9,1-1.4,1.5C62.7,69.3,63.1,68.8,63.6,68.3z"/>
		<path fill="#83746D" d="M41.8,76.1c-2.1-0.5-4.2-1.1-6.3-1.6c0.1-0.5,0.2-1,0.3-1.4C38.2,73.2,41.2,72.3,41.8,76.1z"/>
		<path fill="#38281C" d="M32.7,74.7c-0.1,0.5-0.1,0.9-0.2,1.4c-1-0.3-2-0.6-2.9-0.9c0.5-1,1.1-1.9,1.6-2.9
			C31.7,73.1,32.2,73.9,32.7,74.7z"/>
		<path fill="#A17A51" d="M30.8,83.9c-0.5,0.5-0.9,1.1-1.4,1.6c0,0-0.1-0.1-0.1-0.1c-0.3-0.4-0.4-0.7-0.3-1c0.1-0.3,0.3-0.4,0.4-0.4
			C29.9,83.9,30.4,83.8,30.8,83.9z"/>
		<path fill="#7C715A" d="M29.5,83.9c0,0.5-0.1,1-0.1,1.4c-0.5,0.1-0.9,0.1-1.4,0.2C28.5,85,29,84.5,29.5,83.9z"/>
		<path fill="#A7804E" d="M141.1,86.9c-1-1-2-2.1-3-3.1c0.7-2.7-0.8-6.2,2.9-7.8c0,0,0.2,0.2,0.2,0.2c1.1,2,1.2,4,0,6
			C141.2,83.8,141.2,85.3,141.1,86.9z"/>
		<path fill="#775F44" d="M141.3,82.2c0-2,0-4,0-6.1c0.5,0,1.1,0,1.6,0.1c0.5,1.6,1,3.2,1.5,4.7c0.6,0.4,1.1,0.8,1.7,1.2
			c0.4,0,0.9-0.1,1.3-0.1c0,0.6,0,1.2,0,1.8C145.4,83.3,143.4,82.8,141.3,82.2z"/>
		<path fill="#A7804E" d="M148.8,85.4c-0.4-0.4-0.8-0.7-1.2-1C148,84.7,148.4,85,148.8,85.4z"/>
		<path fill="#68513F" d="M146.1,82.2c-0.6-0.4-1.1-0.8-1.7-1.2C144.9,81.4,145.5,81.8,146.1,82.2z"/>
		<path fill="#D7AD70" d="M113.3,93.2c-0.1-0.5-0.1-1-0.1-1.5c-1.2-1.9-0.7-3.3,1.4-4c2.7,0,5.3,0.7,7.9,0.7
			c3.1-2.6,4.4-7.3,9.4-7.6c2,9.1-3.1,14.9-9.3,20.1c-0.5,0.5-1.1,1-1.6,1.5C114,103.8,113.4,103.2,113.3,93.2z"/>
		<path fill="#A66B27" d="M108.7,80.8c-0.9,1.6-1.9,3.2-2.9,5.1c-2.9-8-2.6-8.7,2.9-9.7c0.6,0.1,1,0.3,1.4,0.8
			c0.1,0.3,0.1,0.5,0.2,0.8C109.7,78.8,109.2,79.8,108.7,80.8z"/>
		<path fill="#D4A25B" d="M116.3,88.6c-1,1.1-2.1,2.1-3.1,3.2c-1.5-3.1-3-6.2-4.5-9.4c4.1-1,5.9,1.7,7.6,4.7
			C116.7,87.5,116.8,88.1,116.3,88.6z"/>
		<path fill="#B08140" d="M116.3,88.6c0-0.5,0-1,0-1.5c2.7-2.1,5-2.6,6.2,1.4C120.6,92.1,118.5,91.9,116.3,88.6z"/>
		<path fill="#593119" d="M122.8,68.2c1.7,2.9,2,5.9-0.4,8.3c-2.4,2.3-5.2,1-7.7-0.3c-0.4-0.6-0.5-1.3-0.1-1.9
			c2.7-1.5,5.2-3.3,7.2-5.7C122.1,68.4,122.5,68.3,122.8,68.2z"/>
		<path fill="#B7A48E" d="M113.3,76.1c-1.1,0.5-2.1,1.1-3.2,1.6c0,0,0-0.1,0-0.1c-0.6-3.6-3.1-7.1-0.5-10.8c1.3-1,2.6-1,4-0.1
			C116.5,70,115,73.1,113.3,76.1z"/>
		<path fill="#B38664" d="M113.3,76.1c-0.1-3-0.2-6.1-0.3-9.1c0.4-0.2,0.7-0.4,1.1-0.6c2.9,1.3,3,3.6,2.2,6.2
			c-0.4,0.7-0.9,1.4-1.4,2c-0.1,0.5-0.1,1-0.2,1.5C114.2,76.2,113.8,76.2,113.3,76.1z"/>
		<path fill="#593119" d="M122.4,65.5c0.1,0.9,0.3,1.8,0.4,2.7c-0.2,0.2-0.4,0.3-0.6,0.5c-2.2-0.3-3.5-1.1-2.4-3.6
			c1-0.7,2-0.8,2.8,0.4L122.4,65.5z"/>
		<path fill="#C5904B" d="M122.5,65.4c-1-0.1-1.9-0.2-2.9-0.3c-0.3,0.1-0.6,0.1-0.9,0.2c-1.5,0.7-3,0.3-4.5,0c-1.6-0.1-3,0.1-4,1.6
			c0,3.6-0.1,7.2-0.1,10.8c-0.5-0.5-1.1-1-1.6-1.5c-2.1-2.1-4.1-4.2-6.2-6.3c-0.6-0.6-0.8-1.3-0.6-2.1c2.6-3.2-0.6-10.3,6.8-10.4
			c0.5,0,1,0.1,1.5,0.1C114.3,60.1,118.4,62.8,122.5,65.4z"/>
		<path fill="#B39464" d="M88.5,131.9c-1.2,4.6-5,2.8-7.8,3.2c-0.3-0.1-0.7-0.1-1-0.2c-0.6-0.3-1.1-0.8-1.6-1.3
			c-0.4-0.6-0.6-1.2-0.8-1.9c-0.4-2.1-0.2-4.1,0-6.2c0.8-2.2-0.3-3.9-1.7-5.5c-0.7-1.4-0.8-2.8,0.1-4.2c7.7-5,16.4-3.7,24.9-3.6
			c2.5,0,4.9,1.2,7.5,1.2c2.2-0.1,3.6,1.2,5,2.6l0.1,0.6c0.9,2.9-2.4,1.6-3,3c-0.5,1.1-1.1,2.1-1.6,3.2c-3,1.9-1.9,5.5-3.4,8
			c-2.6,3.8-4.9,7.6-1.3,12.1c-7.3,3.4-7.3,3.4-12.4-14c-0.8-0.7-1.1-1.6-1.2-2.6c0-1.1,0.5-2.3-0.6-3.2c-1.3-0.4-2.1,0.6-3.1,1
			c-0.8,0.5-1.6,1-1.8,2.1c1.2,0.4,1.7-1.1,2.8-1c0.8,0.1,1.4,0.5,1.8,1.2C90.1,128.5,90.1,130.3,88.5,131.9z"/>
		<path fill="#C8A168" d="M110.2,119.6c1-1,2-2,3-3c2.5-7.8-7-15.6,0.1-23.4c2.7,3,0.2,10.2,7.6,9.2
			C120.5,110.1,122.1,119.1,110.2,119.6z"/>
		<path fill="#BFA26D" d="M104,142.9c-2.9,0.1-5.2-0.8-5.2-4.1c0-3.7,1-7.1,5.2-8.4c3.3,0.3,6.3,1.6,9.3,3.1c-0.5,2.1-1,4.2-1.5,6.3
			C109.2,140.8,106.6,141.9,104,142.9z"/>
		<path fill="#CCB283" d="M113.2,133.5c-4.4,2.9-7.1,0.7-9.3-3.1c0-3.5,0-7.1,0-13c2.7,3.1,3.7,4.2,4.7,5.3
			C111.6,125.8,114.6,128.7,113.2,133.5z"/>
		<path fill="#A47E44" d="M125.7,119.6c-0.1,2.5,0.7,5.5-3,6.3C123.7,123.8,124.7,121.7,125.7,119.6z"/>
		<path fill="#AFB1AC" d="M63.6,192.6c-9.2-4.5-13.1-11.6-10.9-21.8c-1.2-7.9,1.3-11.9,7.8-12.4c3.1,2.5,6.2,5.1,9.8,8
			c-6.7,7.3,8.7,7,5.7,13.7c-1.3,1-2.9,0.7-4.4,1.2c-4.4,0.7-7-3.7-11.3-3.9c1.1,0.7,1.4,1.7,1.7,2.7
			C61.2,184.5,65.6,188.2,63.6,192.6z"/>
		<path fill="#989D97" d="M76,155.4c-2.6,3.7,0.4,5.3,3.1,7.1c-9.2,2.9-11.8-7.2-18.5-8.7c-0.6-0.3-1.1-0.8-1.5-1.3
			c-0.3-0.6-0.5-1.2-0.7-1.9c-0.1-1.3-0.4-2.7-0.7-4c-0.1-0.7-0.1-1.4,0-2c0.4-1.4,1.2-2.4,2.8-2.7c3.7-0.1,5.1,4.1,8.5,4.6
			c1.2,0.7,1.9,1.8,2.3,3C72.3,152,75.8,152.3,76,155.4z"/>
		<path fill="#C7C8C5" d="M60.5,180.2c-1.9-2.3-3.8-4.7-6.7-8.4c7.4,3.3,13.2,5.9,19.1,8.5c1.5,0.4,2.3,1.7,3.2,2.8
			c1,0.1,2,0.2,3,0.3c0.6,0.5,1.1,1,1.7,1.5l0,0c0.5,0.5,1,1,1.5,1.4c1,0.1,2,0.2,2.9,0.3c0.7,0.6,1,1.3,0.8,2.2
			c-2.9,4.3-6.9,2.6-10.3,1.5C69.8,188.2,64.4,185.2,60.5,180.2z"/>
		<path fill="#65685C" d="M100.9,163.1c-0.1,1-0.1,2-0.2,3.1c-4.8,5.9-6.9,12.8-7.7,20.2c-0.5,0.5-1,1-1.5,1.5
			c-0.7-3.6-7.6-6.3-1.7-11l0,0.1c-2.1-4.6-1.9-7.5,4.7-6c0-2.8,0-5.4,0-7.9C96.7,163,98.8,163.1,100.9,163.1z"/>
		<path fill="#9A9B92" d="M60.5,158.5c-6.3,1.8-5.5,8.1-7.8,12.4c-2.1,3.1-4.1,6.2-6.2,9.3c-1-1.6-2.1-3.1-3.1-4.7
			c1.8-1.9,2.6-4.5,4.6-6.3c0.6-4.5,2.8-8,6.3-10.8c-0.1-1.1,0.4-2,1.1-2.7c2.1-1.6,3.7-1.1,5,1.1c0.2,0.4,0.4,0.7,0.5,1.1
			C61,158.1,60.6,158.3,60.5,158.5z"/>
		<path fill="#B8B5A7" d="M76,155.4c-2.1-1.6-4.1-3.2-6.2-4.8c0.6-0.7,1.1-1.5,2-1.9c0.6-0.2,1.2-0.1,1.8,0c1.1,0.4,2.1,1.1,3.3,1.4
			c0.6,0.1,1.1,0.3,1.7,0.5c0.6,0.2,1.1,0.5,1.6,0.8c1,0.7,1.9,1.4,2.1,2.7c3.1,0.9,6.1,1.9,9.2,2.8c0.5,1,1.1,2,1.6,3.1
			c1,0.6,1,1.1-0.1,1.6c0,0,0,0,0,0C85.6,164.5,81.8,157.2,76,155.4z"/>
		<path fill="#A4A5A0" d="M85.4,187.9c-0.1-0.5-0.1-0.9-0.2-1.4c6.4-0.8,1.9,4.2,3.3,6.1c0,2.6,0,5.2-0.1,7.8
			c-1.5-1.6-3.1-3.1-4.6-4.7c-1.1,1-2.2,1.1-3.1-0.2c-0.8-1.3,0.2-2.3,0.9-3.3C82.7,190.6,86.5,191.5,85.4,187.9z"/>
		<path fill="#868777" d="M60.4,156.9c-1.5,0-3,0.1-4.5,0.1c-1.9-0.1-3.5-0.7-3.9-2.8c0-1.5,0.6-2.8,1.7-3.8c0.6-0.4,1.3-0.6,2-0.6
			c1.9,0.1,3.1,1.5,4.6,2.3c0.1,0.6,0.2,1.1,0.3,1.7C60.5,154.8,60.5,155.8,60.4,156.9z"/>
		<path fill="#A4A5A0" d="M76.1,183c-1.1-0.9-2.2-1.8-3.2-2.8c1.1,0,2.1-0.1,3.2-0.1C76,181.1,76,182.1,76.1,183z"/>
		<path fill="#A4A5A0" d="M82.2,186.3c-0.5-0.5-1-1-1.5-1.4C81.2,185.3,81.7,185.8,82.2,186.3z"/>
		<path fill="#A4A5A0" d="M80.7,184.8c-0.6-0.5-1.1-1-1.7-1.5C79.6,183.8,80.1,184.3,80.7,184.8z"/>
		<path fill="#A77E42" d="M80.7,135.1c1.3,1.5,2.6,3,4.3,5c-4.3,0.3-8.6,0.4-8.9,5.8c-5.6-0.1-6-5-7.8-8.5c-0.3-0.7-0.4-1.4-0.5-2.2
			c-0.4-2.8,0.5-5.7-1.2-8.3c-1.4-3-4.4-4.4-6.9-6.4c-0.8-0.9-1.4-1.8-1.6-3c-0.1-2.1,0.5-3.9,2-5.5c6.4-2.4,12.5,1.6,14.9,10.1
			c1.1,3.9,2.6,7.6,4.2,11.3l0,0C79.7,134.1,80.2,134.6,80.7,135.1L80.7,135.1z"/>
		<path fill="#7C6137" d="M69.9,136.6c2,3.1,4.1,6.2,6.1,9.3c3.6,2.3,7.3,4.6,11.7,7.4c-2.5,0.3-4,0.5-5.5,0.7
			c-1.1-0.6-2.1-1.2-3.2-1.8l0,0l-0.8,0l-0.7-0.1c-1.5-1-3.8-0.9-4.6-3.1l0,0c-3.6-2.5-6.6-5.4-5.6-10.4
			C67.9,137.6,68.7,136.8,69.9,136.6z"/>
		<path fill="#9C7D45" d="M88.5,131.9c-0.1-2-0.1-4.1-0.2-6.1c-0.6-0.7-1.3-1.2-1.6-2.1c0-0.3,0-0.6,0-0.9c-0.2-6,2.7-2.9,4.9-1.7
			c1.2,1.6,1.2,3.1,0,4.7c0,1,0,2,0,3.1C91.3,130.7,92.2,133.6,88.5,131.9z"/>
		<path fill="#A0A29D" d="M93.1,161.5c0-0.5,0-1,0.1-1.6c1.2-0.1,2.4-0.2,9.9-0.7C95.6,160.9,94.4,161.2,93.1,161.5z"/>
		<path fill="#D2D3CF" d="M38.6,230c2.2,1.6,4.4,3.1,7.5,5.3c-2,0.4-3.1,0.6-4.1,0.7c0,0,0,0,0,0c-2.8-2.2-7.9,0.4-9.4-4.6
			c-4.1-2.1-8.3-4.2-12.4-6.2c0,0,0,0,0,0c-1.4-2.6-1.2-4.7,1.9-5.9C29,220.5,34.8,223.8,38.6,230z"/>
		<path fill="#A0A09C" d="M32.5,231.4c3.1,1.5,6.3,3,9.4,4.6c-2,0.5-4,1-6.1,1.5C32.5,236.7,30,235.5,32.5,231.4z"/>
		<path fill="#A0A09C" d="M35.8,237.5c1,0.5,2,1,3,1.5C37.8,238.5,36.8,238,35.8,237.5z"/>
		<path fill="#A6A7A2" d="M14,203.5c1.5-2.1,3.1-4.2,4.6-6.3c0.9-0.8,0.6-2.3,1.5-3.1l0,0c0.5-0.5,1.1-1,1.5-1.6l-0.1,0.1
			c0.6-0.4,1.2-1,1.6-1.6l-0.1,0.1c0.6-0.4,1.2-1,1.6-1.6l0,0c0.7-0.5,1.2-1.2,1.5-2c0-0.4,0-0.7,0.2-1.1c0.5-0.5,1-1,1.5-1.5
			c5.8-1,6.8-8.2,12.4-9.5c0.8,3.6,1.7,7.2,2.6,10.8c-1.4,4.5-6.3-5.5-7.2,1.7c0.8,1.7-0.5,2.3-1.6,3.1c-1.4,0.7-2.9,0.9-4.1,2
			c-0.9,0.8-1.7,1.6-2.3,2.6c-1,1.6-1.9,3.2-2.1,5.1c0.3,4.4-5.1,7.5-2.9,12.4c0.1,1.5-0.2,2.8-1.7,3.5c-0.7,0.2-1.4,0.2-2.1,0
			c-0.6-0.3-1.2-0.8-1.5-1.4c-0.1-0.3-0.1-0.7-0.2-1c-1.1-1.6-2.1-3.2-3.2-4.8C12.8,207.5,12.6,205.5,14,203.5z"/>
		<path fill="#BDBDBB" d="M23.2,220.4c-2.9,0.4-3.1,2.5-3.1,4.8c0.2-4-8.5-5.4-3.1-10.9c0,0,0,0,0,0c0.5,0.6,1,1,1.5,1.6h0
			C19.9,217.6,24,216.6,23.2,220.4z"/>
		<path fill="#B9B9B6" d="M85.4,187.9c6.3,4-6.5,4.1-1.6,7.8c0,0.5,0,1,0,1.6c-7.1,3.6-13.6,0.3-20.2-1.6c0-1,0-2,0-3.1
			c-2.1-3.9-6.2-7.3-3.1-12.4C69.3,181.2,75.1,191.8,85.4,187.9z"/>
		<path fill="#BFBFBC" d="M63.6,195.7c6.7,0.5,13.5,1,20.2,1.6c-0.1,1.6-0.2,3.1-0.3,4.4c-6.8-1-13.3-2-19.9-2.9
			c-0.5,0-1-0.1-1.5-0.1C61.2,197,61.3,195.8,63.6,195.7z"/>
		<path fill="#C2C3BE" d="M51.2,217.4c0.2,0.3,0.4,0.7,0.4,1.1c-0.1,2.3,0.4,4.6-0.5,6.8c-4.1,2.7-6.8,0.8-8.8-2.7
			c-4.2-7.4-7.2-15.3-8.2-23.9c1-3.4,0.5-8,6.1-7.7c2.5,4.7,5.1,9.3,7.6,14c1.3,1.6,1.9,3.5,2.4,5.4c0.2,1.3-0.1,2.5-0.3,3.8
			c0,0.6,0.1,1.2,0.3,1.8C50.5,216.5,50.8,217,51.2,217.4z"/>
		<path fill="#8F8E81" d="M40.3,175.4c-2.4,5.6-5.3,10.6-12.4,10.9c-1.2-1.2-0.7-2.7-0.7-4.1c0.6-3.1,3.3-4.6,5.3-6.6
			c1.1-2.6,2.1-5.3,3.2-7.9c0,0,0.6,0,0.6,0c0.4,0.2,0.7,0.5,0.9,0.9c0,0,0,0.6,0,0.6c3.7,6.7,7.2-1.2,10.8-0.1
			c0.2,3.4,0.2,6.6-4.6,6.3C42.4,175.5,41.3,175.5,40.3,175.4z"/>
		<path fill="#B7B7B2" d="M40.3,191c-1.6,2.6-3.1,5.2-4.7,7.8c-2.6,1.7-4.6-0.9-7-1c-1.1-0.3-2-0.8-2.7-1.7
			c-0.4-0.7-0.3-1.3,0.3-1.9c0.5-1,1.1-2,1.6-3.1c1.2-1.5,3.4-0.1,4.7-1.6c1-0.5,2.1-1,3.1-1.6C37.2,189,38.8,190,40.3,191z"/>
		<path fill="#8A8B86" d="M48.3,212.6c-0.1-2.5-0.2-5.1-0.4-7.6c3.8,3.1,8.4,5.5,9.2,11.1c-2-0.1-4-0.1-6-0.2
			c-0.5,0.6-1,0.5-1.5-0.1l0,0C48.6,215,48.9,213.6,48.3,212.6z"/>
		<path fill="#AEAFAB" d="M29.4,195.7c2.1,1,4.2,2.1,6.2,3.1c3.7,9,5.4,19.1,12.3,27c1.5-2.9,2.6-5.1,3.7-7.2c0.4,0.5,0.9,1,1.3,1.5
			c0.7,3.2,1.4,6.4,2,9.2c-5.7,5.9-11.1-2-16.3,0.8c-5.1-3.2-10.3-6.3-15.4-9.5c-1.6-1.5-3.1-3-4.7-4.5c1-0.5,2.1-1,3.1-1.6
			c3.7-1.1,6,1.8,8.9,2.9c0.7,0.3,1.3,0.8,3,1.3c-1.4-6.2-2.9-12-4.6-17.7c-0.3-1-0.4-2.1-0.5-3.2C28.6,196.9,28.9,196.3,29.4,195.7
			z"/>
		<path fill="#ADAEA9" d="M49.7,215.8c0.5,0,1,0.1,1.5,0.1c0.1,0.5,0.1,1,0,1.5C50.7,216.9,50.2,216.3,49.7,215.8z"/>
		<path fill="#E5B77A" d="M85.3,51.3c0,4.6,0,9.3,0,13.9C78.2,60.6,78,55.9,85.3,51.3z"/>
		<path fill="#C39039" d="M91.6,66.7c0-6.1,0-12.2,0-18.5c6.8,0,9.4,3.3,9.2,9.2c0.1,0.3,0.2,0.7,0.3,1c0.4,8.7-0.2,9.4-8.7,9
			C92.1,67.2,91.9,67,91.6,66.7z"/>
		<path fill="#E1AC61" d="M108.7,57.4c-5.5,1.7-0.3,9.4-6.2,10.9c-3.2-3.2-2.7-7-1.6-10.8c0,0,0,0,0,0c1.5-2.2,3-4.5,4.8-7.2
			c3-0.9,4,1.3,4.5,4.1C109.7,55.4,109.2,56.4,108.7,57.4z"/>
		<path fill="#C5904B" d="M100.9,71.5c1.2,8.3-6.3,5.8-9.9,7.3c-4.1,1.7-6.5-1.6-7.1-5.7c1.5,0,3,0,4.6-0.1c0.7-0.8,1.5-1.4,2.5-1.7
			C94.3,71.3,97.6,70,100.9,71.5z"/>
		<path fill="#D9A962" d="M91.5,73c-1,0-2.1,0-3.1,0c-5.1-5.2,0-5.2,3.2-6.3c0,0,0,0,0,0C93.3,68.8,93.2,70.9,91.5,73z"/>
		<path fill="#C5904B" d="M83.7,72.9c-0.5-0.5-1-1-1.4-1.5C82.8,71.9,83.2,72.4,83.7,72.9z"/>
		<path fill="#A9A9A3" d="M28.1,181.4c-0.1,1.7-0.1,3.3-0.2,5c-0.5,0-1,0-1.5,0c0-3.7,0.1-7.3,0.1-11c0.5,0.1,1,0.1,1.5,0.1
			C29.6,177.4,29.4,179.4,28.1,181.4z"/>
		<path fill="#A9A9A3" d="M27.6,169.1c-0.4,1.1-0.8,2.2-1.1,3.3C26.9,171.4,27.2,170.2,27.6,169.1z"/>
		<path fill="#A9A9A3" d="M26.2,187.5c-0.5,0.7-1,1.3-1.5,2C25.2,188.8,25.7,188.1,26.2,187.5z"/>
		<path fill="#A9A9A3" d="M24.7,189.4c-0.5,0.5-1.1,1.1-1.6,1.6C23.7,190.5,24.2,190,24.7,189.4z"/>
		<path fill="#A9A9A3" d="M23.2,190.9c-0.5,0.5-1.1,1.1-1.6,1.6C22.1,192,22.6,191.5,23.2,190.9z"/>
		<path fill="#A9A9A3" d="M21.6,192.5c-0.5,0.5-1,1.1-1.5,1.6C20.6,193.6,21.1,193.1,21.6,192.5z"/>
		<path fill="#979285" d="M55.9,150.7c-0.6,0-1.2,0-1.8,0c-1.5,0.7-2.2,1.9-2.6,3.4c-0.9,1.1-2.1,1.4-3.5,1.2
			c-2.4,4.9-5.9,3-9.3,1.6c1-2.6,2.1-5.1,3.1-7.7c5.4-1.6,0.4-3.1,0-4.7c0.5-0.7,1.1-0.7,1.6,0c1.5-1.5,3.1-3.1,4.6-4.6c0,0,0,0,0,0
			c0.6-0.5,1.2-0.7,2-0.6c2.6,0.9,4.2,2.9,6,4.8C56.5,146.2,61.4,148.6,55.9,150.7z"/>
		<path fill="#717263" d="M48,155.3c1.1-0.6,2.1-1.1,3.2-1.7c0.6-0.4,1.1-0.2,1.5,0.3c1.1,1,2.2,2,3.3,3.1c-0.5,0.5-1.1,1-1.6,1.5
			C51.5,158.7,47.7,161.1,48,155.3z"/>
		<path fill="#727061" d="M35.6,167.8c-1-1.5-2-3.1-3-4.6c3.6,0.5,8.6,0,4.6,6.1c0,0,0,0,0,0C36.7,168.8,36.2,168.2,35.6,167.8
			L35.6,167.8z"/>
		<path fill="#4F4E47" d="M28.1,181.4c0-2-0.1-3.9-0.1-5.9c1.5,0,3,0.1,4.5,0.1C33,179.1,30.8,180.4,28.1,181.4z"/>
		<path fill="#C5B8B3" d="M41.9,96.3c3-4.5,8-4.4,10.3-1.2c3.6,5-0.3,10.4-2.4,15.4c0.5,0.6,0.7,1.2,0.8,2c-0.6,4.3-2.9,7.3-7.1,8.8
			c-3-8.9,9-15.2,3.5-24.9C45.7,96.3,43.8,96.3,41.9,96.3z"/>
		<path fill="#BFB0A7" d="M43.4,121.2c2.1-3.1,4.1-6.2,6.2-9.3c4.4,6.7,2,12.7-1.6,18.7c-1-1.6-2-3.1-3-4.7
			C44.4,124.3,43.9,122.7,43.4,121.2z"/>
		<path fill="#A49084" d="M48,130.5c0.5-6.2,1.1-12.4,1.6-18.7c0-0.5,0.1-0.9,0.1-1.4c1.5-0.6,3-1.1,4.5-1.7
			c0.7-0.6,1.4-0.5,2.1,0.1c1,1.4,1.1,2.9,0.5,4.4c-5.1,3.7-1.4,10.3-4.8,14.6c-0.8,1.1-0.8,2.9-2,4c-0.7,0.4-1.3,0.5-2,0.2
			C48.1,131.5,48.1,131,48,130.5z"/>
		<path fill="#BFB0A7" d="M48.1,132c0.5,0.1,1,0.1,1.4,0.1c0.3,0.2,0.6,0.4,0.9,0.7c1.2,1.7,1.3,3.5,0.6,5.4
			c-0.3,0.7-0.9,1.2-1.5,1.6c-0.5,0-1,0-1.5,0C48.1,137.2,48.1,134.6,48.1,132z"/>
		<path fill="#9F9888" d="M43.5,144.4c-0.5,0-1.1,0-1.6,0c-0.5-1.1-1-2.1-1.4-3.2C41.4,142.3,42.4,143.4,43.5,144.4z"/>
		<path fill="#B28F57" d="M79.1,133.6c-4-6.1-8.4-11.9-11.9-18.3c-1.9-3.5-3.6-3.7-6.5-2c-3.5-1.8-1.8-5.7-3.3-8.3
			c-0.1-0.3-0.2-0.7-0.2-1c0.1-1,0.2-2.1,0.3-3.1c0.8-0.8,0.5-2.2,1.4-3c0.5,0,1-0.1,1.5-0.1c2.6,7,7.4,5.6,12.5,3.2
			c2.1,2.6,4.2,5.2,6.2,7.8c0.7,0.9,0.2,1.7-0.3,2.4c-0.8,0.9-1.6,1.7-2.1,2.8c-0.4,0.8-0.7,1.7-0.7,2.6c0.5,1,1,2,1.6,3.1
			c1.1,1.9,0.4,4.3,1.5,6.2C79.1,128.4,79.1,131,79.1,133.6z"/>
		<path fill="#8A5F3D" d="M77.6,110.3c0.5-0.5,1.1-1.1,1.6-1.6c0.5,0,1,0,1.4,0c1.6,0.2,3.2,0.2,4.7-0.5c4.8-5.2,9.7-4.5,14.7-0.4
			c1.8,1.4,3.3,3.2,5.7,3.8c1,0,2,0.1,3,0.1c0.9,1,1,2.1,0,3.1c-10.9,0.6-21.7,1.1-32.6,1.7c-1.7-1.2-4-2.2-1.5-4.7
			C75.3,110.9,76.8,111.3,77.6,110.3z"/>
		<path fill="#9B643A" d="M91.5,93.3c2.9,1.8,5.7,3.7,9,5.8c-1.4,1.6-2.8,3.3-4.2,4.9c-3.1,0.2-6.3,1-9.5,0.1
			c-2.1-1.5-4.1-3.1-6.2-4.6c0.4-1.1,0.7-2.2,1.5-3.1C85.3,95.3,88.4,94.3,91.5,93.3z"/>
		<path fill="#412419" d="M65.4,68.4c2-0.7,4-1.3,5.9-2c0.5,0.2,1,0.4,1.5,0.5c4.6,4.4,5,8.9,0.1,13.3c-0.7,0.3-1.4,0.4-2.2,0.5
			c-0.7,0-1.5,0-2.2-0.1c-0.7-0.1-1.4-0.4-2.1-0.7c-1-0.6-1.8-1.3-2.3-2.3c-0.3-1.1-0.1-2.2,0.7-3.1C65.1,72.5,65.2,70.4,65.4,68.4z
			"/>
		<path fill="#83542A" d="M86.9,104c3.1-1.9,6.3-1.7,9.5-0.1c4,1.5,7.9,3.1,9.4,7.7c-2.6,2.7-4.2,0.1-5.5-1.4
			c-5-5.6-9.9-3.8-14.8-0.1c-1-0.9-1.8-1.8-1.7-3.3C84.7,106,85.8,105,86.9,104z"/>
		<path fill="#A67C52" d="M71.4,79.2c5.3-3.5,2.3-8.1,1.5-12.3c4.7,1.3,6.6,4.4,6.3,9.1c-2.1,2.1-4.1,4.2-6.2,6.3
			C72,81.5,70.4,81,71.4,79.2z"/>
		<path fill="#BD8F48" d="M68.3,93.2c0-0.5,0-1-0.1-1.5c2.3-2.4,4.6-4.8,7.7-8.1c2.8,4.7,0.6,7.3-2.9,9.6
			C71.4,93.2,69.9,93.2,68.3,93.2z"/>
		<path fill="#9B643A" d="M94.5,86.8c2,0.6,3.9,1.2,6.2,2c-2.4,4.8-5.8,4.4-9.1,4.4c-0.1-0.5-0.1-1-0.1-1.5c-0.7-0.6-1-1.4-0.8-2.3
			c0.2-0.5,0.5-1,0.9-1.4c0.4-0.3,0.9-0.6,1.3-1C93.4,86.7,94,86.6,94.5,86.8z"/>
		<path fill="#A17A51" d="M71.4,79.2c0.5,1,1,2,1.5,3.1c-4.4,0-8.8-0.2-10.6-5.1c-0.7-1.9-0.2-3.6,2.6-2.6c0.1,0.9,0.2,1.9,0.3,2.8
			c0.4,0.8,0.9,1.4,1.7,1.8c0.5,0,0.9,0.1,1.3,0.2c0.5,0.4,1,0.4,1.5,0C70.3,79.4,70.8,79.3,71.4,79.2z"/>
		<path fill="#9B643A" d="M82.2,87c1-0.1,2.1-0.1,3.1-0.2c0.2,0.2,0.4,0.5,0.6,0.7c0.2,0.6,0.2,1.2,0,1.8c-0.6,1.2,0,2.4-0.3,3.6
			c-2-0.1-4-0.2-7-0.4C80.3,90,81.3,88.5,82.2,87z"/>
		<path fill="#6E3D1C" d="M83.7,107c0.6,1.1,1.1,2.2,1.7,3.3c-1.7-0.3-4.2,2.1-4.7-1.6C81.6,108.1,82.6,107.5,83.7,107z"/>
		<path fill="#7F4B16" d="M82.2,96.4c0.9,1,1.8,2.1,3.8,4.3c-2.8-0.7-4-1-5.3-1.2c0,0,0,0,0,0c-0.9-1.1-0.9-2.1,0.1-3.1
			C81.2,96.4,81.7,96.4,82.2,96.4z"/>
		<path fill="#5E230D" d="M85.6,92.9c-1.3-1.5-2.7-3-0.2-4.7c0.3-0.1,0.6-0.2,0.9-0.3c0.3,0.1,0.6,0.3,0.8,0.4
			c0.3,0.6,0.3,1.2-0.1,1.7C86.6,91,86.1,92,85.6,92.9z"/>
		<path fill="#B57F3F" d="M87.1,90.1c-0.2-0.5-0.2-0.9-0.2-1.4c1.6-1.4,3.1-1.5,4.6,0.1c0,1,0,1.9-0.1,2.9
			C90,91.1,88.6,90.6,87.1,90.1z"/>
		<path fill="#9B643A" d="M80.8,96.3c0,1-0.1,2-0.1,3.1C80.7,98.4,80.7,97.4,80.8,96.3z"/>
		<path fill="#A17A51" d="M65,85.6c-0.5-0.6-1-1.1-1.5-1.7C64,84.5,64.5,85.1,65,85.6z"/>
		<path fill="#B1977B" d="M55.9,108.7c-0.6,0-1.1,0-1.7,0c0.5-1.6,1-3.1,1.5-4.7c0,0,0.1,0.1,0.1,0.1c0.8,0.8,1.2,1.7,1.1,2.9
			C56.8,107.7,56.5,108.3,55.9,108.7z"/>
		<path fill="#A49084" d="M56,107.5c-0.1-1.1-0.1-2.3-0.2-3.4c0.5,0,0.9,0,1.4-0.1c0,0,0.4,0.2,0.4,0.2
			C58.4,106,58.1,107.2,56,107.5z"/>
		<path fill="#BA935F" d="M58.9,97.9c-0.5,1-1,2-1.4,3C58,99.9,58.5,98.9,58.9,97.9z"/>
		<path fill="#CE9D52" d="M91.5,73c0-2.1,0.1-4.2,0.1-6.2c5.3-0.9,8.6-3.7,9.2-9.3c0.5,3.6,1.1,7.2,1.6,10.8c0,0.5,0,1.1,0,1.6
			c-0.5,0.5-1,1-1.6,1.5C98.1,74.1,95,74.3,91.5,73z"/>
		<path fill="#DAA07F" d="M91.5,88.8c-1.5,0-3.1,0-4.6-0.1c0,0-0.2-0.2-0.2-0.2c-0.5-0.5-0.9-0.9-1.3-1.5c0,0-0.2-0.1-0.2-0.1
			c-1.4-3.9,1-4.3,3.9-4.4c3-0.1,5.8,0.1,5.3,4.3c-0.5,0.6-0.9,1.1-1.4,1.7l0,0C92.6,88.6,92.1,88.7,91.5,88.8z"/>
		<path fill="#83542A" d="M108.7,114.9c0-1,0-2.1,0-3.1c3.1-0.3,5.1,0.7,4.5,4.3C111.7,115.7,110.2,115.3,108.7,114.9z"/>
		<path fill="#2D1305" d="M119.6,65.1c0.8,1.2,1.7,2.4,2.5,3.6c-0.2,4.7-1.3,8.3-7.3,6c0-0.6,0-1.2,0-1.7c1.6-1.3,1.6-2.8,1.1-4.8
			C115.1,64.8,116.6,63.9,119.6,65.1L119.6,65.1z"/>
		<path fill="#B38664" d="M110.3,66.9c0.3-3.1,2.5-3.2,4.8-3c0.5,1.4-0.4,2.1-1.4,2.7c-0.2,0.2-0.4,0.3-0.7,0.5
			C112.1,67,111.2,66.9,110.3,66.9z"/>
		<path fill="#593119" d="M113.7,66.6c0.5-0.9,1-1.8,1.4-2.7c1.5,0.4,3,0.8,4.5,1.2c-4.7,0.7,2.7,8.7-4.7,7.8
			C114.5,70.8,114.1,68.7,113.7,66.6z"/>
		<path fill="#C1B587" d="M86.9,125.8c-0.2,2.4-0.4,4.8-0.5,6.9c-3.5,0.8-5.3-0.3-5-2.8c0.5-3.1,0.8-6.8,5.3-7.1
			c0,0,0.1-0.1,0.1-0.1C87.8,123.8,87.9,124.8,86.9,125.8z"/>
		<path fill="#A78249" d="M79.1,125.8c-7-0.4-4.2-3.3-1.5-6.2C81.7,120.8,81.3,123.1,79.1,125.8z"/>
		<path fill="#9D8152" d="M102,121.1c0.1,2,0.2,4.1,0.3,6.1c-0.6,0.1-1.3,0.1-1.9,0.2c-0.2-2-0.3-4.1-0.5-6.1
			C100.6,121.2,101.3,121.1,102,121.1z"/>
		<path fill="#B28F57" d="M91.6,125.8c0-1.6,0-3.1,0-4.7c0.9,0.7,1.7,1.3,2.6,2C93.4,124,92.5,124.9,91.6,125.8z"/>
		<path fill="#B28F57" d="M86.9,125.8c0-1,0-2.1-0.1-3.1c0.5,1,1,2.1,1.6,3.1c0,0-0.7,0-0.7,0L86.9,125.8z"/>
		<path fill="#B28F57" d="M80.7,135.1c-0.5-0.5-1-1-1.5-1.5C79.6,134.1,80.2,134.6,80.7,135.1z"/>
		<path fill="#A6997F" d="M68.2,138.4c1.6,3.6,3.2,7.1,4.8,10.7c-1,0.5-2.1,1-3.1,1.5c-0.5-1-1-2-1.4-3c-5.3-5.2-9.1-11.2-9.8-18.8
			c-0.1-1.5,0.2-3,1.1-4.3c1.4-1.3,2.7-0.7,4,0.1c0.6,0.5,1,1,1.4,1.6c0.6,1.2,1.1,2.5,1.6,3.8c0.5,1.2,0.6,2.5,1,3.7
			c0.2,0.6,0.4,1.2,0.4,1.8c0,0.6,0,1.2,0,1.9C68.2,137.8,68.2,138.1,68.2,138.4z"/>
		<path fill="#B8B5A7" d="M60.5,128.8c2.6,6.3,5.2,12.5,7.9,18.8c-5.5,3.2-4.4-4.5-7.8-4.7c-3.1-1.7-3.9-4.5-3.8-7.8
			C56.9,132.3,57.3,129.8,60.5,128.8z"/>
		<path fill="#676254" d="M55.9,150.7c2.8-3.1-1.3-4.1-1.9-6.2c0-0.4,0-0.8,0-1.1c-0.6-3.1-0.5-6.2-0.5-9.3c0-1.7,0-3.3,0-5
			c1.2-3.2-1.8-8.4,4.2-9.5c3,4.8,0.1,9.7,0.4,14.6c0,3.9,0.3,7.9,0.8,11.8l0,0c1.4,1.3,0.2,3.4,1.4,4.7c0,0.5,0,0.9-0.1,1.4
			C58.3,153.2,56.7,153.3,55.9,150.7z"/>
		<path fill="#868777" d="M59,146c-0.5-3.7-0.9-7.3-1.4-11c0.5-0.7,0.9-0.6,1.1,0.3c0.6,2.5,1.3,5,1.9,7.6C60,143.9,59.5,145,59,146
			z"/>
		<path fill="#868777" d="M60.4,150.7c-0.5-1.6-1-3.2-1.4-4.7C59.4,147.6,59.9,149.2,60.4,150.7z"/>
		<path fill="#5E5E59" d="M89.8,176.9c1,0.2,2,0.5,3,0.7c-0.3,0.6-0.6,1.1-1,1.7C91.2,178.5,90.5,177.7,89.8,176.9
			C89.8,176.9,89.8,176.9,89.8,176.9z"/>
		<path fill="#A6997F" d="M73,149.1c1.5,1,3.1,2.1,4.6,3.1C75.3,152.2,73.2,152.1,73,149.1z"/>
		<path fill="#ADAC9C" d="M52.7,153.9c-0.5-0.1-1-0.2-1.5-0.3c-1.3-0.9-2.7-1.8-4.2-2.8c2.8-2.9,4.9-0.9,7.1-0.1
			C53.7,151.7,53.2,152.8,52.7,153.9z"/>
		<path fill="#604E3B" d="M57.3,119.6c-0.5,3.7-1,7.4-1.6,11c-1,0.3-1.8,0.1-2.4-0.7c0.2-5.6-2.6-11.6,2.6-16.4c0-1.6,0-3.1,0-4.7
			c0.1-0.4,0.2-0.8,0.1-1.2c0.5-1.1,1.1-2.2,1.6-3.3c6,1.3,1.2,6.4,3.2,9.1c-0.6,1.5-1.2,3-1.8,4.4
			C58.9,118.8,58.3,119.4,57.3,119.6z"/>
		<path fill="#A2998B" d="M57.3,119.6c0.6-0.6,1.2-1.2,1.8-1.8c0.5,0.6,1,1.2,1.4,1.7c1.3,1.6,1.4,3.2,0,4.7c0,1.5,0,3.1,0,4.6
			c-0.6,2.2-1.2,4.3-1.8,6.5c-0.4-0.1-0.7-0.2-1.1-0.3C57.5,129.9,57.4,124.7,57.3,119.6z"/>
		<path fill="#7C6137" d="M66.5,135.3c-0.5-1.6-1-3.2-1.5-4.7c-0.7-0.9-0.5-2.2-1.2-3.1c-0.1-0.5-0.2-1.1-0.4-1.6
			c1.6-1.5,3.2-1.3,4.8-0.1c0.5,3.1,1,6.3,1.4,9.4c-2.3,0.3-2.1-1-2-2.4C66.9,133.1,67.9,134.9,66.5,135.3z"/>
		<path fill="#926C3A" d="M68.3,125.8c-1.6,0-3.2,0-4.8,0.1c-1-0.5-2-1.1-3-1.6c0-1.6,0-3.2,0-4.7C63.9,120.6,67.1,121.9,68.3,125.8
			z"/>
		<path fill="#5F3C10" d="M66.5,135.3c0.1-1,0.3-2,0.5-3.7c1.2,1.5,1.9,2.6,2.7,3.6c0.1,0.5,0.1,0.9,0.2,1.4
			c-0.6,0.6-1.2,1.2-1.8,1.8c0,0,0-0.1,0-0.1c-0.4-0.6-0.8-1.1-1.2-1.7C66.8,136.2,66.7,135.8,66.5,135.3z"/>
		<path fill="#4E4127" d="M79.1,152.2C79.6,151.9,80.1,151.5,79.1,152.2C80.3,151.9,79.7,152.1,79.1,152.2
			C79.1,152.3,79.1,152.2,79.1,152.2z"/>
		<path fill="#B7B7B2" d="M29.4,219c-2.6-1.6-5.1-3.1-7.7-4.7c-2-1.2-4-2.3-6.3-3.7c4.4-4.7,9.4-6.4,7.9-11.8c1-0.9,2.1-1,3.3-0.3
			C27.4,205.4,32.6,211.6,29.4,219z"/>
		<path fill="#A9A9A3" d="M26.3,198.8c-1,0-2,0-3.1,0.1c1-1.6,2-3.1,3.1-4.7c0,0.5,0,1.1,0.1,1.6C27.3,196.8,27.1,197.8,26.3,198.8z
			"/>
		<path fill="#A9A9A3" d="M32.6,189.5c-1.6,0.5-3.1,1.1-4.7,1.6C29.5,190.6,31,190,32.6,189.5z"/>
		<path fill="#ADAEA9" d="M48.3,212.6c0.5,1.1,0.9,2.2,1.4,3.2C49.3,214.8,48.8,213.7,48.3,212.6z"/>
		<path fill="#817F72" d="M35.6,167.8c0.5,0.5,1,1,1.6,1.5C36.7,168.8,36.2,168.3,35.6,167.8z"/>
		<path fill="#CBCCC6" d="M26.3,198.8c0-1,0-2,0.1-3c1,0,2,0,3,0c0,0.5,0.1,1,0.1,1.5c0.5,0.5,1,1.1,1.4,1.6
			c2.4,8.3,4.8,16.6,7.9,27.5c-4.3-3.4-6.9-5.4-9.5-7.4C28.9,212.2,22.2,206.3,26.3,198.8z"/>
		<path fill="#B7B7B2" d="M30.9,198.9c-0.5-0.5-1-1.1-1.4-1.6C30,197.8,30.4,198.4,30.9,198.9z"/>
		<path fill="#827368" d="M55.9,113.5c-0.5,5.7-1,11.4-1.5,17.1c0.8,0.9,0.7,2,0.5,3.1c-1.7,3.5,1.1,7.1-0.3,10.6
			c0,0-0.6,0.3-0.6,0.3c-1.5-1.6-3-3.2-4.4-4.7c0.1-0.5,0.2-1,0.3-1.4c0.7-2.1,1.2-4.2-0.3-6.3c0,0,0,0,0,0
			C52.6,126.2,47.2,117.4,55.9,113.5z"/>
		<path fill="#A49084" d="M49.6,132.1c2.2,2,2.1,4.1,0.3,6.2C49.8,136.2,49.7,134.2,49.6,132.1z"/>
		<path fill="#A27139" d="M77.6,110.3c-1,0.5-2,1-3.1,1.5C75.5,111.3,76.5,110.8,77.6,110.3z"/>
		<path fill="#A27139" d="M69.8,79.4c-0.5,0-1,0-1.5,0C68.8,79.3,69.3,79.3,69.8,79.4z"/>
		<path fill="#A27139" d="M67,79.2c-0.6-0.6-1.2-1.2-1.7-1.8C65.8,77.9,66.4,78.6,67,79.2z"/>
		<path fill="#511800" d="M93.1,88.5C94,89.1,95,89.6,93.1,88.5C94.2,90.3,93.6,89.4,93.1,88.5C93.1,88.5,93.1,88.5,93.1,88.5z"/>
		<path fill="#B57F3F" d="M85.5,87c0.4,0.5,0.9,1,1.3,1.5c-0.4,0-0.9-0.1-1.3-0.2C85.4,87.9,85.4,87.4,85.5,87z"/>
		<path fill="#926C3A" d="M63.8,127.5c0.4,1,0.8,2.1,1.2,3.1C64.6,129.5,64.2,128.5,63.8,127.5z"/>
		<path fill="#7C6137" d="M67,136.6c0.4,0.6,0.8,1.2,1.2,1.7C67.8,137.8,67.4,137.2,67,136.6z"/>
		<path fill="#312D20" d="M54.6,144.2c-0.1-3.6-0.3-7.2-0.4-10.9c1,0.2,1.1,1.2,1.7,1.8C55.4,138.2,55,141.2,54.6,144.2z"/>
		<path fill="#30281C" d="M55.8,135.1c-0.6-0.6-1.1-1.2-1.7-1.8c0.1-0.9,0.2-1.9,0.2-2.8c0.4-0.1,0.9,0,1.3,0.1
			C55.7,132.1,55.8,133.6,55.8,135.1z"/>
		<path fill="#41290F" d="M58.4,109.9c0.2,0.9,0.2,1.3,0.3,1.7c-0.3,0-0.6,0.1-1,0.1c0,0-0.1-0.5-0.1-0.7
			C57.8,110.7,58.1,110.4,58.4,109.9z"/>
		<path fill="#989994" d="M6.2,233c-1.6,2.1-3.1,4.2-4.7,6.2c-0.5-1-1-2.1-1.5-3.1c1-1.1,0.6-2.3,0.3-3.6c-0.2-0.6-0.2-1.3-0.1-1.9
			c0.5-2.3,2.2-4.1,2.8-6.3c0.7-1.6,1.4-3.3,2.6-4.7c0.6-0.5,1.2-0.9,2-1.1c0.8-0.1,1.6,0.2,2.2,0.7C13.1,225,11.6,229.5,6.2,233z"
			/>
	</g>
</g>
</svg>
