<?xml version="1.0" encoding="utf-8"?>
<!-- Generator: Adobe Illustrator 17.1.0, SVG Export Plug-In . SVG Version: 6.00 Build 0)  -->
<!DOCTYPE svg PUBLIC "-//W3C//DTD SVG 1.1//EN" "http://www.w3.org/Graphics/SVG/1.1/DTD/svg11.dtd">
<svg version="1.1" xmlns="http://www.w3.org/2000/svg" xmlns:xlink="http://www.w3.org/1999/xlink" x="0px" y="0px"
	 viewBox="0 0 164.7 236.1" enable-background="new 0 0 164.7 236.1" xml:space="preserve">
<g id="Layer_1" display="none">
</g>
<g id="Layer_1_copy">
	<g>
		<path fill="#B6966D" d="M21.8,13.9c1.5-3.8,4.6-3.3,7.7-3c0.5,0.3,0.6,0.7,0.5,1.1c-0.1,0.4-0.3,0.6-0.4,0.5
			C29,13.3,28.4,14,27,14.3c2,0,2.2-1.9,3.3-2.5c4,0.4,7.8,1.4,10.7,4.5c1.7,5.7,4.8,10.1,11,11.3c3.2,1.5,5.8,3.6,6.7,7.2
			c0,0.7-0.1,1.5-0.3,2.2c-3.7,3.2-6.1,7.7-10.6,10.1c-1.1,0.1-2-0.3-2.8-1.2c-0.4-0.6-0.6-1.2-0.7-1.9c0-1,0.3-2,0.7-2.9
			c0.6-1.1,1-2.3,1-3.7c0.1-2.1-0.3-3.9-2.4-4.9c-1.7-1.1-3.9-1.3-5.5-2.7c-1.1-1-1.9-2.4-3.2-3.2c-1.9-1.2-3.9-1.7-5.7-0.5
			c-2.1,1.3-2,3.4-1.2,5.4c1,2.4,0.9,5,1,7.5c0.1,2.4-0.4,4.6-3.6,4.6c-1.2-0.5-1.9-1.5-2.4-2.7C20.1,32.1,20.6,23,21.8,13.9z"/>
		<path fill="#A79F8D" d="M51.3,4.6c4.2-1.5,8.3-3.1,12.5-4.6c4.6,0,7.9,3.8,12.6,3.8c2.1,0,2.1,2.4,1.3,4.2c-0.9,1.6-2,2.9-3.9,3.2
			c-1.5,0.1-2.7-0.9-4.1-0.9c-0.4,0.1-0.6,0.3-0.7,0.8c0.1,0.8,0.2,1.5,0,2.2c-0.9,2.1-2.7,3.4-4,5.1c-1.1,1.3-2.2,2.7-3.7,3.7
			c-3.1,2.3-6.3,3.8-10.3,2.8c-1.1-0.3-2.1-0.7-3-1.3c-0.9-0.6-1.7-1.3-2.5-2.1c-0.5-0.6-0.8-1.2-1-1.9c-0.1-0.7,0-1.4,0.2-2.1
			C46.8,13.2,48.9,8.8,51.3,4.6z"/>
		<path fill="#BFA480" d="M21.8,13.9c1,9.3,2.1,18.7,3.1,28c-0.9,1.1-2.1,1.5-3.5,1.6c-1.4-0.1-2.5-0.6-3.4-1.7
			c-0.7-4.4,1-8.3,2.2-12.3C20.8,24.3,21.3,19.1,21.8,13.9z"/>
		<path fill="#B4BAAF" d="M20.3,29.5c-0.5,4.1-1,8.2-1.5,12.3c-0.8,2.2-2.2,3.1-4.5,2c-0.1-0.6-0.1-1.2-0.2-1.9
			C16.1,37.8,18.2,33.6,20.3,29.5z"/>
		<path fill="#8D9089" d="M6.2,216.1c-2.7-2.6-7.8-4.1-4.6-9.6c9.7,4.3,19,9.1,28.5,13.8c0.6,0.4,1.1,1,1.4,1.7
			c0.1,2.6-2.1,2.2-2.1,2.2c0.4-0.2,1.9,0,2.4,2.3c-0.6,3.5-2.5,5-7.3,4c5.4,2.4,10.2,0.5,14.5,2.2c1.8,0.6,3.6,1.4,4.5,3.3
			c-7.7-0.1-15.4-0.1-23.1-0.2c-1-0.5-2.1-0.9-3.2-1.4c-4.3-1.7-5.8-4.8-4.8-9.3c0.7-3.2,0.5-6.2-3.1-7.8
			C8.3,217,7.3,216.5,6.2,216.1z"/>
		<path fill="#686358" d="M90.3,235.1c-0.5,0.2-1.1,0.4-1.6,0.6c0-0.4-0.1-0.7-0.2-1.1c-0.4-0.7-0.7-1.4-0.8-2.1
			c-0.4-5.3,1.5-10.4,1.9-15.6c0.1-0.7,0.4-1.4,0.7-2c1.2-2.1,3.8-2.8,4.9-5c0.5-0.5,1.1-0.8,1.8-1c0.7-0.1,1.4-0.1,2.1,0
			c3,0.8,6.6-0.5,8.8,2.9c1,3.3,0.1,6.5-0.3,9.7c-0.5,4.8-8.1,4.7-7.2,10.5c-0.6,2.3-2.2,3.2-4.5,3.3c-1.2-0.1-2.4-1-3.7-0.3
			C91.5,235.2,90.9,235.3,90.3,235.1z"/>
		<path fill="#6A675F" d="M54.5,233.2c-1,0.5-2.1,1-3.1,1.5c-1-0.7-1.4-1.8-1.5-2.9c2-5.1,1.2-11,4.4-15.8c2.3-0.9,3.3,0.7,4.4,2.2
			c1.9,2.2-0.2,6,2.9,7.7c2.6-0.3,3.7-3,6.1-3.6c3.4-0.8,6.6,0,9.6,1.7c1.8,2.7,2.9,5.8,3.9,9c-0.6,0.6-1.3,0.9-2.2,0.8
			C70.8,234,62.7,233.3,54.5,233.2z"/>
		<path fill="#6A6240" d="M51.3,231.5c0,1,0.1,2.1,0.1,3.1c-2.6,0.5-5.2,0.9-7.9,1.4c-1.6-0.5-3.1-1-4.7-1.5
			c-2.2-4.5,0.2-6.3,4.3-6.5C46.2,227.9,49.2,228.7,51.3,231.5z"/>
		<path fill="#7F7C72" d="M54.5,233.2c8.8-0.2,17.7-0.4,26.5-0.7c0.4-0.5,0.9-0.9,1.5-1.2c0.6-0.2,1.2-0.3,1.9-0.4
			c0.7,0,1.3,0.1,1.9,0.2c0.6,0.2,1.2,0.5,1.7,0.9c0.2,0.3,0.4,0.5,0.5,0.8c0,0.6-0.1,1.2-0.1,1.7C77.2,234.2,65.8,233.7,54.5,233.2
			z"/>
		<path fill="#C5C7CC" d="M18.8,234.4c0.5,0.5,1.1,1,1.7,1.5c-2.1-0.5-4.3-0.9-6.4-1.4c0.3-0.3,0.5-0.5,0.8-0.8
			C16.3,233.1,17.6,233.5,18.8,234.4z"/>
		<path fill="#C5C7CC" d="M14,234.5c-1.6-0.5-3.1-1-4.7-1.5c0,0,0.1-0.2,0.1-0.2c2.1-1.3,4-1.7,4.7,1.5L14,234.5z"/>
		<path fill="#C0C1C0" d="M20.4,146.1c0.2-5.4-5.3-5.3-7.9-7.9C-0.7,126.3,1.5,110,0.1,94.7c3.8,3,1.2,9.2,6.1,11.6
			c2.8,3.6,4.2,7.5,4,12.2c-0.5,8.8,3.6,15.3,11.1,19.7c1,0.8,1.7,1.9,2,3.1C23.4,143.6,23.4,145.8,20.4,146.1z"/>
		<path fill="#B7B7AD" d="M4.7,107.1c-6.5-2.3-4.1-7.9-4.6-12.4c0,0-0.1-0.1-0.1-0.1c1.1-0.7,0.7-2.2,1.7-3c0.5-0.5,1-1,1.5-1.5
			c0.9-0.8,0.4-2.4,1.5-3.1c1.1-2.6,2.1-5.2,3.2-7.8c1.3,0.2,2.2,0.8,2.9,1.9c1.5,4,3.1,8,1.9,12.4c-0.3,1-0.9,1.9-1.6,2.7
			c-0.5,0.5-1,0.9-1.5,1.2c-0.7,0.6-1.4,1.2-1.8,2c-0.7,1.7-0.6,3.7-1.1,5.5C6.2,105.8,5.7,106.6,4.7,107.1z"/>
		<path fill="#C3D6DC" d="M1.7,91.6c-0.6,1-1.1,2-1.7,3C0.6,93.6,1.1,92.6,1.7,91.6z"/>
		<path fill="#C3D6DC" d="M4.7,87c-0.5,1-1,2.1-1.5,3.1c0-1,0-2.1-0.1-3.1C3.7,86.9,4.2,86.9,4.7,87z"/>
		<path fill="#27231A" d="M105.6,222c0.6-3.5,1.2-7.1,1.8-10.6c0.1-0.3,0.2-0.7,0.3-1c0.4-0.6,0.8-1.1,1.4-1.6
			c2.7-1.2,5.7-4.2,7.9,0.7c-0.2,2.2-1.4,4-2.4,5.9c-4.9,5-1.2,11.6-3.4,17.1c-0.5,1-1.7,1.3-2.4,2.1c-1-0.1-2.1-0.2-3.1-0.2
			c-0.9-0.6-1.9-0.4-2.9-0.7c-1-0.4-1.7-1.1-2.2-2c-0.2-0.7-0.2-1.4,0-2C102.7,227.3,105.1,225.3,105.6,222z"/>
		<path fill="#706C68" d="M104.4,232.6c0.4,0.6,0.9,1.2,1.3,1.7c-5,2.4-10.2,1.9-15.4,0.8c0.5-0.3,1-0.6,1.6-0.9
			c0.9-0.7,1.8-0.7,2.8,0c1.6-0.9,3.2-1.9,4.8-2.8c0.5-0.5,1.1-0.6,1.7-0.1l-0.1,0C101.9,232.4,103.3,232.1,104.4,232.6z"/>
		<path fill="#706C63" d="M108.9,234.6c0.5-0.5,1.1-1.1,1.6-1.6c1-1,2-0.9,3,0c-0.1,0.4-0.1,0.9-0.2,1.3
			C111.8,234.4,110.3,234.5,108.9,234.6z"/>
		<path fill="#8C8D83" d="M20.4,146.1c0.5-1.6,1-3.2,1.5-4.8c0.8-0.9,1.9-1,3-0.7c2.2,6.1,9.2,4.8,13.1,8.1c2.5,4,4.4,7.7,2.1,12.9
			c-2.2,5.1,3.9,11.4,11.2,12.4c2.5,0.6,4.8,1.7,6.5,3.7c1.4,2.8,0.2,6.1,1.4,9c0.3,2.3-0.2,4.2-2,5.8c-2.7,1.9-5.1-0.2-7.6-0.7
			c-1.3-0.3-2.3-1-3.1-2c-0.6-0.7-1.2-1.4-1.9-2c-0.5-0.4-0.9-0.9-1.2-1.4c-1-1.2-1.7-2.6-2.5-3.9c-0.4-0.4-0.8-0.9-1.2-1.4
			c-0.4-0.5-0.7-1-1.1-1.5c-0.5-0.8-1-1.5-1.6-2.3c-0.4-0.5-0.8-1-1.1-1.5c-1.9-2.2-3.7-4.5-5.5-6.8c-2-3.1-7.1-3.1-7.6-7.6
			c0-1.4,0.9-2.2,2-2.8c-1.5-0.2-1.5,1.1-2.1,1.8c-0.2,0.7-0.6,1.2-1.2,1.5c-1.1-0.2-2.1-0.5-1.2-2
			C20.3,155.3,20.3,150.7,20.4,146.1z"/>
		<path fill="#A6A7A2" d="M23.3,161.4c3.1,2.1,6.2,4.2,9.3,6.3c-1.1,1.9-4.4,2.2-3.7,5.2c0.2,0.6,0.5,1.2,0.7,1.7
			c0.4,0.8,0.7,1.7,1.3,2.4c0.4,0.5,0.8,1,1.1,1.5c0.9,1,1.9,1.8,2.7,2.9c1.4,2.4,3.5,4.5,2.5,8c-5.2,2.2-7.4-2.9-11.2-4.9
			c-2.1,3.3,4.8,8.5-2.1,10.6c-3.9-0.2-7.4-2.5-11.3-2.8c-1.1-0.4-2-0.9-2.5-2.1c0.3-3,1.5-5.8,2.2-8.7l0,0c0.9-0.8,0.6-2.3,1.5-3.1
			c1.6-4.1,3.2-8.2,4.8-12.3c0.5-1.8,1.4-3.3,2.8-4.4c0.1-0.4,0.2-0.8,0.3-1.1C22.6,160.5,23.1,160.8,23.3,161.4z"/>
		<path fill="#9A9A94" d="M10.9,190.9c1,0,2,0.1,3,0.1c5.1,3.5,3.2,9.5,4.9,14.1c0.2,4.3-1.4,7.1-6.2,6.5c-5.5-0.7-8.3-5-8.1-11.6
			c1.5-3.1,3.1-6.2,4.6-9.3C9.8,189.9,10.4,190,10.9,190.9z"/>
		<path fill="#A8A9A4" d="M4.6,200.1c1.3,5.1,4.3,8.8,9.4,9.8c3.4,0.7,2.8-2.6,3.1-4.8c0.3-0.2,0.6-0.3,1-0.5
			c5.9,2.5,6.9,9,10.9,13.1c0.8,1.3,1.4,2.6,0.6,4.2c-9.8-4.3-20.6-6.8-28-15.3c-0.1-0.5-0.2-1.1-0.2-1.6
			C2.4,203.3,3.5,201.7,4.6,200.1z"/>
		<path fill="#D7DCE1" d="M21.7,161.8c-0.9,1.5-1.9,3-2.8,4.4c0.5-2.1,0.9-4.2,1.4-6.4C20.7,160.5,21.2,161.2,21.7,161.8z"/>
		<path fill="#B1B3B1" d="M10.9,190.9c-0.6,0-1.1-0.1-1.7-0.1c1.1-3.1,2.2-6.1,3.3-9.2C12,184.8,11.4,187.8,10.9,190.9z"/>
		<path fill="#B1B3B1" d="M14,178.6c-0.5,1-1,2.1-1.5,3.1C13,180.6,13.5,179.6,14,178.6z"/>
		<path fill="#B3B6BA" d="M14.1,234.3c-1.6-0.5-3.1-1-4.7-1.5c-4.7-5.1,6.8-10.3-0.1-15.4c8.8,2.5,1.5,14,9.4,17
			C17.2,234.4,15.7,234.3,14.1,234.3z"/>
		<path fill="#AB906A" d="M118.3,4.7c1.4,1,2.9,2.1,4.3,3.1c1.9,2.9,1.6,7.2,5.5,8.8c6.2,5.8,7.5,10,4.9,16.9
			c-1.2,1.3-3.1,0.4-4.3,1.4c-0.4,0.8-0.5,1.7-0.5,2.6c-0.1,2,0,3.9-0.3,5.9c-0.1,0.7-0.4,1.4-0.7,2c-0.7,1.3-1.5,2.5-3,3.1
			c-0.7,0.1-1.5,0-2.2-0.3c-1.6-1-2.9-2.3-3.4-4.2c1.9-8.8,0.3-17.4-1.1-26c-0.1-0.7-0.1-1.8-0.8-1.8c-1.3-0.1-1,1.3-1.3,2
			c-2,4.6-4.9,8.2-10.2,9c-4.5-2.2,0.4-6.7-2.4-9.3c-0.7-1.2-1.2-2.5-0.9-4c1-2,3.1-2.8,4.6-4.2c0.6-0.4,1.2-0.8,1.8-1.1
			C111.5,6.8,115.4,7,118.3,4.7z"/>
		<path fill="#BCB6A7" d="M80.8,7.7C86,5.6,91.2,3.6,96.4,1.5c1.6,0,3.1,0,4.7,0c0.9,0.9,1,1.9,0.7,3.1c-3.6,3.7-7,7.5-12.3,8.9
			c-3.7,0.1-5.3-3.4-8.1-4.8C81.1,8.3,81,8,80.8,7.7z"/>
		<path fill="#C7BEAF" d="M101,4.7c0-1.1,0-2.1,0-3.2c5.1,4.7,11.2,3.8,17.3,3.2c-3.2,2-6.4,4-9.5,6c-1.3-1.3-2.7,0.2-4.1-0.2
			c-0.7-0.2-1.4-0.5-2-0.9C101.2,8.3,100,6.9,101,4.7z"/>
		<path fill="#C7BAA7" d="M127.2,17.1c-5.5-1.1-4.2-5.6-4.7-9.3c0.6,0,1.1,0,1.7,0c1.6,3,3.2,6.1,4.9,9.1
			C128.5,17.8,127.9,17.9,127.2,17.1z"/>
		<path fill="#CBA97C" d="M46.7,46.6c3.9-2.8,4.2-9.9,11-9.4c0.5-0.5,1-0.9,1.5-1.4c0.6-0.4,1.2-0.7,1.9-0.8
			c1.4-0.5,2.7-1.1,4.2-1.3c1.5-0.2,3.1-0.2,4.6-0.2c4.8,0.1,9.5-0.3,14.3,0.3c6.9,2,12.7,6.5,19.6,8.5c0.7,0.1,1.4,0.3,2.1,0.7
			c0.5,0.5,0.9,1.2,1.1,1.9c-1.3,4.2-0.3,9.2-4.2,12.6c-2,0.9-4.1,1.1-6.3,1c-1-0.1-2.1,0.2-3.1,0.1c-2.4-0.6-4.5-1.6-5.9-3.7
			c-0.8-2.5-0.5-5.6-3.9-6.4c-5.1-4.3-9.9-3.9-15.8,1.4c-1.1,1-2.9,0.5-3.9,1.9c-0.3,2.4,1.9,4.5,0.8,7c-0.4,0.7-0.8,1.2-1.5,1.6
			c-1.7,1-3.5,1.1-5.4,1c-1.5,0-2.9,0.5-4.3,0.3c-2.5-0.3-5.2,0.2-6.8-2.5c-1.9-3.3-3.7-1.1-5.5,0.1c-2.1,1.2-4.3,1.8-6.7,1.3
			c-1.5-0.5-3.1-1-4.4-1.9c-1-0.8-1.6-1.8-2-3c-0.3-2.5,0.1-4.7,3.2-5.2c1.8,0,2.9,1.8,4.6,2c1.9-0.7,3.1-2.3,4.2-3.8
			c0.4-0.6,0.9-1,1.5-1.4C43.1,46.2,44.9,46.6,46.7,46.6z"/>
		<path fill="#BFA480" d="M26.4,43.5c-0.1-3.3,0.1-6.6-0.4-9.9c-0.6-3.8-2.9-8.2,2.3-9.9c4.9-1.6,9.3-0.3,10.7,5.7
			c-0.2,0.3-0.4,0.6-0.6,0.9c-4.1,1.5-6.7,3.9-6.5,8.7c0.1,2.5-0.8,5-3.5,6.1C27,45.3,26.2,45,26.4,43.5z"/>
		<path fill="#988260" d="M26.4,43.5c0.5,0.5,1.1,1,1.6,1.6c0.3,0,0.7,0,1,0c0.7,0,1.3,0.1,2,0.4c1.9,1.2,3.1,2.6,2.4,5
			c-0.2,0.2-0.5,0.5-0.7,0.7c-3.1,0.3-2.8,2.7-3.1,4.8c-1.9,0.5-3.5,1.6-5.5,1.9c-3.6-4.9-8.4-9.6-2.2-15.9c1,0,2.1,0,3.1,0
			C25.4,42.5,25.9,43,26.4,43.5z"/>
		<path fill="#5F492A" d="M60.6,36.9L59.8,37L59.1,37c-0.6-0.3-1.1-0.7-1.5-1.3c-2.1-2.1-4.2-4.2-6.2-6.3c-3.5-1.2-6.5-3-7.9-6.6
			c-0.6-1.5-0.6-3.1,1.9-2.9c0.4,0.1,0.8,0.3,1.2,0.5c0.6,0.3,1.2,0.7,1.6,1.3c0.5,0.5,1.1,1,1.6,1.5c3.2,1.3,7.2,0.9,9.2,4.5
			c1.1,2.1,3,3.8,3.8,6.1C63,35.5,62,36.4,60.6,36.9z"/>
		<path fill="#B59A7D" d="M39,29.4c2,0.5,4.1,1.1,6.1,1.6c0.7,4.2,2.7,8.3,0,12.5c0,0.5,0,1,0,1.4c-0.6,1.4-2.1,2-3,3l-0.1,0.3
			c-0.8,0.3-1.6,0.2-2.2-0.4c-1.8-6.1-5.4-12-0.9-18.4L39,29.4z"/>
		<path fill="#816845" d="M45.3,19.9c-2,5.7,3.8,6.4,6,9.5c-6.3-1.6-12.7-3.3-10.7-12.2c0.9,0,1.8,0,2.8,0.1
			c0.7,0.2,1.2,0.9,1.8,1.2c0,0,0.2,0,0.2,0C45.3,19,45.3,19.4,45.3,19.9z"/>
		<path fill="#CCAF8E" d="M45.1,43.5c4.4-4.2-9-8.3,0-12.5c3.4,1.7,3.2,4.7,3,7.7c-0.9,0.9-0.5,2.3-1.5,3.1
			C46.1,42.4,45.6,43,45.1,43.5z"/>
		<path fill="#B68750" d="M29.6,12.3c2.8,6.8-5.8,2-5.5,6.2C23,13.5,25.7,12.4,29.6,12.3C29.6,12.3,29.6,12.3,29.6,12.3z"/>
		<path fill="#AB906A" d="M42.1,48c1-1,2-2,3-3c0.5,0.5,1,1,1.6,1.6C45.1,47,43.6,47.5,42.1,48z"/>
		<path fill="#CBA97C" d="M46.7,41.9c0.5-1,1-2.1,1.5-3.1C47.6,39.8,47.1,40.8,46.7,41.9z"/>
		<path fill="#76624E" d="M57.6,35.7c0.5,0.4,1,0.8,1.5,1.3c0,0-0.7,0.2-0.7,0.2s-0.7,0-0.7,0C57.6,36.7,57.6,36.2,57.6,35.7z"/>
		<path fill="#BEB39F" d="M76.1,7.7c1.6,0,3.2,0,4.7,0c0,0,0,0,0,0c2.4,2.2,4.9,4.1,7.8,5.8c0.5,0.6,0.7,1.3,0.6,2
			c-0.5,1.5-1.5,2.5-2.6,3.6c-6.3,3.7-12.5,7.4-20,2.9c-1.9-1.1-3.5-2.3-2.9-4.8c1.6-1.6,3.1-3.2,4.7-4.8c0.3-0.5,0.6-1,1.1-1.3
			c0.8-0.4,1.6-0.6,2.5-0.6c0.3,0,0.6,0.1,0.9,0.1C73.9,9.6,75,8.7,76.1,7.7z"/>
		<path fill="#76624E" d="M57.7,29.5c-2.6-2.1-5.3-4.2-7.9-6.3c3.6-1,7.2-2,10.8-3c1.8,0.7,3.9,0.3,5.5,1.8c1.3,1,2.9,1.3,4.5,1.9
			c3.4,0.8,7.9-0.9,9.3,4.3c-0.1,2.1-1.5,3.2-3.2,3.9c-4.2-0.4-7.9,2.2-12.2,1.7c-0.7-0.3-1.3-0.6-1.8-1.1
			C61.7,30.5,59.6,30.1,57.7,29.5z"/>
		<path fill="#8D7C68" d="M79.2,27.8c-3.1-1-6.3-2.1-9.4-3.1c-1.4-0.9-3.1-1-4.6-1.5c-1.5-1-3.1-2-4.6-3c1-1,2-2,3.1-3
			c7.3,7,14.6,4.6,21.8-0.2c2.1,1.9,1.7,4,0.8,6.3c-0.3,0.7-0.7,1.3-1.2,1.9C83.4,26.8,81.4,27.4,79.2,27.8z"/>
		<path fill="#928772" d="M63.1,15.9c-3.9-2-5.5-2.9-8.3-4.3C59.7,8.6,61.1,10.2,63.1,15.9z"/>
		<path fill="#857C67" d="M69.8,12.3c-0.5,0-1,0-1.5,0.1c-0.5-1-1-2-1.5-3l0,0c2.2-0.8,4.9-3.6,5.9,1.3c0,0,0.1,0.1,0.1,0.1
			C72.2,11.8,70.7,11.4,69.8,12.3z"/>
		<path fill="#C2B8A2" d="M66.9,9.3C65.7,9.3,64.6,9.3,66.9,9.3C64.8,8.4,65.8,8.9,66.9,9.3C66.9,9.3,66.9,9.3,66.9,9.3z"/>
		<path fill="#76766A" d="M63.2,4.8C62.8,5,62.4,5.2,62,5.3c-0.1-0.2-0.2-0.6-0.2-0.6c0.3-0.2,0.7-0.4,1.1-0.6
			C63,4.3,63.1,4.6,63.2,4.8z"/>
		<path fill="#816845" d="M48.2,21.7c-0.5-0.4-1.1-0.8-1.6-1.3C47.1,20.9,47.6,21.3,48.2,21.7z"/>
		<path fill="#A39A89" d="M9.3,80.8c-0.5-0.5-0.9-1-1.4-1.6c0,0,0,0,0,0c3.2-3.6,0.7-8.7,3.1-12.5c0-5.1,0-10.3,0-15.4
			c0.4-0.6,0.9-1.2,1.5-1.7l0,0c0.4-0.5,1-0.8,1.7-0.8c2,0.4,3.4,1.4,3.9,3.4c0,1,0.9,1.1,1.6,1.4c2.5,1.8,1.6,3.7,0.3,5.6
			c-1.8,1.7-2.1,3.7-0.7,5.8c-1.9,6.1,0.5,13.4-5.4,18.2C11.6,83.8,10.4,82.3,9.3,80.8z"/>
		<path fill="#958C78" d="M18.5,59.1c0.9-2,2.5-4.2-1.4-4.8l0,0c-1-1.6-2.1-3.1-3.1-4.7c-1.2-1.7,1.4-3.2,0.2-4.9c0-0.3,0-0.6,0-0.9
			c1.5-0.7,3-1.4,4.5-2c1,0.1,2.1,0.1,3.1,0.2c-2.4,5.8,1.1,10.5,3,15.5c1.9,1.4,1.9,3.1,1.2,5.1c-0.7,1-1.6,1.6-2.8,1.4
			c-1.7-0.7-3.4-1.4-4.6-2.8C18.2,60.4,18.2,59.7,18.5,59.1z"/>
		<path fill="#B7B7AD" d="M11,66.7c-1.2,4.1,2.7,9.5-3.1,12.5C8.3,74.9,7,70.2,11,66.7z"/>
		<path fill="#B4BAAF" d="M14.2,44.7c-0.1,1.6-0.1,3.3-0.2,4.9c-0.5,0-1,0-1.5,0.1C13.1,48,13.7,46.4,14.2,44.7z"/>
		<path fill="#B4BAAF" d="M12.5,49.7c-0.5,0.6-1,1.1-1.5,1.7C11.5,50.8,12,50.2,12.5,49.7z"/>
		<path fill="#B9B6A7" d="M127.2,17.1c0.6-0.1,1.2-0.1,1.9-0.2c1.5,0.5,3.1,1.1,4.6,1.6c0.5,0.5,1,1,1.5,1.5l0.1,0.1
			c0.5,0.5,1,1,1.5,1.5c0,1,0.1,2.1,0.1,3.1c0.7,4.4,5.1,4.1,7.7,6.2c1.2,1.1,1.4,2.4,0.8,3.8c-2.9,3.3-6.6-0.6-9.7,1
			c-1.1,0-2.1-0.3-3-0.9c-0.2-0.3-0.4-0.6-0.6-0.8C133.1,27.7,130.6,22.3,127.2,17.1z"/>
		<path fill="#B6966D" d="M45.2,18.5c-0.6-0.4-1.2-0.8-1.8-1.2C44,17.7,44.6,18.1,45.2,18.5z"/>
		<path fill="#C0CBCD" d="M135.2,20.1c-0.5-0.5-1-1-1.5-1.5C134.2,19.1,134.7,19.6,135.2,20.1z"/>
		<path fill="#C0CBCD" d="M136.7,21.7c-0.5-0.5-1-1-1.5-1.5C135.7,20.7,136.2,21.2,136.7,21.7z"/>
		<path fill="#7D7E71" d="M51.3,231.5c-3.8,2.5-10.5-7.2-12.5,3c-7.3,0.5-14.1,0-19.1-7.2c3.9-0.8,8.2,5.2,11.4-0.6
			c3.7-3,8.8,1.4,12.3-2.4c0.6-0.4,1.2-0.7,1.9-0.9c4.9-0.3,3.5-6.4,7.2-7.8c0.4,0,0.7-0.1,1.1-0.1c0.3,0.2,0.6,0.3,0.9,0.5
			C54.6,221.3,54.9,226.8,51.3,231.5z"/>
		<path fill="#A4A396" d="M43.6,225.3c-3.5,6.7-8.3,1.4-12.5,1.4c-1-0.7-1.9-1.4-3-2.2c1-0.8,2-1.6,3-2.4c0.4-0.5,0.9-0.9,1.5-1.1
			c0.6-0.1,1.2,0,1.9,0.1c0.6,0.2,1.1,0.5,1.7,0.8c1,0.7,2.3,0.9,3.5,1c1.3,0.1,2.5,0.5,3.5,1.4C43.3,224.7,43.5,225,43.6,225.3z"/>
		<path fill="#B7B6B4" d="M32.7,221.9c-0.5,0.1-1.1,0.1-1.6,0.2c-0.5-0.1-1-0.2-1.5-0.3c-0.5-1-1-2-1.6-2.9
			C31.2,217.4,32.7,218.5,32.7,221.9z"/>
		<path fill="#8F8E84" d="M91.8,214.4c0,0.5,0,1-0.1,1.4c-1.4,1-2.5,0.2-3.5-0.7c-0.3-2.7-2.5-1.4-3.9-1.8
			c-3.6-6.8-5.4-13.9-2.9-21.5c4.9-2,2.6,2.4,3.4,4.1c-0.4-3.7,1.2-5.6,4.8-6.1c0.7,0.1,1.4,0.3,2,0.7c0.5,0.6,0.5,1.3,0.6,0.7
			c0.2-1.9,1-4.9,5.5-4c1.8,0.8,2.3,2.7,3.1,4.3c0.6,0.9,0.9,2,0.9,3.1c-0.5,3.4-6.1,2.9-5.7,7.1c-0.5,1.2-1.6,1.8-2.5,2.8
			c1.4-0.8,2.5-0.5,3.4,0.5c0.5,1,0.5,2,0.1,3C95.1,209.9,93.8,212.4,91.8,214.4z"/>
		<path fill="#767569" d="M96.3,208c0-1,0-2,0-3c-0.5-0.6-0.9-1.3-1-2.1c0.1-0.4,0.2-0.8,0.3-1.1c0.2-0.4,0.3-0.7,0.5-1.1
			c0.3-0.8,0.6-1.4,1.2-2c4.7-1.8,9.2-4.9,14.6-3.2c2.7,3.2,0.8,5.8-1,8.5c-2.5,1.8-1.6,5.3-3.5,7.4c0,0,0,0,0,0
			c-2.9-2.2-7.3,3.8-9.5-1.8c0.5-0.5,0.9-1,1.2-1.5c-0.4,0.6-0.8,1.1-1.2,1.5c-0.5,0-1,0.1-1.5,0.1c-0.5-0.3-0.7-0.7-0.6-1.1
			C95.9,208.2,96.1,208,96.3,208z"/>
		<path fill="#5A534B" d="M101.2,231.2c-0.6,0-1.2,0.1-1.7,0.1c-6-8.4,5.1-5.6,6.1-9.3C106.1,226.1,105.5,229.5,101.2,231.2z"/>
		<path fill="#7F7C72" d="M88.7,214.2c1,0.5,2,1,3,1.6c-1,5.7-2.1,11.4-3.1,17.1c0,0,0,0,0,0C85,226.7,84.8,220.5,88.7,214.2z"/>
		<path fill="#7F7C72" d="M96.3,208c0,0.6,0.1,1.1,0.1,1.7c0.3,3.4-0.2,6-4.6,4.7C90.8,210.5,92.7,208.7,96.3,208z"/>
		<path fill="#5A534B" d="M94.6,234.2c-0.9,0-1.8,0-2.8,0c0.5-0.7,0.9-1.4,1.4-2.1C93.7,232.9,94.2,233.5,94.6,234.2z"/>
		<path fill="#716E62" d="M77.7,225.2c-3.7-0.5-7.3-1-11-1.5c-2.5,0.6-3.7-1-4.7-2.9c-0.4-5.1-1.7-10-2.5-15c0-0.8,0.2-1.5,0.5-2.2
			c0.8-0.9,1.8-1.2,3-1.1c2.4,0.8,4,2.8,5.9,4.3c0.5,0.5,0.9,1.1,1.3,1.7c0.9,1.8,0.7,3.9,0.9,5.5c3.2,2.1,6.8,1,9.7,2.8
			c0.5,0.5,0.8,1.2,0.9,1.9C80.5,220.9,81.8,224.6,77.7,225.2z"/>
		<path fill="#5B5A4E" d="M77.7,225.2c1-2.1,2-4.2,2.9-6.4c3.3,3.7,4.7,7.6,1.2,12c-0.4,0.2-0.7,0.4-1.1,0.6
			C75.6,231.4,75.8,228.7,77.7,225.2z"/>
		<path fill="#4E4B3F" d="M63.7,220.4c1,1.1,2,2.1,3.1,3.2c-0.2,4-2.9,5.3-6.3,6c-1.9-3.2-2.3-6.3,0.8-9
			C62,220.2,62.8,220.1,63.7,220.4z"/>
		<path fill="#211E15" d="M62.5,220.6c-0.7,3-1.3,6-2,9.1c-5.8-2.1-1.3-7.3-3.1-10.5c-0.3-0.4-0.5-0.8-0.4-1.2
			c0-0.4,0.1-0.6,0.2-0.6c2.5-1.1,3.7,0.7,4.9,2.4C62.2,219.9,62.4,220.3,62.5,220.6z"/>
		<path fill="#313128" d="M57.6,217.4c-0.1,0.6-0.1,1.2-0.2,1.7c-1-1.1-2-2.2-3-3.2c0,0,0,0,0,0c-0.5-0.6-0.8-1.2-0.7-2
			c1.2-2.4,2.9-1.7,4.7-0.8c0.6,0.5,1,1.1,1.1,1.9C59.4,216.1,58.7,216.9,57.6,217.4z"/>
		<path fill="#5B5A4E" d="M82.4,232.5l-0.7,0.1c0,0-0.7-0.1-0.7-0.1c-0.1-0.4-0.2-0.8-0.2-1.1c0,0,0.1-0.1,0.1-0.1
			C82.1,230.9,82.4,231.4,82.4,232.5z"/>
		<path fill="#5B5A4E" d="M88.7,214.2c0,6.2,0,12.5-0.1,18.7c-1-0.1-2-0.1-3.1-0.2c-1.1-0.5-2.1-1-2.6-2.2c0.1-4.2-0.4-8.3-1.1-12.4
			c0.1-3.4,3.6-3.5,5.1-5.5c0.4-0.4,0.8-0.9,1.2-1.3C88.3,212.3,88.5,213.3,88.7,214.2z"/>
		<path fill="#4D4A3D" d="M82.3,217.5c0.6,4.7,1.1,9.3,1.7,14c0.4,0.4,0.5,0.7,0.2,0.9c-0.2,0.1-0.4,0.2-0.6,0.2
			c-0.4,0-0.8,0-1.3-0.1c-0.5-0.4-1-0.8-1.5-1.2c-0.1-4.2-0.1-8.3-0.2-12.5c0.1-0.5,0.1-1,0.1-1.5c-0.1-0.8,0.2-1.6,1-1.5
			C82.5,215.9,82.7,216.8,82.3,217.5z"/>
		<path fill="#6A675F" d="M83.7,232.6c0.2-0.4,0.3-0.7,0.4-1.1c0.5,0.4,1,0.8,1.5,1.3C84.9,232.7,84.3,232.6,83.7,232.6z"/>
		<path fill="#B2AA9D" d="M4.7,107.1c0-1,0-2,0-3.1c6.1-2.8,7.5,3.1,10.7,5.7c1.6,1.5,3.4,2.9,4.2,5c0.5,5-2.6,7.9-6.2,10.4
			c1.8,3.5,4.9,5.9,6.9,9.1c0.7,1.8,1.2,3.6,0,5.3c-9.7-4.1-12.7-11.8-12.6-21.8C7.7,114.3,5.7,110.7,4.7,107.1z"/>
		<path fill="#9A8E7D" d="M20.3,139.7c-0.5-1.5-1.1-3.1-1.6-4.6c1.4-1.5,3.1-1.8,5-1.4c5.2,1.2,10.2,3.2,15.7,1.7
			c1.4-0.4,2.9,0.8,3.1,2.7c-1.9,5.6-6.2,7.4-11.7,7.1c-0.8,0-1.6-0.1-2.4-0.3c-1.7-0.6-2.5-1.9-3.3-3.4c-1.1,0-2.1-0.1-3.2-0.1
			C21.3,140.7,20.8,140.2,20.3,139.7z"/>
		<path fill="#AEA391" d="M9.3,80.8c1.6,0.5,3.2,1,4.8,1.5c0.4,0,0.7,0,1.1,0.1c0.7,0.1,1.5,0.3,2.2,0.6c0.4,0.1,0.7,0.3,1.1,0.4
			c4.6,2.8,5,6.4,2.1,10.7c-2.8,1.9-5.4,4.5-9.1,1.6c-0.2-0.3-0.4-0.7-0.5-1C10.3,90,9.8,85.4,9.3,80.8z"/>
		<path fill="#9F9889" d="M14,111.7c-3.1-2.6-6.2-5.1-9.3-7.7c0-2.6,0.1-5.2,0.1-7.8c1-1,2-0.9,3-0.1c0.5,0,1,0,1.5,0
			c0.6-0.6,1.3-0.6,2-0.2c1.3,1,1.7,2.5,1.9,4c0.6,2.1,1.3,4.3,1.6,6.5C15.4,108.4,15.7,110.2,14,111.7z"/>
		<path fill="#AEA391" d="M7.8,96.2c-1,0-2,0-3,0.1C5.8,96.3,6.8,96.2,7.8,96.2z"/>
		<path fill="#AEA391" d="M10.9,96.3c-0.5,0-1.1,0-1.6-0.1c0.5-0.5,1-1.1,1.5-1.6c0,0,0.2,0.2,0.2,0.2c0.3,0.3,0.4,0.7,0.3,1
			C11.2,96.1,11.1,96.3,10.9,96.3z"/>
		<path fill="#5D4D3F" d="M113.4,232.9c-1,0-2,0-3,0c-1.3-6.6-3-13.3,2.8-18.8c0.3,0.2,0.6,0.4,0.9,0.5c2.5,3.3,7.3,5.6,5.4,11.1
			c4.7,0.9,9,0.6,12.6-2.9c1.8-1.8,3.6-1.6,4.8,1c1,3.4,1.1,6.5-2.2,8.9c-4,0-8-0.1-12-0.1C119.6,232,116.5,231.6,113.4,232.9
			L113.4,232.9z"/>
		<path fill="#515349" d="M149,198.8c1.1,4.2,2.4,8.5-1.5,12.1c-0.5,0.6-1.1,1.1-1.6,1.7c-0.4,0.6-0.8,1.1-1.5,1.4
			c-0.4,0.2-0.7,0.4-1.1,0.5c-0.8,0.1-1.4,0.6-1.8,1.3l0,0c-0.5,0.5-0.9,1-1.3,1.6c-0.3,0.2-0.6,0.4-0.9,0.6c-0.7,0.2-1.4,0.2-2.1,0
			c-0.7-0.4-1.1-0.9-1.3-1.6c0-0.7,0.1-1.5,0.3-2.2c2.1-4,4.6-7.7,4.2-12.8c-0.3-3.8,1.7-7.6,6.6-7.8
			C149.2,195.1,147.7,197.4,149,198.8z"/>
		<path fill="#706C63" d="M113.4,232.9c3-2.5,6.1-2.1,9.3-0.3C119.6,232.7,116.5,232.8,113.4,232.9z"/>
		<path fill="#77796E" d="M144.4,214.1c0.5-0.5,1-1,1.5-1.4C145.4,213.1,144.9,213.6,144.4,214.1z"/>
		<path fill="#77796E" d="M141.5,215.9c0.6-0.4,1.2-0.9,1.8-1.3C142.7,215,142.1,215.5,141.5,215.9z"/>
		<path fill="#77796E" d="M140,217.5c0.5-0.5,1-1,1.5-1.6c-0.1,0.5-0.1,1-0.1,1.5C141,218,140.5,218,140,217.5z"/>
		<path fill="#959C98" d="M140,217.5c0.5,0,0.9-0.1,1.4-0.1c-0.5,0.6-0.9,1.1-1.4,1.7c-0.2-0.3-0.4-0.5-0.7-0.8
			C139.5,218,139.7,217.7,140,217.5L140,217.5z"/>
		<path fill="#959C98" d="M140,219.1c-0.5,0.5-1,1-1.5,1.6c0,0-0.5-0.5-0.5-0.5c-0.2-0.6-0.1-1.2,0.3-1.7c0.6-0.3,1.2-0.1,1.6,0.4
			L140,219.1z"/>
		<path fill="#56554B" d="M108.7,203.4c1.1-2.6,2.1-5.1,3.2-7.7c0-0.4,0.1-0.7,0.1-1.1c0.3-0.7,0.8-1.3,1.3-1.7
			c5.1,0.7,5.1,0.7,3.9,9.1c2.7,0.9,6.9,1.4,4,6.1c-0.7,0.9-1.6,1.6-2.7,1.9c-0.4,0-0.8,0-1.1,0.1c-0.3-0.2-0.7-0.4-1-0.6
			c-3.2-2.4-5.1,1.1-7.6,1.6C107.6,208.6,106.8,206,108.7,203.4z"/>
		<path fill="#686358" d="M108.7,203.4c0,2.6,0,5.2,0,7.8c-0.4,0.2-0.9,0.3-1.3,0.2C107.7,208.7,103.1,205.2,108.7,203.4z"/>
		<path fill="#56554B" d="M113.2,214.2c1.1-1.6,2.1-3.1,3.2-4.7c0,0,0.4,0.3,0.4,0.3c1.3,3.1,0.1,4.5-3.1,4.6
			C113.6,214.4,113.2,214.2,113.2,214.2z"/>
		<path fill="#5A534B" d="M104.4,232.6c-1.1-0.5-2.2-0.9-3.3-1.4C102.2,231.7,103.3,232.1,104.4,232.6z"/>
		<path fill="#B6B5B0" d="M23.4,194c3.5-5.4-2.9-9.5-2-15c6.9,0.1,8.5,7.7,15,10.1c-1.5-3-2.6-5.2-3.7-7.5c-0.4-0.4-0.6-0.8-0.6-1.2
			c0-0.5,0.1-0.7,0.2-0.7c1.7-1.9,3.8-2.1,6.1-1.9c0.7,0,1.4,0.2,2,0.7c0.1,0.4,0.2,0.9,0.2,1.3c1,1.3,0.7,3,1.4,4.4
			c0.5,1.4,1.7,1.9,3.1,2.1c0.5,0,1,0,1.5,0.1c0.6,0.3,1,0.8,1.2,1.4c0.5,1.1,1.1,2.2,1.6,3.2c1.8,1,3.2,2.4,3.8,4.5
			c-0.7,7.9-5,11.1-14.6,10.9c-0.7-0.3-1.3-0.7-1.8-1.3c-3-4.3-7.8-5.6-12.2-7.8c-0.6-0.4-1.1-0.9-1.6-1.5c-0.1-0.4-0.1-0.7-0.2-1.1
			C23,194.7,23.2,194.4,23.4,194z"/>
		<path fill="#A7A8A1" d="M57.5,186.3c-1.1-1-2.2-2.1-3.3-3.1c1.1-1.5,2.2-3.1,3.2-4.6c3.5-1.9,7.4-1.9,11.2-2.3
			c1.2-0.2,2.4-0.2,3.6-0.7c0.4-0.4,0.7-0.9,1-1.4c0.2-0.6,0.4-1.1,0.7-1.7c0.8-2.4,1.7-4.8,1.5-7.4c-0.5-3.9-1.3-7.8-0.4-11.8
			c-0.1-2.8,0.3-5.5,2.5-7.5c7.5-2.6,8.9-1.9,8.5,5.6c-0.2,3.7,1.8,7,1,10.7c-1.6,5,0.4,10.4-1.4,15.4c-2.7,1.6-5.4,3.1-3.9,7
			c-0.1,1.5-0.1,3.1-0.4,4.6c-0.2,0.8-0.6,1.5-1.1,2.2c-0.5,0.6-1.2,1.1-1.9,1.5c-1.7,0.6-3.4,0.9-5.1,1.6
			C64.3,197.8,59.9,195.5,57.5,186.3z"/>
		<path fill="#B2B3AC" d="M70,178.5c-4.2,0-8.4,0.1-12.5,0.1c-2.1-1-4.1-2.1-6.2-3.1c-11.9-6.6-15.1-23.2-6.5-33.6
			c1.1-0.5,2.2-0.7,3.5-0.7c4.6,1.4,9.3-1.5,13.9,0.4c3.5,1,7.1,0.3,10.6,0.6c1.6,0.1,3.2,0.2,4.5,1.2c0.6,0.5,0.9,1.2,1,1.9
			c-6,8-13.7,6.4-21.4,3.8c0.1,0-0.3-0.2-0.2-0.2c0.2,0,0.2,0.2,0.3,0.2c0.5,0,0.8,0,1.2,0c1.2,0.1,2.1,0.6,2.9,1.4
			c0.6,3.9-1.6,5.7-4.9,6.6c-1.7,0.5-3.6,0.5-4.2,2.7c-2,6.2,3.1,7.8,6.7,10.5C62.5,173.2,68.5,172.7,70,178.5z"/>
		<path fill="#9B9A91" d="M57.5,186.3c5.1,11.5,14.2,4.6,21.8,4.7c1,1.6,0.3,3.3,0.3,5c-0.4,2,0.7,3.9,0.4,5.9
			c-0.3,1.4-1.1,2.5-2.2,3.5c-0.5,0.5-1.1,0.9-1.7,1.2c-2.5,1-4.8,2.8-7.7,1.5l0,0c-1.2-1.9-3.6-2.6-4.8-4.5c-1-0.1-1.9-0.2-2.9-0.2
			c-3.2-2.8-5.7-6-4.8-10.7C56.5,190.5,57,188.4,57.5,186.3z"/>
		<path fill="#9D9E95" d="M45.2,142.9c-4,12-3.3,23.1,6.1,32.6c-14,3.8-11-10.3-18.3-15.8c3.5-0.4,5.1-0.6,6.4-0.8
			c-0.7-3.5-1.3-6.7-2-9.8c-0.6-4.4,2.5-5.9,5.8-7.1C44,142,44.7,142.4,45.2,142.9z"/>
		<path fill="#515048" d="M55.9,192.6c1.6,3.6,3.2,7.1,4.8,10.7c0,0.5-0.1,1.1-0.1,1.6c-0.7,3,1.4,6.7-1.9,9.2
			c-1.5,0.1-2.9,0.2-4.4,0.3c-0.3,0.2-0.6,0.5-0.8,0.7c-0.4,0-0.7,0-1.1,0c-0.7,0-1.4-0.2-2.1-0.4c-0.3-0.1-0.7-0.3-1-0.4
			c-2.3-1.4-5.5-1.9-6.1-6.3c5.8-1.7,14.1-2.7,8.2-12.3c-0.7-1.4-1.3-2.9-2-4.3C52.6,187.1,53.6,193,55.9,192.6z"/>
		<path fill="#6F6E61" d="M43.6,142.8c-2.1,2.1-4.2,4.2-6.3,6.2c-5.3-0.7-12.5,1.8-12.3-7.7c0.9,0.5,1.8,1.1,2.7,1.6
			c0.7,0.5,1.3,0.5,2,0c5.4,1.5,8.3-2.8,12.2-5c0.6-0.4,1.3-0.5,2-0.2C46.3,139.6,46,141.3,43.6,142.8z"/>
		<path fill="#B5B6B0" d="M28,175.4c-1.1-2.5-2.2-4.9-3.7-8.4c3.6,0.3,6,0.5,8.4,0.7c2,2.6,4,5.2,6,7.9
			C35.1,179,31.5,176.9,28,175.4z"/>
		<path fill="#6F7267" d="M23.3,161.4c-0.5,0-1-0.3-1.3-0.7c0-2.5,0.4-4.9,3.3-5c3.8-0.2,5.4,2.9,7.2,5.8
			C29,163.7,26.3,157.5,23.3,161.4z"/>
		<path fill="#C6C7C1" d="M28,175.4c3.5,0,7.1,0.1,10.6,0.1c0.2,0.4,0.3,0.9,0.4,1.3c0.4,0.4,0.5,0.8,0.4,1.1
			c-0.2,0.4-0.3,0.5-0.4,0.5c-2.1,0.5-4.2,1.1-6.2,1.6c-1.1-0.3-2.2-0.8-3.1-1.6l0,0C28.6,177.7,29,176.2,28,175.4L28,175.4z"/>
		<path fill="#A7A8A0" d="M45.1,186.4c-2.5,2.3-4,1.4-4.7-1.6c-0.9-2,0.7-3.1,1.5-4.5C43,182.3,44,184.3,45.1,186.4z"/>
		<path fill="#B4B5B0" d="M41.9,180.3c-0.5,1.5-1,3-1.5,4.5c-3.8-1.8-0.8-3.3,0.2-4.9C41,180,41.5,180.1,41.9,180.3z"/>
		<path fill="#B4B5B0" d="M38.9,178.6c0-0.6,0.1-1.1,0.1-1.7c0.5,0.6,0.9,1.1,1.4,1.7C39.9,178.6,39.4,178.6,38.9,178.6z"/>
		<path fill="#A7A8A0" d="M47.8,187.9c-0.4-0.5-0.8-0.9-1.2-1.4C47,187,47.4,187.4,47.8,187.9z"/>
		<path fill="#B1B3B1" d="M17.1,205.1c-1.1-4.7-2.1-9.4-3.2-14.1c4.2-2.3,6.3,2.1,9.5,3c0,0-0.1,0.1-0.1,0.1
			c-0.7,0.1-0.9,0.5-0.5,1.1c0.2,0.3,0.4,0.4,0.6,0.4l0,0c0.4,0.4,0.9,0.8,1.4,1.2c0.8,0.4,1.7,0.7,2.5,1.2c2.3,1.3,5.1,2.3,4.1,5.9
			c-3.9,5.6-7-2.3-10.7-0.6c-1.2,0.5-2.5,0.8-3.4,1.6L17.1,205.1z"/>
		<path fill="#B4B5B0" d="M29.6,178.5c1,0.5,2,1.1,3.1,1.6c0,0.5,0,1,0,1.5C31.6,180.6,30.6,179.6,29.6,178.5z"/>
		<path fill="#B5B6B0" d="M28,175.4c0.5,1,1.1,2,1.6,3.1C29.1,177.5,28.5,176.5,28,175.4z"/>
		<path fill="#C9C9C6" d="M17.2,204.9c0.5-1,1.1-2.1,1.6-3.1c6.5,2,11.7,6.6,17.8,9.4c1.6,1.1,3,2.3,3.6,4.2
			c0.3,1.2,0.2,2.3-0.3,3.4c-1.3,2.1-3.2,3.2-5.7,3.2c-0.5,0-1,0-1.5-0.1c-1.6-1-3.1-2-4.7-3C24.4,214.2,20.8,209.6,17.2,204.9z"/>
		<path fill="#C1A284" d="M105.6,43.4c-0.5,0-1,0-1.5,0c-4.3-0.8-6.7-3.4-7-7.8c1.5-3.7,2-8.2,7-9.3c4.1-2,8.2-4.2,9.3-9.2
			c2.1-1.7,4.1-1.7,6.2,0c1.5,9.3,4.8,18.5,0.1,27.8c-0.4,0.1-0.7,0.2-1.1,0.3c-3-1.6-2.7-4.4-2.6-7.2c0.7-3.3-0.7-6-3.4-9.4
			c-0.4,4.6,5.5,9.4-1.1,12.2C108.9,40.3,107.8,43.2,105.6,43.4z"/>
		<path fill="#776855" d="M124.2,48.1c0.5-1,1.1-2.1,1.6-3.1c1,0,2,0.3,3.8,0c-1.5-3.6-1.9-7.4-3.7-10.9c0.4-1.5,0.8-3,1.6-5.8
			c2.1,2.7,3.3,4.2,4.4,5.7c0,0,0,0.1,0,0.1c3.5,3.5,7.9,6.1,10.1,10.7c-0.8,2.9-1.3,5.9-2.8,8.6c-5.5,11.3-7.5,11.5-15.6,1.2
			c-0.5-0.6-0.7-1.4-0.9-2.1C122.6,50.9,122.9,49.3,124.2,48.1z"/>
		<path fill="#A3845E" d="M104.1,26.3c-2.1,3.2-4.1,6.3-6.2,9.5c-1.5,0.9-2.9,0.5-4.3-0.2c-0.6-0.4-1.1-1-1.5-1.7
			c-1.5-3.7,1.2-7,1.3-10.5c0.1-0.7,0.4-1.3,0.8-1.9c0.9-1,2.1-1.6,3.4-1.9c1.2-0.3,2.2-0.9,3.3-1.3c0.8-0.3,1.6-0.7,2.4-0.9
			c0.3-0.1,0.6-0.1,0.9-0.2C110.7,20.3,104.2,23.2,104.1,26.3z"/>
		<path fill="#654F3A" d="M126,34.1c1.4,2.2,2.7,4.5,4.4,6.4c1.7,2,3.9,3.7,6.6,6.2c-4.8,1.3-8.5,3.5-11.1-1.7c0,0,0,0,0,0
			c1.2-2.6,1.2-5.1,0-7.7C125.9,36.2,126,35.2,126,34.1z"/>
		<path fill="#BDA491" d="M102.5,20.1c-1,0.5-2,1-3,1.5c-1-0.4,0.3,0-0.7-0.3c-3.2-1.1-7.1-2.1-6-6.4c1-3.7,4.7-3.2,7.8-2.6
			c0.8,0.4,1.5,0.9,2,1.7c0.6,1,1.1,2.1,1.7,3.1c0,0-0.1,0-0.1,0C103.1,17.8,103.5,19.4,102.5,20.1z"/>
		<path fill="#7D6A56" d="M102.6,13.9c-0.5-0.1-1-0.2-1.5-0.2c-1.5-1.3-4.2,0.2-5.5-2.7c1.5-5.7,4.7-4.8,8.5-1.8l0,0
			c0.7,0.9,2.3,0.3,2.9,1.6C106.8,13.8,104.7,13.9,102.6,13.9z"/>
		<path fill="#C09260" d="M119.7,17c-2.1,0-4.1,0-6.2,0c0.3-2.4-0.9-5.8,3.1-5.9C120.5,11.2,119.4,14.7,119.7,17z"/>
		<path fill="#C1A284" d="M124.2,48.1c0,1.5-0.1,2.9-0.1,4.4c-0.6,3.3-3,3.8-5.7,4c-1.7,0-3.3-0.1-4.7-1.1c-0.9-0.8-1.3-1.9-1.2-3.1
			c1.9-4,6.3-2.5,9.3-4.1c0.3,0,0.7-0.1,1-0.1C123.3,48.1,123.8,48.1,124.2,48.1z"/>
		<path fill="#776855" d="M125.9,37.3c2.2,2.6,2.1,5.1,0,7.7C125.9,42.4,125.9,39.8,125.9,37.3z"/>
		<path fill="#C1A284" d="M119.8,44.9c1,1.1,2,2.1,3,3.2c0,0-0.2,0.2-0.2,0.2c-2.4,0.2-3.5-0.7-3-3.2L119.8,44.9z"/>
		<path fill="#9D8E7D" d="M107,10.9c-1-0.5-1.9-1.1-2.9-1.6c1.5,0.5,3.1,1,4.6,1.5C108.2,10.8,107.6,10.9,107,10.9z"/>
		<path fill="#9D8E7D" d="M104.1,9.3C102,9,99.9,8.8,97.9,8.5c-1.9,4.4,2.2,3.6,3.2,5.2c-2.2,0.2-4.4,0.4-8.1,0.8
			c2.7,2.9,4.6,5,6.5,7c-1.6,0.1-3.2,0.1-4.8,0.2c-4.7,0.3-5.5-3.1-6.2-6.5c0-0.5,0-1-0.1-1.4c-0.5-0.4-0.6-0.8-0.3-1.1
			c0.2-0.2,0.4-0.3,0.7-0.3c4.1-2.6,8.2-5.1,12.2-7.7C102,6.2,103,7.8,104.1,9.3z"/>
		<path fill="#CCC3B0" d="M88.7,12.4c0,0.5-0.2,0.9-0.3,1.4c-3.3-1.1-7.8-0.6-7.6-6.1C84.8,7,86.5,10.2,88.7,12.4z"/>
		<path fill="#BA9367" d="M88.6,55.9c1.5,0.5,2.9,1,4.4,1.5c2.2,0.7,2.1,3,3.2,4.6c0.4,0.6,0.7,1.1,0.9,1.7c0.8,1.5,2.1,2.7,2.4,4.5
			c0.3,1.9,0,3.7-1.7,5c-5.1,0.9-8.2-3.4-12.2-5.1c-6.2-2.6-11.6-2.5-17.4,0.2c-1.7,0.4-3.3,0.2-4.8-0.8c-0.6-0.6-1.1-1.3-1.4-2.1
			c-0.6-2.3-0.2-4.3,1.6-6l0.1-0.5c3.6-2.2,0.4-6.6,3-9.1c0.7-8.9,8.3-5.4,12.9-6.9c3.9-1.2,4.1,2.5,4.3,5.3
			c0.1,0.4,0.2,0.7,0.2,1.1c0.5,2.4-0.4,4.2-2.5,5.5c-3.1-0.3-3.4-5.2-7.7-4.6c0.5,4.4,3.3,5.2,6.7,4.9c0.7-0.2,1.2-0.5,1.7-1
			c0.6-0.4,1.2-0.5,1.9-0.3c1.3,0.4,2.1,1.4,3.3,1.9C88,55.7,88.3,55.8,88.6,55.9z"/>
		<path fill="#A6885C" d="M40.4,57.3c2.5-1.5,4.9-3.1,7.6-4.8c1.6,2.8-1.7,8.6,4.7,6.3c1.8,1.9,0,4.2,0.7,6.3c0.6,2.7,3.9,2.7,5,4.8
			c1.4,4.4-0.4,7.2-4.9,7c-3.9-0.2-4.5,2.4-5.8,4.7c-0.5,0.7-1.2,1-2,0.9c-5.1-3.7-2.9-9.7-4.4-14.5c0-1.1,0-2.3,0-3.4
			C41.3,62.2,40.7,59.8,40.4,57.3z"/>
		<path fill="#D4B289" d="M93.5,34.4c1.5,0.4,2.9,0.9,4.4,1.3c2.1,2.6,4.2,5.1,6.2,7.7c-8.6,3.5-11.8-6.5-18.6-7.5
			C87.7,32.6,90.6,33.6,93.5,34.4z"/>
		<path fill="#E0C092" d="M66.8,49.7c0.9,3.7,5.1,8.4-3,9.1c-1.5-2.7-3.1-5.5-4.9-8.8C60.8,46,63.7,47.4,66.8,49.7z"/>
		<path fill="#BCA06A" d="M113.5,51.1c0,1,0,2.1,0,3.1c-0.6,0.4-1.2,0.6-1.9,0.7c-3.7-0.2-2.8,5.7-6.8,5.1c-1.1-0.2-2-0.8-2.6-1.8
			c-0.3-0.7-0.3-1.4-0.1-2.1c1.4-3.7-0.8-8.5,3.6-11.2c0.8-0.8,1.7-0.8,2.6-0.3c0.5,1.5,1.2,2.6,3,2.4C113,47.9,114.3,49,113.5,51.1
			z"/>
		<path fill="#4B2D22" d="M102.1,56.1c0.1,0.4,0.4,0.8,0.7,1.2c1.2,2.9,2.3,5.9-0.9,8c-2.7,1.8-5.2,1-7-1.7l0,0
			c-1-2.5-1.5-5.1,0.2-7.5C97.4,56.1,99.8,56.1,102.1,56.1z"/>
		<path fill="#997B65" d="M57.7,69.9c-3.6-0.2-7.6,0.4-7.7-5.1c3.8-0.3,5.7-3,7.5-5.8c2.1,0.1,4.2,0.2,6.2,0.3c0,2,0,4,0,6
			C62.3,67.5,61.8,71.1,57.7,69.9z"/>
		<path fill="#2D190C" d="M57.4,59c-0.8,2.7,2.8,6-1.1,8.3c-3.1,1.9-4.5-1-6.4-2.4c0.9-2,1.8-4,2.7-6C54.3,58.9,55.9,59,57.4,59z"/>
		<path fill="#DEBA99" d="M40.5,48.1c0.5,0,1,0.1,1.5,0.2c-0.9,3.8-1.9,7.4-6.9,7.5c-4.1,0.1-2.4-2.8-2.5-4.7c0,0,0.1,0,0.1,0
			C34.1,47.2,36.3,45,40.5,48.1z"/>
		<path fill="#6C543C" d="M63.8,32.6c4.1-0.5,7.7-4.5,12.3-1.7c0.4,0,0.8,0,1.2,0c6.2-0.2,6.6,0.1,5.8,3.8c-4.9,0.6-10-0.8-14.8,0.8
			c-1.5,0-3.1,0.1-4.6,0.1C62.9,34.7,62.8,33.6,63.8,32.6z"/>
		<path fill="#DFBF8E" d="M84,48.1c2.6-0.5,5.2-1.1,7.9-1.7c-1.3,3.8-2.3,6.6-3.3,9.4c0,0,0,0,0,0c-2.3,1.6-3.5,0-4.7-1.5l0,0
			C82.8,52.3,82.8,50.2,84,48.1L84,48.1z"/>
		<path fill="#7A6747" d="M24.9,63.6c0-2.1-0.1-4.1-0.1-6.2c0.2-2.2,0.4-4.4,0.7-8.9c2,3.7,3,5.5,3.9,7.3c0.5,0.6,1.1,1.1,1.6,1.7
			c0.5,0.5,0.7,1,0.6,1.7c-0.3,1-0.9,1.8-1.6,2.5c-1,0.9-2.1,1.6-3.3,2.1c-0.3,0-0.7,0.1-1,0.1C25.5,63.9,25.2,63.8,24.9,63.6z"/>
		<path fill="#99774F" d="M40.4,57.3c3.8,0.7,3.1,3.7,3.2,6.3c-4.8,2.3-8.4,1.9-9.7-4c0.2-0.3,0.4-0.6,0.6-0.9
			C36.4,58.3,38.4,57.8,40.4,57.3z"/>
		<path fill="#A3845E" d="M68.3,35.6c5.2-0.5,10.4-1.1,15.6-1.6c2.9-2.9,5.8-2.7,8.9-0.3c0.2,0.2,0.5,0.5,0.7,0.7
			c-2.7,0.5-5.3,1-8,1.5C79.8,35.8,74.1,35.7,68.3,35.6z"/>
		<path fill="#AE8C73" d="M108.7,45c-1,0-2,0-3-0.1c0-0.5-0.1-1-0.1-1.5c1.1-1.7,1.3-4.8,4.7-3.1c0.9,0.8,1.1,1.7,0.9,2.9
			c-0.3,0.7-0.8,1.2-1.4,1.6C109.4,44.9,109.1,44.9,108.7,45z"/>
		<path fill="#896A57" d="M95,56.1c-0.1,2.5-0.2,5-0.2,7.5c-0.6-2.1-1.2-4.2-1.8-6.3C93.7,56.9,94.4,56.5,95,56.1z"/>
		<path fill="#76624E" d="M63.8,32.6c0,1,0,2.1-0.1,3.1c-1.1,0.4-2.1,0.8-3.2,1.2c0.5-0.9,1-1.8,1.6-2.7
			C61.5,32.6,62.4,32.3,63.8,32.6C63.7,32.5,63.8,32.6,63.8,32.6z"/>
		<path fill="#99774F" d="M31.1,58.9c0-0.5,0-0.9-0.1-1.4c1.1,0.4,2.2,0.8,3.3,1.2c0,0-0.4,0.5-0.4,0.5C33,59.9,32,59.8,31.1,58.9z"
			/>
		<path fill="#C7B099" d="M40.5,48.1c-2.6,1-5.2,2-7.8,3c-1-1.6-2-3.2-3-4.7C29,46,28.5,45.5,28,45c0,0,0,0,0,0
			c0.8-5.1,1.6-10.3,2.5-16c2.7,0.2,5.5,0.3,8.4,0.5C39.4,35.7,39.9,41.9,40.5,48.1z"/>
		<path fill="#BFA480" d="M28,45c0.5,0.5,1.1,0.9,1.6,1.4C29.1,45.9,28.5,45.5,28,45z"/>
		<path fill="#8B7462" d="M63.7,32.5c-0.5,0.6-1,1.1-1.6,1.7c-1.5-1.6-3-3.2-4.5-4.8c1.1-1.4,2.3-2.8,4.6-5.7
			C63,27.9,63.3,30.2,63.7,32.5z"/>
		<path fill="#7A6855" d="M88.4,15.3c2.1,2.2,4.2,4.3,6.2,6.5c0.1,0.5,0.1,1,0.1,1.5c-3.5,3.5-7.1,3.7-10.7,0.1
			c0.5-2.2,0.9-4.3,1.4-6.5C86.4,16.4,87.4,15.8,88.4,15.3z"/>
		<path fill="#A79F8D" d="M69.8,12.3c1-0.5,2.1-1.1,3.1-1.6C71.9,11.2,70.9,11.7,69.8,12.3z"/>
		<path fill="#6C543C" d="M79.2,27.8c1.5-1,3.1-2.1,4.6-3.1c1.8,7.3-2.6,7.2-7.6,6.4c0,0-0.1-0.1-0.1-0.1
			C77.1,29.9,78.2,28.8,79.2,27.8z"/>
		<path fill="#4C3B28" d="M65.2,23.2c2.4-2,4.3-2.7,4.6,1.5C67.7,25.9,65.7,27,65.2,23.2z"/>
		<path fill="#543B2B" d="M76.2,31c4.3,0,7.1-1.9,7.6-6.4c0.1-0.4,0.2-0.8,0.2-1.3c3.6,0,7.1-0.1,10.7-0.1c3.9,4.3-2.8,6.7-2,10.4
			c-3,0.1-5.9,0.2-8.9,0.3C81.4,33,78.8,32,76.2,31z"/>
		<path fill="#8A7F69" d="M14,82.3c1.1-5.7,2.1-11.3,3.2-17c0.1-0.3,0.1-0.7,0.2-1c0.4-0.6,0.9-1,1.6-1.3c0.3,0,0.7,0,1,0
			c1.5,0.3,2.5,1.3,3.3,2.4c0.9,2,2.7,3.4,3.3,5.5c0.6,2.2,0.6,4.4-0.8,6.4c-0.7,0.8-1.6,1.1-2.6,0.9c-0.4-0.1-0.6-0.5-0.6-0.3
			c0.2,1,3.6,0.7,2.1,3.2c-2.7,2.1-5.4,4.1-9.2,2.8l-0.1-0.1C15,83.3,14.6,82.8,14,82.3L14,82.3z"/>
		<path fill="#B7AF9D" d="M18.5,59.1c0.1,0.5,0.1,0.9,0.2,1.4c0.9,1.1,0.9,2.1,0,3.2l0,0c-0.5,0.5-1.2,0.9-1.5,1.6c0,0,0,0.1,0,0.1
			C16.2,62.9,12.4,59.9,18.5,59.1z"/>
		<path fill="#958C78" d="M17.1,54.3c-0.1,0.2-0.2,0.3-0.3,0.5C17,54.6,17.1,54.5,17.1,54.3C17.1,54.3,17.1,54.3,17.1,54.3z"/>
		<path fill="#BCB6A2" d="M24.9,69.9c-1.1-1.5-2.2-3.1-3.3-4.6c-0.5-1.6-1.4-3.5,1.7-3.1c0.5,0.5,1.1,0.9,1.6,1.4c0,0,0,0,0,0
			c1,0.9,2.2,1.6,3,2.8c0.6,1.3,1,2.6-0.2,3.8C26.7,70.7,25.7,70.8,24.9,69.9z"/>
		<path fill="#A39A89" d="M23.3,62.2c-0.6,1-1.1,2-1.7,3.1c-0.9-0.5-1.9-1.1-2.8-1.6c0-1.1,0-2.1,0-3.2
			C20.2,61.1,21.8,61.6,23.3,62.2z"/>
		<path fill="#958D7A" d="M141.4,44.9c-4.5-2.4-8.7-5.1-9.4-10.8c1,0,2.1,0,3.1,0c3.1,1.7,6.8,1.3,9.8,3.2c0.8,4.2,4.2,6.2,7.2,8.6
			c12.5,10,13.4,13.8,7.3,28.2c-0.3,1.8,0.5,3.8-0.9,5.4c-0.7,0.3-1.4,0.5-2.2,0.4c-1.1-0.4-1.9-1.1-2.5-2.2
			c1.8-11.5-1.9-20.7-11.1-27.9C141.4,48.8,141.2,46.8,141.4,44.9z"/>
		<path fill="#AFA392" d="M144.4,37.3c-2.1,0.8-4.3,1.5-6.6,2.4c-0.9-1.9-1.8-3.7-2.6-5.6c3.6-2.7,6.5-0.5,9.4,1.5c0,0,0,0,0,0
			c0.4,0.4,0.6,0.8,0.4,1.1C144.8,37.1,144.6,37.3,144.4,37.3z"/>
		<path fill="#979891" d="M39.1,215.6c-1.2-0.9-2.4-1.8-3.5-2.8c0.2-1.1,0.8-1.9,1.8-2.4c3.5-0.9,6.4,2.3,9.9,1.4
			c1.3,0.2,2.8-0.4,3.8,0.9l0.3-0.2c0.4,0.6,0.9,1.1,1.4,1.6l0,0c0.5,0.3,0.7,0.7,0.5,1c-0.2,0.3-0.3,0.5-0.5,0.5
			c-0.5,2.8-1,5.6-1.5,9c-1.8,0.1-4,0.2-6.2,0.3c-0.4-0.4-0.9-0.9-1.3-1.3c-0.7-0.6-1.3-1.3-1.9-2.1
			C40.5,219.9,40.6,217.4,39.1,215.6z"/>
		<path fill="#6A675F" d="M52.9,215.8c0-0.5,0-1,0-1.6c0.5,0,1,0,1.6,0c0,0.5,0,1,0,1.6C53.9,215.8,53.4,215.8,52.9,215.8z"/>
		<path fill="#A4A396" d="M45.1,223.7c0,0.5,0,1,0,1.5c-0.5,0-1,0.1-1.5,0.1c0,0-0.2-0.3-0.2-0.3C43.3,223.7,43.6,223,45.1,223.7z"
			/>
		<path fill="#B7B6B4" d="M45.1,223.7c-0.6,0.4-1.1,0.9-1.7,1.3c-1.4,0-2.9,0.1-4.3,0.1c-1.3-1.4-3.6-0.1-4.9-1.6c0-0.5,0-1,0-1.5
			c1.6-1,3.1-2,4.7-3.1c2.7-0.7,3,2.3,4.7,3C44.1,222.6,44.6,223.1,45.1,223.7z"/>
		<path fill="#89887C" d="M34.2,223.5c1.6,0.5,3.3,1.1,4.9,1.6C37.5,224.6,35.8,224.1,34.2,223.5z"/>
		<path fill="#848278" d="M68.4,208c2.6-1,5.1-2,7.7-3c0,0,0,0,0,0c1-1,2.1-2.1,3.1-3.1c0.9-2.4-1.7-4-1.5-6.2
			c-2.7-2.6,1.1-3.1,1.6-4.6c0,0,0,0,0,0c0.4-0.5,0.9-0.8,1.6-0.9c0.3,0.1,0.6,0.1,0.9,0.2c0.2,0.2,0.4,0.4,0.7,0.6
			c0,7.6,0.3,15.1,4.6,21.7c0,3.1-1.8,4.5-4.7,4.8c-0.5-0.1-1-0.1-1.6-0.2C74,217.7,65.3,220.6,68.4,208z"/>
		<path fill="#B3B2AB" d="M99.4,192.5c-0.5-1.5-1-3-1.5-4.5c-3.4-4.4-2.1-9.9-3.4-14.8c0.1-0.9,0.4-1.7,0.7-2.5c1.2-2,3-3.1,5.3-3.5
			c2.1-0.1,4.2-0.2,6.1,0.9c0.7,0.4,1.1,1,1.4,1.8c-3.1,6.5-2.6,14.2-6.3,20.5c-0.3,0.7-0.8,1.2-1.3,1.7
			C100,192.2,99.7,192.3,99.4,192.5z"/>
		<path fill="#A2A198" d="M96.3,172.3c0.5,5.2,1,10.4,1.5,15.6c-7,0.5-2.8,8.1-8,11.5c0.8-3.6,1.3-6,1.8-8.4c-2.1-2.1-2.5-4.4-1.1-7
			c0.7-0.7,1.9-1.3,0.9-2.7c-1.8-3.3-3.6-6.6-0.9-10.3c0.8-0.8,1.7-1.3,2.8-1.3c0.7,0.1,1.4,0.3,1.9,0.7
			C95.6,171.1,95.9,171.7,96.3,172.3z"/>
		<path fill="#9A9B93" d="M79.4,184.9c0-2.8,0-5.6,0-8.9c1.7,1,3.2,1.8,4.6,2.6c3.4-0.3,3.6,2.5,3.6,4.5c0.1,2.6,1.3,4.3,2.8,6
			c0.4,0.7,0.3,1.3-0.3,1.9c-3.7,1-4.9,3.9-5.2,8.1c-1-3.2-1.8-5.7-2.6-8.1c0,0,0,0,0,0C80.2,189.5,81.4,186.4,79.4,184.9z"/>
		<path fill="#A5A598" d="M111.9,195.7c-4.7,1.5-9.4,3-14.1,4.5c-0.4,0.6-0.9,1.1-1.5,1.5l0,0c-0.2,0.2-0.5,0.4-0.7,0.6
			c-0.2-0.2-0.5-0.4-0.7-0.6c-1.8-5.8,4-5.1,6.3-7.5c1-2.9,4.5-2.6,6-4.8c0.5-0.4,1.2-0.7,1.8-0.9c0.7,0,1.4,0.2,2,0.5
			c1.1,0.9,1.8,2.1,1.9,3.6C112.7,193.8,112.6,194.8,111.9,195.7L111.9,195.7z"/>
		<path fill="#B4B3AC" d="M90.2,190.9c0-0.5-0.1-1-0.1-1.5c-2.8-5.6-4.4-11.4-2.9-17.7c0.8-1.3,1.9-1.8,3.4-1.6
			c0.4,0.2,0.8,0.5,1.1,0.7c0.5,3.6,1.1,7.3,1.6,10.9c0.3,0.4,0.4,0.7,0.3,1c-0.2,0.3-0.3,0.4-0.4,0.4c-0.5,2.6-1,5.2-1.5,7.8
			C91.2,191,90.7,191,90.2,190.9z"/>
		<path fill="#7D7C72" d="M108.6,189.4c-0.2,5.1-4.1,4.6-7.5,4.9c-0.6-0.6-1.2-1.2-1.8-1.9c0,0,0,0,0,0c1-0.7,0.8-1.9,1.2-2.9
			c1.7-1.7,2.8-4.1,5.2-5.2C109,184.9,109,187,108.6,189.4z"/>
		<path fill="#7F7C72" d="M96.3,203.4c0,0.6,0,1.1,0,1.7c-1.1-0.4-2.2-0.7-3.3-1.1c0.6-0.7,1.2-1.4,1.8-2.1c0,0,0,0,0,0
			C95.4,202.3,95.9,202.8,96.3,203.4z"/>
		<path fill="#87867A" d="M97.9,209.6c0-3.3-0.1-6.7,5-6.6C103.4,207.3,100.8,208.6,97.9,209.6C97.9,209.6,97.9,209.6,97.9,209.6z"
			/>
		<path fill="#8F8E84" d="M96.3,201.8c0.5-0.5,1-1,1.5-1.5C97.3,200.7,96.8,201.3,96.3,201.8z"/>
		<path fill="#8F8E84" d="M96.3,203.4c-0.5-0.5-1-1-1.5-1.5c0.5,0,1,0,1.4,0C96.3,202.3,96.3,202.8,96.3,203.4z"/>
		<path fill="#313128" d="M58.8,214c0.6-3.1,1.3-6.1,1.9-9.2c1,5.2,2,10.4,3,15.6c-0.4,0-0.8,0.1-1.2,0.1c0,0-0.5-0.1-0.5-0.1
			c-1.5-1.7-1.9-4-2.8-6L58.8,214z"/>
		<path fill="#848278" d="M63.7,203.5c1.6,1.5,3.2,3,4.8,4.5C66.3,207.1,63,207.4,63.7,203.5z"/>
		<path fill="#070709" d="M59.2,214.4c2.7,1.2,3.3,3.3,2.8,6c-1.5-1-2.9-2.1-4.4-3.1C58.1,216.4,58.6,215.4,59.2,214.4z"/>
		<path fill="#A39C88" d="M43.4,138.3c-0.5-0.1-1-0.2-1.5-0.3c-8.1,2-15.7-0.8-23.3-2.9c-5.2-4-9.7-8.4-8.7-17.8
			c1.8,2.9,2.6,4.1,3.8,6.1c1.7-3,3.3-5.7,4.9-8.4c0.6-0.5,1.3-0.5,2.1-0.2c0.8,0.8,1.2,1.8,1.4,2.9c0.4,3.2-2.7,7.6,3,9
			c0.7,0.2,1.3,0.5,1.9,0.8c0.6,0.3,1.3,0.6,1.9,0.9c0.3,0.2,0.6,0.3,0.9,0.5c1.7,0.9,3.4,1.9,5.5,1.3c0.6-0.3,1.2-0.4,1.8-0.6
			c0.6-0.1,1.3,0,1.9,0.2c1.1,0.6,2,1.5,2.9,2.3c0.7,0.6,1.6,1,2.4,1.6c0.5,0.4,1,0.9,1.3,1.5C45.9,137,46.3,138.8,43.4,138.3z"/>
		<path fill="#918872" d="M20.1,115c-0.5,0-1,0-1.5,0c-1.5-1.1-3-2.2-4.6-3.2c-0.5-1.6-1-3.2-1.4-4.8c1.9-2.6,1.5-4.7-1.6-6
			c0-1.6-0.1-3.1-0.1-4.7c0-0.5,0-1,0.1-1.5c2.5-0.5,5.1-1,7.6-1.6c1.9,0.7,4.8-0.5,5.2,2.8c-0.6,1.9-1.2,3.3,0.6,5.5
			C30.5,108.7,29.2,112.2,20.1,115z"/>
		<path fill="#8C8D83" d="M29.8,143c-0.7,0-1.3,0-2,0C28.5,143,29.1,143,29.8,143z"/>
		<path fill="#A29782" d="M23.4,96.1c-1.6-1-3.2-1.9-4.8-2.9c3.7-4.7,0.7-7.1-3.1-9.3c3.1-1.1,6.3-2.2,9.4-3.3
			c0.3,0.3,0.5,0.5,0.8,0.8c1.4,2.7,0.7,5.7,1.2,8.5c0.6,2.5,1.6,4.8,2.6,7.2c1,2.2,2,4.7-0.8,5.9c-2.9,1.1-4.7-1-5.5-3.7
			C22.9,98.1,23.3,97.1,23.4,96.1z"/>
		<path fill="#A39A89" d="M14,82.3c0.5,0.5,1,1,1.5,1.6C15,83.3,14.5,82.8,14,82.3z"/>
		<path fill="#807661" d="M11,100.9c2.6-1.7,4.8-1.4,6.7,2.1c-1.7,1.3-3.4,2.6-5.1,3.9C12.1,105,11.5,103,11,100.9z"/>
		<path fill="#77796E" d="M149,198.8c-0.8-1.2-1.7-2.4-2.8-4c-6.4,5.9-0.9,16.7-9.3,21.3c-0.3-0.3-0.6-0.6-0.9-0.8
			c0.3-8.5-1.9-17.4,2.9-25.4c2.5-1.4,5.4-2.2,7.7-4c2.2,0.5,3,2.2,3.3,4.2c0.5,1.9,1.1,3.9-0.6,5.5
			C149.2,196.7,149.1,197.7,149,198.8z"/>
		<path fill="#322D24" d="M138.4,219c-0.2,0.4-0.4,0.8-0.4,1.2c-0.9,0.6-1.7,1.3-2.6,1.9c-4.4,9-11.2,8.3-18.8,4.7
			c0.1-0.3,0.2-0.5,0.2-0.8c0.3-0.5,0.7-0.8,1.2-1.1c0.4-0.4,0.8-0.7,1.2-1.1c0.4-0.4,0.8-0.7,1.2-1c0.4-0.3,0.9-0.6,1.3-0.9
			c0.4-0.3,0.9-0.5,1.4-0.7c0.4-0.3,0.9-0.5,1.4-0.7c0.7-0.4,1.3-0.7,2-1.1c0.4-0.3,0.8-0.6,1.3-1c0.7-0.5,1.3-1.1,2-1.6
			c0.5-0.4,1.1-0.6,1.6-0.8c1.3-0.4,2.5-0.4,3.8,0.1c0.5,0.4,1,0.8,1.5,1.3c0.6,0,1.1,0,1.7,0.1c0.5,0.3,0.6,0.7,0.5,1.1
			C138.7,218.8,138.5,219,138.4,219z"/>
		<path fill="#706C63" d="M122.6,223.5c-0.4,0.1-0.9,0.2-1.3,0.3c-0.6,0.4-1.2,0.8-1.6,1.5l-0.1,0.1c-0.9,0.8-2.3,0.4-3,1.5
			c0,0,0,0.1,0,0.1c-4.8-3.6,3.1-3,1.6-5.9c-6.6,1.8-6.8-1.5-4.5-6.5c1-1.5,2.1-3,3.1-4.6c0.4-0.1,0.8-0.2,1.2-0.3
			c0.4,0,0.7,0.1,1.1,0.1c4.9,1,5.2,6.5,8.6,8.9c0.4,0.7,0.3,1.3-0.3,1.9l0,0c-0.8,1-2.3,0.6-3.1,1.6l0,0
			C123.8,222.6,123.3,223.1,122.6,223.5z"/>
		<path fill="#77796E" d="M136.7,217.3l-0.8,0.1l-0.8-0.1c-0.4-0.3-0.5-0.7-0.5-1c0-0.4,0.1-0.6,0.2-0.6c0.6-0.4,1.1-0.4,1.7,0
			c0,0,0.4,0.4,0.4,0.4C136.8,216.5,136.7,216.9,136.7,217.3z"/>
		<path fill="#77796E" d="M138.4,219c0-0.5,0-1.1-0.1-1.6c0.5,0,1,0,1.6,0.1c0,0.5,0,1-0.1,1.5C139.4,219,138.9,219,138.4,219z"/>
		<path fill="#706C63" d="M119.5,207.9c3.1-9.9-4.2,0.6-4.6-2.5c-2.9-3.4,5.2-8.2-1.4-11.2c-0.9-0.6-0.9-1.7-1.3-2.6
			c-0.4-1.3-0.4-2.6-0.4-4c0.1-0.7,0.4-1.3,0.7-1.9c0.4-0.6,0.9-1,1.4-1.5c0.3-0.2,0.6-0.3,0.9-0.5c0.6-0.2,1.3-0.2,1.9-0.2
			c0.6,0.2,1.2,0.5,1.6,0.9c0.3,0.9,0.1,1.7-0.5,2.3c-0.4-0.2-0.6-0.3-0.6-0.3c-0.2,0.3-0.1,0.5,0.5,0.5c0.2,0,0.4-0.3,0.6-0.4
			c0.5-0.7,0.5-1.6,1.1-2.2c0.5-0.3,1.1-0.4,1.7-0.4c1.3,0.2,2.3,0.9,3,1.9c0.5,0.8,0.5,1.7,0.1,2.6c-0.4,0.8-0.9,1.5-1.3,2.2
			c-0.1,0.2-0.3,0.5-0.5,0.7c-0.1,0.2-0.3,0.5-0.4,0.7c-0.3,0.5-0.5,1-0.8,1.5c-0.1,0.3-0.2,0.5-0.3,0.8c-0.3,0.9-0.3,1.7-0.2,2.6
			c0.5,3.2,4.6,2.8,5.7,5.4c0.6,4.6-1.4,6.8-6.1,6.5C120.1,208.5,119.8,208.2,119.5,207.9z"/>
		<path fill="#7C7B70" d="M113.5,191c0,1.1,0,2.1,0,3.2c-0.5,0.5-1.1,1-1.6,1.5c0-1,0-2-0.1-3.1C111.3,190.9,112,190.6,113.5,191z"
			/>
		<path fill="#706C63" d="M118,209.5c0.5-0.5,1-1.1,1.5-1.6c0,0,0.4,0.5,0.4,0.5c-0.2,0.8-0.6,1.3-1.4,1.5L118,209.5z"/>
		<path fill="#92938E" d="M51.1,212.8c-1.5,0-3,0-4.5-0.1c-3.5,2.1-5.8-3.6-9.3-1.4c-0.6,0.5-1.2,1.1-1.8,1.6
			c-5.6-3.7-11.2-7.4-16.8-11.1c5.1-7.1,7.6,6.1,12.3,1.6c0.3-0.1,0.6-0.1,0.9-0.2c2.1-0.6,3.8,0.2,5.3,1.6
			c6.6-0.3,12.9-0.8,14.1-9.3c5.3,3.9,6,8.5,2.4,14.1c-2.9-0.5-5.8-0.9-11.3-1.8C47,210.4,49,211.6,51.1,212.8z"/>
		<path fill="#CACBC6" d="M31.1,203.4c-2.1-1.6-4.1-3.1-6.2-4.7c-0.5-0.5-1-1.1-1.6-1.5c0-0.5,0-1,0-1.6c5.6,0.9,11,2.3,14,7.9
			C35.2,204.5,33.2,204.6,31.1,203.4L31.1,203.4z"/>
		<path fill="#B1B3B1" d="M31.1,203.4c2.1,0,4.1,0.1,6.2,0.1c0,0.4,0,0.9,0,1.3C35.3,204.3,33.2,203.9,31.1,203.4z"/>
		<path fill="#CACBC6" d="M23.4,195.7c-0.6-0.2-1.2-0.5-1.8-0.7c0.6-0.3,1.1-0.5,1.7-0.8C23.3,194.7,23.3,195.2,23.4,195.7z"/>
		<path fill="#B8B7B5" d="M49.8,158.4c0.6-6.8,10.7-0.3,10.9-7.7c6.1-1.2,11.8-0.6,17,3c0,4.1,0,8.3,0,12.4
			c-2.8,3.2-6.8,3.2-10.5,4.2C59.7,168.7,55.6,162.3,49.8,158.4z"/>
		<path fill="#8D8C83" d="M77.8,145.9c-0.1-0.5-0.1-0.9-0.2-1.4c1.3-2.2,3.6-2.4,5.7-2.9c3.9,0.1,4.1-5.3,7.8-5.4
			c3,1.8,4.1-2.7,6.7-2c2.7,0.3,5,1.4,6.6,3.7c0.4,1.1,0.1,2.2-0.4,3.2c-4.1,4.1,1.2,8.6-0.5,12.9c-0.5,1-1.2,1.8-2.1,2.3
			c-2.3,1.2-4.7,0-7,0.4c-2.9,0.8-3.1,4.1-5.4,5.5c-1,0.5-2,0.6-3,0.1c-0.2-0.3-0.5-0.5-0.7-0.8c-1.5-4.7-5.2-9.3,1.8-16.1
			c-5.1,1.2-6.9,1.6-8.7,2.1c-0.7-0.1-1-0.4-0.9-0.8C77.5,146.1,77.7,145.9,77.8,145.9z"/>
		<path fill="#C0C0BB" d="M49.8,158.4c8.7-1,11,7.8,17,10.9c4.4-0.2,6.7,2.2,7.8,6.2l0,0c0.6,0.5,1,1.1,1.5,1.6
			c-2,0.5-4.1,0.9-6.1,1.4C63,172.1,46.1,175.5,49.8,158.4z"/>
		<path fill="#8F8E84" d="M88.7,170.9c0.5,6.2,0.9,12.4,1.4,18.5c-9.7,0.7-1.3-8.7-6.1-10.8c0.4-5.7,0.8-11.5,1.3-17.2
			c0,0,0.3,0.2,0.3,0.2c1.5,1.7,2.9,3.5,4.1,5.5C90.1,168.5,89.7,169.8,88.7,170.9z"/>
		<path fill="#C4C2BF" d="M77.8,145.9c0.2,0.5,0.3,0.9,0.5,1.4c-0.2,2.1-0.5,4.2-0.7,6.4c-5.7-1-11.3-2-17-3c-1.5,0-3.1,0-4.6,0
			c-0.6-0.4-1.3-0.7-1.6-1.5c-1.1-0.4-2.2-0.8-3.3-1.2C60.2,148.4,69.2,150.9,77.8,145.9z"/>
		<path fill="#AFAFAC" d="M74.6,175.5c-2.6-2.1-5.2-4.1-7.8-6.2c2.9-3.4,6.9-3.1,10.9-3.2C76.6,169.2,75.6,172.3,74.6,175.5z"/>
		<path fill="#C1C2BF" d="M57.9,182.3c9.6,0,13.9,0,19.2,0C72.1,188,67.7,186.9,57.9,182.3z"/>
		<path fill="#8F8E84" d="M79.4,184.9c3.8,0.7,2.8,3.7,3,6.1c-0.6,0-1.1,0-1.7,0c-0.5-0.4-1-0.9-1.4-1.5
			C79.3,187.9,79.4,186.4,79.4,184.9z"/>
		<path fill="#AFAFAC" d="M76.1,177.1c-0.5-0.5-1-1.1-1.5-1.6C75.1,176,75.6,176.5,76.1,177.1z"/>
		<path fill="#9A9B93" d="M79.3,189.4c0.5,0.5,0.9,1,1.4,1.5c-0.5,0-1,0.1-1.4,0.1C79.3,190.5,79.3,189.9,79.3,189.4z"/>
		<path fill="#A2A098" d="M61,144.2c-4.3-0.4-8.6-0.8-12.9-1.2c-0.1-3.4,3.1-4.3,4.8-6.3c0.1-0.6,0.3-1.2,0.4-1.8
			c0.3-1,0.8-1.8,1.6-2.4c2.8-1.6,5.5-0.4,8.2,0c1.6,0.2,4,2.3,5-1.1c1.2-1.4,2.9-2,4.6-2.5c4.9-0.7,9.3,3,14.3,1.6
			c1.6,0.2,3,0.7,3.6,2.4c0.2,1.6-0.8,2.8-1.6,4c-4.7,1.7-8.7,4.8-13.7,5.8C70.6,143.1,65.6,142.1,61,144.2z"/>
		<path fill="#6B6A64" d="M76.1,141.2c3.6-2.8,6.8-6.7,12.2-5c0.9,3.3-1.2,5.6-2.8,8.1c-2.6,0-5.3,0.1-7.9,0.1
			c-1.5-0.1-3-0.1-4.5-0.2C72.2,141.3,75.6,142.7,76.1,141.2z"/>
		<path fill="#9A8E7D" d="M55.6,136.8c-0.1,5-5.9,3-7.5,6.2c-1,0-1.9,0-2.9,0c-0.5,0-1.1-0.1-1.6-0.1c-0.1-1.5-0.1-3-0.2-4.5
			c0-1.2-0.1-2.3-0.1-3.5c0.6-2.8,2.4-2.2,4.2-1.4C49.8,135.4,52.3,137.1,55.6,136.8z"/>
		<path fill="#7B7A78" d="M76.1,141.2c-1,1-2,2-3,3c-4.1,0-8.1,0-12.2-0.1C65.4,139.9,71,141.7,76.1,141.2z"/>
		<path fill="#B8B7B5" d="M54.4,150.6C53.9,150.9,53.5,151.3,54.4,150.6C53.3,150.9,53.9,150.8,54.4,150.6L54.4,150.6z"/>
		<path fill="#B8B7B5" d="M54.4,149.1c0.5,0.5,1.1,1,1.6,1.5c-0.5,0-1.1,0-1.6,0c0,0,0,0,0,0C54.4,150.1,54.4,149.6,54.4,149.1z"/>
		<path fill="#8F8E84" d="M77.7,195.6c1.5,1.8,4,3.4,1.5,6.2C77.4,200.1,75.8,198.3,77.7,195.6z"/>
		<path fill="#6A675F" d="M52.9,214.3c-0.5-0.5-1-1.1-1.4-1.6C51.9,213.2,52.4,213.7,52.9,214.3z"/>
		<path fill="#B6B5B0" d="M23.3,197.2c0.5,0.5,1.1,1,1.6,1.5C24.4,198.2,23.9,197.7,23.3,197.2z"/>
		<path fill="#B6B5B0" d="M43.6,222c-1.6-1-3.2-2-4.7-3c0.1-1.1,0.1-2.2,0.2-3.3C40.6,217.8,42.1,219.9,43.6,222z"/>
		<path fill="#C5AC9F" d="M110.3,43.4c0-1,0-2.1,0-3.1c1-1.9,5.1-3.1,1.3-6c-8.3-6.3-1-7.6,3.9-12c1.2,6.2,2,10.5,2.8,14.9
			c-3.2,2.1-1.3,7.8-6.2,8.7c-0.7,0-1.4-0.2-2-0.7C109.7,44.6,109.8,44,110.3,43.4z"/>
		<path fill="#D6B79E" d="M110.4,45c5.3,0.1,1.3-9,7.7-7.7c0.5,2.6,1,5.2,1.4,7.7c1,1.1,2,2.1,3,3.2c-1.4,6-5.5,3.6-9.1,2.9
			c-1-1-2.1-2.1-3.1-3.1C109.4,47,109.5,46,110.4,45z"/>
		<path fill="#534639" d="M155.3,77.6c0.5,0.6,1,1.1,1.5,1.7c1,0.7,1.1,1.7,0.8,2.8c-0.3,0.6-0.8,1.1-1.4,1.5
			c-0.9,0.5-1.9,0.7-3,0.7c-3.1,0-5.6-1.7-8.4-2.7c-0.6-0.2-1.1-0.4-1.7-0.7c-0.8-0.3-1.6-0.6-2.4-0.9c-0.9-0.1-1.7-0.1-2.6,0.1
			c-1.2,0.4-2.3,0.5-3.6,0.6c-0.6,0-1.3-0.1-1.9-0.2c-1.9-0.6-3.8-0.7-5.8,0c-3.5,1.2-7,2.3-10.8,1.8c-1.6-0.4-2.9-1.2-3.9-2.5
			c-1.5-2.4-2.7-4.9-1.4-7.8c4.4-3.9,10.1-1.1,14.9-2.9c0.6-0.4,1.2-0.8,1.3-1.6c-0.1-0.5-0.2-0.9-0.5-1.4c-0.3-0.5-0.6-0.9-0.9-1.4
			c-0.3-0.5-0.6-1-0.9-1.6c-1.3-3-4.6-3.5-6.8-5.3c-0.4-0.6-0.7-1.2-0.7-2c0.1-0.8,0.6-1.2,1.3-1.4c1.8-0.7,3.7-1.4,5.5-2.1
			c3,2.7,6,5.3,9.1,8.1c1.6-2.6,3.2-5.5,4.9-8.3c0.3,0.1,0.6,0.3,0.9,0.4c1.3,1.2,1.9,2.9,2.9,4.3c2.3,3.7,7.6,5.8,6.5,11.4
			c-0.9,1.5-2.3,2.5-3,4.2c1.4-0.4,1.9-2.2,3.4-2.3c1.9-0.3,3.5,0.2,4.8,1.6C154.9,73.6,153.5,76.1,155.3,77.6z"/>
		<path fill="#645642" d="M155.3,77.6c-2.3-1-4.6-1.9-1.5-4.7c-1.4-8.2-10.1-11-13.4-17.8c-0.6-0.8-1.4-1.6-2.1-2.3
			c0,0-0.2-0.4-0.2-0.5c0.2-2.9,0.1-5.9,3.3-7.4C150.2,54,160.3,62.6,155.3,77.6z"/>
		<path fill="#AB906A" d="M102.5,20.1c0.6-1,1.1-2,1.7-3C103.6,18.1,103,19.1,102.5,20.1z"/>
		<path fill="#AA8D60" d="M118.6,54.6c-0.1,0.4-0.2,0.9-0.4,1.3c-1.2,1.4-1.7,3.9-4.3,3.3c-2-0.5-2.5-2.2-2.5-4.1
			c0.2-0.3,0.4-0.6,0.6-0.9c0.5,0,1,0,1.5,0C115.2,54.4,116.9,54.5,118.6,54.6z"/>
		<path fill="#C8B28B" d="M57.7,69.9c2-1.6,4-3.1,6-4.7c0,0.5,0,1,0,1.5c0.2,0.3,0.4,0.5,0.7,0.8c0,0.3,0.1,0.7,0.1,1
			c-0.2,1.7-1.4,3-1.8,4.6c-0.2,0.6-0.5,1.2-0.7,1.8c-0.3,0.6-0.6,1.1-0.8,1.7c-0.1,0.3-0.2,0.6-0.4,0.9c-0.3,0.9-0.5,1.8-0.5,2.8
			c-0.4,4.4,2,8.8,0.3,13.3c-0.4,0.6-0.8,1.1-1.4,1.6c-0.7,0.2-1.4,0.1-2.1-0.3c-2.1-5.6-7.5-8.9-10.1-14.2c0-2.9,0-5.8,0-10.2
			c3.6,2.5,5.5,3.8,8.5,5.9C56.3,73.8,57,71.9,57.7,69.9z"/>
		<path fill="#AE7638" d="M82.3,54.4c-0.8,3.4-4,5.4-6.2,3.9c-3.2-2.3-5.2-6.4-8-10.1C76.7,44.3,80.6,47,82.3,54.4L82.3,54.4z"/>
		<path fill="#CFB699" d="M68.3,66.7c11.9-7.7,20.6,0,29.6,6.2c0.2,0.3,0.4,0.6,0.6,0.8c0.2,0.7,0.1,1.4-0.1,2.1
			c-0.3,0.2-0.5,0.5-0.8,0.7c-0.3,0.1-0.7,0.1-1,0.2c-3.5-0.2-5.7-3.5-9.2-3.8c-1-0.1-1.9-0.4-2.9-0.7c-0.6-0.2-1.2-0.5-1.8-0.7
			c-1.4-0.9-3-0.8-4.6-0.8c-1.6-0.1-3.3-0.2-4.9-0.7c-1.6-0.6-3.3-1.1-4.5-2.4C68.7,67.3,68.5,67,68.3,66.7z"/>
		<path fill="#896A57" d="M94.8,63.6c6.9,3.2,8-0.9,8-6.3c0.5,0.5,1.1,1,1.6,1.5c1.7,2.2,2.2,4.6,1.3,7.2c-2.3,3-4.6,7.1-7.9,0.8
			C96.8,65.8,95.8,64.7,94.8,63.6z"/>
		<path fill="#A4835A" d="M97.8,66.8c2.2,3,4.2,0.1,6.2-0.2c0.5,0.4,0.9,0.8,1.1,1.4c0.1,0.6,0.1,1.2-0.1,1.9
			c-0.3,0.9-0.8,1.7-1.5,2.4c-0.4,0.5-0.9,0.8-1.5,1.2c-0.6,0.3-1.1,0.5-1.8,0.6c-1,0-1.8-0.4-2.4-1.2c0,0,0,0,0,0
			C97.9,70.9,97.9,68.8,97.8,66.8z"/>
		<path fill="#CBA97C" d="M83.9,48.1c0,2.1-0.1,4.1-0.1,6.2c-0.5,0-1.1,0.1-1.6,0.1c0,0,0,0,0,0C82.8,52.3,83.4,50.2,83.9,48.1z"/>
		<path fill="#CBA97C" d="M83.9,54.3c1.6,0.5,3.1,1,4.7,1.5C86.1,58.2,84.6,57.4,83.9,54.3z"/>
		<path fill="#CFB699" d="M63.8,68.3c0-0.5-0.1-1-0.1-1.5c1.5,0,3.1-0.1,4.6-0.1c0,0,0.2,0.2,0.2,0.2C67.7,70,65.9,69.6,63.8,68.3z"
			/>
		<path fill="#2B1E15" d="M43.5,66.7c1,5.3,2,10.5,3,15.8c1.2,0.7,1.8,1.8,2.1,3c0.4,3.1-0.4,5.8-2.8,7.8c-3.3,1.7-5.8,0.2-6.9-2.6
			c-1.1-2.8-3.7-3.5-5.4-5.2c-1.7-1.8-4.5-2.4-5.7-5.2c1-4,5.1-5.1,7.6-7.6c1.8-2.1,0.5-5,1.8-7.4C39.7,63.6,41.9,64,43.5,66.7z"/>
		<path fill="#68553F" d="M43.5,66.7c-1.4-0.5-2.7-1-4.2-1.6c-0.7,3.5-1.4,6.5-2,9.5c-0.3-0.1-0.6-0.3-0.9-0.4
			c-1.2-0.7-2-1.8-2.6-2.9c-1.4-2.6-1.6-5.7-3.7-8c-0.5-0.9-0.6-1.9-0.5-2.9c0.5-0.5,1-0.9,1.5-1.4c1,0.1,1.9,0.2,2.9,0.3
			c1.9,4.2,6.1,3.5,9.5,4.4C43.5,64.7,43.5,65.7,43.5,66.7z"/>
		<path fill="#BBA683" d="M46.7,85.3c-0.1-1-0.1-1.9-0.2-2.9c0.1-0.6,0.3-1.2,0.4-1.8c5.2,3.4,11,6.4,10.6,14
			c-1.5,1.2-3,0.6-4.5-0.1c-0.6-0.3-1.1-0.7-1.6-1.1c-0.5-0.4-0.9-0.9-1.2-1.4c-0.5-0.7-1-1.5-1.4-2.3c-0.3-0.5-0.5-1.1-0.6-1.6
			c-0.1-0.6-0.3-1.1-0.5-1.6C47.5,86.1,47.1,85.7,46.7,85.3z"/>
		<path fill="#AA8D60" d="M104.2,68.3c0-0.6-0.1-1.1-0.1-1.7c0.1-2.6,0.2-5.2,0.3-7.9c4.8,2.3-1.9-14.5,7.6-4.6c0,0-0.1,0.1-0.1,0.1
			c-1.6,1.9,0.2,4.8-1.7,6.6c-0.3,0.4-0.6,0.9-0.8,1.4c0,0.5,0,1.1,0.1,1.6c0.1,0.6,0.2,1.2,0.2,1.8c0,0.3-0.1,0.6-0.2,0.9
			c-0.2,0.6-0.6,1.1-1,1.6C107.1,69.3,105.6,69.8,104.2,68.3z"/>
		<path fill="#CBA97C" d="M110.4,45c0,1,0,2-0.1,3c-2.5,0.1-2.4-1.3-1.6-3c0,0,0.1,0,0.1,0c0.5-0.6,1-0.6,1.5,0
			C110.3,45,110.4,45,110.4,45z"/>
		<path fill="#928772" d="M29.6,60.3c0.5,0.6,1,1.2,1.5,1.8c0.1,3.1-1.9,2.7-3.9,2.3c-0.3-0.3-0.6-0.5-0.8-0.8
			C27.5,62.5,28.6,61.4,29.6,60.3z"/>
		<path fill="#928772" d="M26.3,66.9c-0.5-1.1-0.9-2.2-1.4-3.3c0.5,0,1,0,1.5,0c0,0,0.1,0.1,0.1,0.1c0.8,0.7,1,1.6,0.6,2.6
			C26.8,66.4,26.6,66.7,26.3,66.9z"/>
		<path fill="#C1A284" d="M110.3,45c-0.5,0-1,0-1.5,0c0.5-0.5,1-1,1.5-1.6C110.3,43.9,110.3,44.5,110.3,45z"/>
		<path fill="#5B4B40" d="M37.4,74.6c-2.5,1.6-5,3.3-7.7,5c1.6,1.3,3.2,2.7,4.7,4c-0.2,0.3-0.4,0.6-0.6,0.9c-0.6,0.4-1.3,0.6-2,0.6
			c-3.2,0-5.4-1.6-6.8-4.4c0,0,0,0,0,0c-1-0.7-2-1.4-3.6-2.6c1.5-0.3,2.5-0.5,3.6-0.7c0.4-0.3,0.8-0.7,1.1-1.1
			c0.3-0.5,0.6-0.9,1-1.3c0.2-0.2,0.4-0.4,0.6-0.6c0.4-0.4,0.9-0.7,1.4-0.9c0.5-0.3,1.1-0.5,1.7-0.6c0.9-0.2,1.8-0.3,2.7-0.3
			c1.2,0.2,2.4,0.6,3.4,1.3C37.1,74.1,37.2,74.3,37.4,74.6z"/>
		<path fill="#928772" d="M26.5,77.3c-0.5,0-1,0-1.6,0.1c0-2.5,0-5-0.1-7.4c1,0,2-0.1,3-0.1c0.3,0.1,0.7,0.2,1,0.3
			c1.6,1.3,2.2,2.8,0.7,4.6l0-0.1C29,75,28.6,75.5,28,76l0,0C27.6,76.5,27.1,76.9,26.5,77.3z"/>
		<path fill="#A39A89" d="M17.2,65.2c0.5-0.5,1-1,1.5-1.6C18.2,64.2,17.7,64.7,17.2,65.2z"/>
		<path fill="#928772" d="M27.9,69.8c-0.5-1-1-1.9-1.5-2.9c0,0,0.2-0.2,0.2-0.2c1.3-1.6,3-3.6,4.5-1.1c1.3,2.1,0.1,4.2-2.9,4.4
			L27.9,69.8z"/>
		<path fill="#B6B5B0" d="M37.3,211.3c-0.6-0.7-1.3-1.4-4.5-4.7c6.8,3,10.3,4.6,13.8,6.2C42.5,218.5,40.6,210.3,37.3,211.3z"/>
		<path fill="#A5A49B" d="M73.9,214.2c1.9-1.7,3.9-3.4,6.3-5.6C81.5,214.9,77.3,214.1,73.9,214.2z"/>
		<path fill="#9B9A91" d="M76.1,205c0.2,0.1,0.3,0.2,0.5,0.3C76.5,205.1,76.3,205,76.1,205C76.2,204.9,76.1,205,76.1,205z"/>
		<path fill="#BAB9B3" d="M107.2,170.8c0-0.6-0.1-1.1-0.1-1.7c-0.8-0.9-1.1-1.9-0.9-3c1.4-3.7,4.4-5.8,7.5-7.9
			c2.1-0.9,4.1-1.7,6.1,0.2c0.4,0.6,0.5,1.3,0.5,2c-0.1,0.7-0.3,1.3-0.6,1.9c-0.8,1.4-1.2,2.9-0.6,4.5c-0.1,7.3-4.1,13.1-7.9,18.9
			c-1,1.5-2.7,1.5-3.4-0.7C104.3,180.3,104.4,175.6,107.2,170.8z"/>
		<path fill="#7E7D74" d="M114.8,159.8c-2.4,2.2-4.9,4.4-7.3,6.6c-1.5,2.5-4.5,1.5-6.5,2.9c-1.5,0.5-3.1,1-4.6,1.6
			c-0.6,0.6-1.1,0.6-1.7,0l0,0c-0.8-0.9-1.1-1.9-1-3.1c1.3-3.9,5-5.5,7.8-7.9C106,157.7,110.4,154.1,114.8,159.8z"/>
		<path fill="#97958E" d="M107.2,170.8c0.5,5.2,1,10.3,1.6,15.5c1,1,0.9,2.1,0.1,3.1c0,0-0.2,0-0.2,0c-0.8-1.2-1.6-2.3-2.6-3.7
			c-1.7,1.8-3.4,3.6-5,5.3c-0.5,0.5-1,0.5-1.5,0C103.3,184.7,99.8,175.7,107.2,170.8z"/>
		<path fill="#97958E" d="M101,169.3c2.2-1,4.3-1.9,6.5-2.9c-0.1,0.9-0.2,1.8-0.4,2.7C105.1,169.2,103.1,169.2,101,169.3z"/>
		<path fill="#8F8E84" d="M94.8,170.8c0.6,0,1.1,0,1.7,0c0,0.5-0.1,1-0.1,1.5C95.8,171.8,95.3,171.3,94.8,170.8z"/>
		<path fill="#8F8E84" d="M99.5,191c0.5,0,1,0,1.5,0c-0.5,0.5-1.1,1-1.6,1.5C99.4,192,99.4,191.5,99.5,191z"/>
		<path fill="#8F8E84" d="M93.1,183.1c0.1-0.5,0.1-0.9,0.2-1.4c0.9,0.7,1.8,1.4,2.7,2.2c-0.4,0.5-0.8,1-1.3,1.5
			C94.2,184.7,93.7,183.9,93.1,183.1z"/>
		<path fill="#8F8E84" d="M94.8,167.7c0,1,0,2.1-0.1,3.1c-1,0-2.1,0-3.1,0c0,0,0,0,0,0c-1.1-1.6-1.5-3.3,0.3-4.5
			C93.1,165.5,94.2,166.6,94.8,167.7z"/>
		<path fill="#A5A49F" d="M108.9,189.4c0-1-0.1-2.1-0.1-3.1c2.5-6.8,8.4-12.3,7.6-20.3c1.5-3.5,3.9-4.9,8.9-3
			c-3.3,7.5-4.4,15.6-10.4,21.7l0.1,0.1c-0.5,0.5-1,1-1.5,1.6l0,0c-1.4,0.6-0.1,4-3.1,3.1C109.9,189.4,109.4,189.4,108.9,189.4z"/>
		<path fill="#7D7C72" d="M110.4,189.4c1-1,2-2.1,3.1-3.1c0,1.5,0,3.1,0,4.6c-0.5,0.5-1.1,1.1-1.6,1.6
			C111.4,191.5,110.9,190.5,110.4,189.4z"/>
		<path fill="#A2A198" d="M94.8,167.7c-3.5-1.5-3.1,1.1-3.2,3.1c-1,0-2,0-3,0c-0.1-1.6-0.2-3.3-0.3-4.9c-1.2-1.5-1-3,0.1-4.4
			c-0.1-3.7,1.4-6.3,4.9-7.7c2.4,1.8,5,3.2,8,3.9c1.1,1,1.9,2.1,1.1,3.7C100,163.5,97.4,165.6,94.8,167.7z"/>
		<path fill="#7F735F" d="M23.4,96.1c1.3,2,2.5,4,4.4,6.9c2.5-6.2-5.8-8.1-3-13.1c5.5-3.8,6.9-2.8,9.2,6.2c-0.8,5.7,6.5,4.4,7.4,8.5
			c-1.8,4.6-1.8,4.6-8.3,9.3c3.2,5,8.1,9.7,4.2,16.5l0,0c-3.1,4.3-6.2,0-9.3,0l0,0c-0.6-0.4-1.1-1-1.6-1.5l0,0
			c-0.8-4.4-1.7-8.7-6.2-10.9c0-1-0.1-2-0.1-3c5.5-4.7,8.6-8.7,0.1-14.2C16.4,98.3,20.3,96.4,23.4,96.1z"/>
		<path fill="#9A8E7D" d="M37.3,130.4c-1.7-6.1-0.7-13.8-9.7-15.4c2.9-6.6,11.7-4.1,12.8-11c0.7-0.4,1.4-0.5,2.2-0.2
			c2,1.5,2.7,3.7,2.6,6.1c-0.2,6.4,0.2,12.8-0.6,19.2c0,0.8-0.1,1.5-0.4,2.2c-2.2,2.6-3.8,1.3-5.2-0.9
			C38.5,130.4,37.9,130.4,37.3,130.4z"/>
		<path fill="#948B73" d="M20.3,118c2.6-0.3,5.2-2.1,7.2,1.8c1.9,3.6,1.4,6.3-1,9.1C16.3,129.8,16.9,124.7,20.3,118z"/>
		<path fill="#6E6459" d="M39.1,130.5c1.5-0.1,3-0.1,4.6-0.2l0.5-0.6l-0.5,0.6c-0.1-6.7-0.1-13.4-0.2-20.2c0.7-0.5,1.4-0.6,2.2,0
			c3,3.2,1,7.6,2.5,11.2c0.6,1.4,1,2.9,1.3,4.3c-0.7,3.2,1.2,6.6-0.8,9.7c-0.7,0.4-1.3,0.3-1.9-0.2c-1.1-0.1-2.2-0.1-3.3-0.2
			c-0.4,0-0.8,0.1-1.1,0.2c-0.6-0.4-1.2-0.9-1.7-1.4C40,132.5,39.5,131.5,39.1,130.5z"/>
		<path fill="#9A8E7D" d="M28,130.4c3.1,0,6.2,0,9.3,0C34.2,139.8,31.1,129.7,28,130.4z"/>
		<path fill="#948B73" d="M26.5,128.8c0.5,0.5,1.1,1,1.6,1.5C27.5,129.8,27,129.3,26.5,128.8z"/>
		<path fill="#9A8E7D" d="M40.4,133.6c0.6,0.5,1.1,0.9,1.7,1.4C41.6,134.5,41,134,40.4,133.6z"/>
		<path fill="#8E836D" d="M32.5,97.9c-3.2-2,1.4-11.6-7.7-7.9c0-3.1,0.1-6.2,0.1-9.3c2.5,1.1,5.1,2.2,7.6,3.3c1.3,0.9,2,2.3,2.8,3.6
			c0.3,0.6,0.5,1.2,0.7,1.8c0.3,1.9,1,3.8,0.2,5.7C35.5,96.6,34.3,97.6,32.5,97.9z"/>
		<path fill="#AFAEAA" d="M125.5,202.2c-5.9,0.6-8.5-1.9-7.3-7.8c0.3-0.7,0.9-1.3,1.4-1.8l0,0c0.5-0.4,1.2-0.7,1.9-0.7
			c3.8-0.7,8.3,0.2,10.1-4.7c2.4-2.3,3.9-5.4,7.3-6.5c2.9-0.2,4.5,1.2,5.3,3.9c0.1,2.3-0.5,4.1-3.1,4.6c-1.5,8.8-3.1,17.7-4.6,26.5
			c-0.5,0.1-0.9,0.1-1.4,0.2c-4.3-3.7-0.7-8.6-2-12.7c-0.4-5.6-3.2-4.3-6.2-2.1C126.6,201.6,126.1,202,125.5,202.2z"/>
		<path fill="#53574F" d="M146.1,184.8c0.1,0.5,0.1,0.9,0.1,1.4c-0.9,1.9-1.8,3.8-2.8,5.7c-0.7-0.9-1.5-1.8-2.2-2.7
			c0.6-1.5,1.2-2.9,1.8-4.4C144,183.8,145,183.9,146.1,184.8z"/>
		<path fill="#AFAEAA" d="M118.6,209.9c0.5-0.5,0.9-1,1.4-1.5c3.1-1,5.4-2.7,5.5-6.2c0,0,0.5-0.5,0.5-0.5c1.5-0.7,2.8-0.3,4.2,0.3
			c3.7,1.7,5,4.1,2.3,7.7c-1.8,2.4-2.1,5.1-1.5,7.9c-0.1,0.4-0.3,0.8-0.6,1.1c-0.9,1.2-1.9,1.2-2.9,0.3c-2.2,0-4.5,0-7.9,0
			C124,214.5,118.8,212.9,118.6,209.9z"/>
		<path fill="#BFBDBA" d="M131,217.6c-7.5-4.8-1.8-8,1.8-11.3c-1.5-1.1-2.7-2-3.8-2.9c1.6-2.3,3.7-2.9,6.3-1.6c0,4.7,0,9.3,0,14
			c-0.1,0.5-0.1,1-0.1,1.5C133.7,217.4,132.3,217.5,131,217.6z"/>
		<path fill="#5D4D3F" d="M124.3,222.1c1-0.5,2-1.1,3.1-1.6C126.4,221,125.4,221.5,124.3,222.1z"/>
		<path fill="#5D4D3F" d="M116.6,226.8c1-0.5,2-1,3-1.5C118.7,225.8,117.7,226.3,116.6,226.8z"/>
		<path fill="#5D4D3F" d="M127.4,219c1-0.1,2-0.2,2.9-0.3c-1,0.6-2,1.2-3,1.8C127.4,220,127.4,219.5,127.4,219z"/>
		<path fill="#5D4D3F" d="M119.8,225.2c0.5-0.5,1.1-1,1.6-1.5C120.8,224.2,120.3,224.7,119.8,225.2z"/>
		<path fill="#5D4D3F" d="M122.6,223.5c0.6-0.5,1.1-0.9,1.7-1.4C123.8,222.5,123.2,223,122.6,223.5z"/>
		<path fill="#83837B" d="M114.9,184.7c2.5-7,5.1-13.9,8-22.1c-2.5,1.3-4.5,2.3-6.5,3.4c-3.2-3,1.7-2.8,1.8-4.5
			c0.4-0.6,0.9-1.1,1.4-1.6l0,0c0.6-3.9-1.7-9.4,5.2-10c2.5,0.7,3.5,2.5,4,4.8c-0.6,3.4-0.5,6.7,2.5,9.1c0.2,0.7,0.3,1.4,0.2,2.1
			c-0.4,1.9-1.5,3.2-3,4.4c-3.2,1.7-5.3,4-4.2,8c0.1,1,0.1,2.1-0.2,3.1c-0.3,1-0.9,1.9-1.8,2.4c-0.9,0.4-2.1,0.1-2.8,1
			c-0.5,1-1,2.1-1.5,3.1c-0.5,0.5-1,0.5-1.6,0c0.5-1,1-2.1,1.5-3.1c-0.5-0.6-1-0.6-1.6,0C116,184.7,115.5,184.7,114.9,184.7z"/>
		<path fill="#C6C4C0" d="M132.1,187.8c0.6,1.3,1.3,2.5,1.9,3.8c-4.2,1.3-8.4,4.4-12.9,0.8c-0.4-0.3-0.5-0.7-0.4-1
			c0.1-0.3,0.2-0.5,0.4-0.5l0.4,0.1c0.2-0.5,0.4-1.1,0.5-1.7c0.1-0.6,0.5-1.1,1-1.4c0.4-0.6,0.7-1.2,1.1-1.7
			c0.3-0.2,0.5-0.4,0.8-0.6c0.6-0.2,1.3-0.3,2-0.3C128.5,186.4,131.8,184,132.1,187.8z"/>
		<path fill="#56554D" d="M121.4,183.3c0.5-0.5,1-1,1.5-1.5c1.2-1.1,2.5-1,3.2,0.2c1.2,2,0,3.3-1.8,4.1c0,0-0.2,0-0.2,0
			c-1-0.5-1.9-1-2.9-1.5c-0.4-0.4-0.5-0.7-0.3-1C121,183.4,121.2,183.3,121.4,183.3z"/>
		<path fill="#7C7B70" d="M116.5,184.7c0.5,0,1,0,1.6,0C117.6,184.8,117.1,184.8,116.5,184.7z"/>
		<path fill="#7C7B70" d="M121.4,183.3c-0.1,0.5-0.2,1-0.2,1.5c-0.5,0-1,0-1.5,0C120.2,184.3,120.8,183.8,121.4,183.3z"/>
		<path fill="#7C7B70" d="M113.5,186.3c0.5-0.5,1-1.1,1.5-1.6C114.5,185.3,114,185.8,113.5,186.3z"/>
		<path fill="#7C7B70" d="M116.5,187.9c0.5,0,1,0,1.6,0C117.6,187.9,117.1,187.9,116.5,187.9z"/>
		<path fill="#7C7B70" d="M123,187.9c-0.1,0.5-0.1,1-0.2,1.5l-0.6,0.4l-0.7-0.2C121.9,189.1,122.5,188.5,123,187.9z"/>
		<path fill="#AFAEAA" d="M121.4,189.8c0.4-0.1,0.9-0.2,1.4-0.3c-0.4,0.5-0.8,1.1-1.3,1.6C121.4,190.6,121.4,190.2,121.4,189.8z"/>
		<path fill="#7C7B70" d="M121.1,190.9c0,0.5,0.1,1,0,1.5c-0.5,0.1-1,0.1-1.5,0.1C120.1,192,120.6,191.5,121.1,190.9z"/>
		<path fill="#7C7B70" d="M119.7,192.5c-0.5,0.6-1,1.2-1.4,1.8C118.7,193.7,119.2,193.1,119.7,192.5z"/>
		<path fill="#A9A292" d="M97.9,135c-1.5,1.6-3.1,3.2-5.2,5.5c-0.5-1.6-0.8-2.8-1.2-4.1c-0.6-1.9,0.5-3.2,1.6-4.5
			c1.4-1.4,2.5-3.1,4-4.4c1.4-1.4,3.1-2.5,4.5-3.9c1.2-1.1,2.8-1.6,4-2.8c0.9-0.9,2-1.6,2.9-2.4c0.9-0.9,1.6-1.9,2.4-2.8
			c0.8-0.9,1.7-1.8,2.6-2.6c1.4-1.2,2.4-2.7,3.3-4.3c1.1-2-0.4-3.8-0.4-5.7c0-1.6,0.3-3,1.6-4c4.9-0.2,5.7,3.6,6.7,7
			c0.1,1.2,0.1,2.4,0,3.6c-0.1,0.8-0.3,1.5-0.6,2.3c-0.5,1.1-1.1,2-1.9,2.9c-5.3,7.4-13.2,12-19.7,18.1
			C101.3,134.1,99.8,134.9,97.9,135z"/>
		<path fill="#7B796F" d="M97.9,135c7.7-7.3,15.5-14.6,23.2-21.8c0.6-0.5,1.3-0.5,2,0c0.3,0.7,0.5,1.4,0.4,2.1
			c-1.7,5.5-7.4,8.2-9.4,13.5c0.3,0.6,0.5,1.2,0.6,1.9c0,1.5-0.5,2.9-1.3,4.1c-2.5,2.5-5.1,5-9.2,3.4
			C102.1,137.2,100,136.1,97.9,135z"/>
		<path fill="#929188" d="M102.5,153.6c0.7-4.6-9.1-9.3,0.1-13.9c3.4,1.2,5.5-2.4,8.6-2.2c0.7,0.2,1.2,0.6,1.5,1.3
			c0.7,2.8-1.3,4.1-3.2,5.3c2.6-1.4,3.7,0.1,4.6,2c-0.7,5.6-5.7,6.2-9.5,8.2C103.8,154.4,103.1,154.1,102.5,153.6z"/>
		<path fill="#ABA79F" d="M111.7,138.1c-2.8,1.7-5.4,5.1-9.1,1.6c0.5-0.5,1-1,1.6-1.5c2.6-1.6,5.1-3.1,7.7-4.7
			C115.8,135.2,114.5,136.7,111.7,138.1z"/>
		<path fill="#645D4C" d="M94.6,133.4c-1,1-2.1,2-3.2,3c-2,2.6-4,5.2-5.9,7.9c0.9-2.7,1.9-5.4,2.8-8.1c0.5-1,1.1-1.9,1.6-2.9
			C93,130.4,93.3,130.4,94.6,133.4z"/>
		<path fill="#BAB9AF" d="M101,158.3c-4.8,2.3-6.7-0.3-7.6-4.5c2.5,0.4,5,0.9,7.6,1.3c0.5-0.4,1.1-0.4,1.6,0
			c0.4,0.5,0.5,1.1,0.5,1.7c-0.3,0.6-0.6,1-1.2,1.4C101.6,158.2,101.3,158.3,101,158.3z"/>
		<path fill="#A2A198" d="M102.5,156.8c-0.5-0.6-1.1-1.1-1.6-1.7c0.5-0.5,1.1-1,1.6-1.5c0.5,0,1,0,1.5,0c3.2-0.3,7.4-2.8,7.6,3.5
			C108.6,158,105.5,159.3,102.5,156.8z"/>
		<path fill="#63625A" d="M88.5,161.5c0,1.5-0.1,2.9-0.1,4.4c-5.2,1.3-2-2.9-2.8-4.4C86.6,161.6,87.6,161.5,88.5,161.5z"/>
		<path fill="#76766C" d="M94.7,143.4c0.3,0.4,0.6,0.7,0.9,1c-0.4,0.2-0.7,0.5-1.1,0.7c-0.1,0-0.5-0.4-0.5-0.4
			C94.1,144.3,94.4,143.9,94.7,143.4z"/>
		<path fill="#C4B298" d="M87,131.9c-5.2,3.9-9.3-1.8-14.1-1.5c-0.8,0.8-1.8,0.7-2.8,0.6c-1.6-0.8-3.3-0.1-4.9-0.1c-1,0-2-0.2-3-0.4
			c-1.9-0.8-4.1-1-5.8-2.2c-0.6-0.5-0.9-1.1-1-1.8c0.1-0.7,0.5-1.3,1-1.8c1.2-0.9,2.6-1.1,4-1.2c2-0.1,4,0.1,5.9-0.5
			c0.9-0.4,1.9-0.7,2.8-1c0.7-0.2,1.3-0.2,2-0.1c0.6,0.3,1.2,0.7,1.5,1.3c1,0.7,2,1.2,3.5,0.7c-1.3,0.2-2.2-0.1-3.1-0.6
			c-1.5-1.9-2.5-4.2-4.5-5.7c-3.6-4.5-7.9-8.5-5.8-15.4c0.9-2.8-5.2-3.5-3.8-7.4l0.3-0.3c1.7-2.6,3.4-5.2,7.2-4.5
			c8.1,1.8,16,1.5,23.4-2.6c3.3-0.7,5.6-2.2,5.7-6c0-2,0.6-4,2.4-5.4L98,76c0.3-0.2,0.7-0.3,1-0.5c0.8,0.2,1.4,0.6,1.9,1.1
			c1,1.2,1.5,2.7,1.7,4.3c0.2,7.5-2.2,13.8-8.4,18.3c-4.5,3.5-9.8,5.1-16.4,6.6c3,1.3,4.1,0,5.6-0.8c7.3-4,10.2-2.3,10.6,6.1
			c0.1,1.8,0,3.6,0.1,5.4c0.2,1.8,0.4,3.6,0.1,5.4C93.4,126.4,88.2,127.7,87,131.9z"/>
		<path fill="#9F8E74" d="M87,131.9c-4.7-6.3,1.6-6.9,4.7-9.2c2.1-1,2.9,0.7,4.1,1.8c0.9,1,1.3,2.2,1.8,3.5c0.1,0.3,0.2,0.6,0.2,0.9
			c-1.1,1.5-2.2,3-3.3,4.6c-1.6,0-3.1,0-4.7-0.1C89,132.9,88,132.4,87,131.9z"/>
		<path fill="#B9BBB5" d="M68.2,132.2c2.3,0.8,4.6,1.6,6.9,2.4c-0.1,0.7-0.2,1.4-0.3,2c-6.8-1-13.6-2.1-20.4-3.1
			c-0.4-0.1-0.7-0.2-1.1-0.4c-0.6-0.5-0.9-1.2-0.9-2c0.2-0.3,0.4-0.7,0.5-1c1.6-1.6,3.6-1.1,5.5-1C61.4,131,65.6,129.2,68.2,132.2z"
			/>
		<path fill="#A29B8F" d="M48.6,134.8c-0.2-3-0.3-6-0.5-8.9c0.3-0.2,0.6-0.5,0.9-0.7c2.7-0.6,5.1,0,7,2.1l0,0c1.8,3.4-4.9,1.2-3,4.6
			l-0.1,0c0.5,0.5,0.9,1.1,1.6,1.6c0,0,0,0,0,0c0,1,0,2,0,2.9C51.8,138.4,50.1,136.9,48.6,134.8z"/>
		<path fill="#8E8E87" d="M68.2,132.2c-3.5-0.6-7.1-1.2-10.6-1.8c0.4-3.8,2.7-2,4.6-1.5c1,0,2,0.1,3,0.1c1.3,1.3,3.4,0.1,4.8,1.4
			c1,0,2,0.1,2.9,0.1C71.4,131,69.8,131.6,68.2,132.2z"/>
		<path fill="#5E5A4F" d="M48.6,134.8c1.9,0.5,3.9,1.1,5.8,1.6c0.4,0.2,0.8,0.3,1.2,0.4c-3.5,1.7-7,3.8-9-1.8
			C47.3,135,47.9,134.9,48.6,134.8z"/>
		<path fill="#7D7462" d="M135.2,79.2c1.1-0.5,2.1-1,3.2-1.5c1.3,1.4,3,1.5,4.7,1.4c3.5,1.1,7.1,2.2,10.6,3.3c0.6,2.9,0.5,6.1,4.3,7
			c4.3,6.1,3.8,11.1-1.6,17.6c-2.8,1.1-5.5,1-7.7-1.4c-0.8-1.4-1-2.8-0.3-4.2c0,0,0.2-0.4,0.2-0.4s-0.4,0.3-0.4,0.3
			c-0.9,3-2.2,5.6-5.5,6.4c-6.4-5.8-6.4-7.6-0.1-14.8c1.4-4.8-3.7-5.1-5.4-7.7C135.8,83.4,133.9,81.8,135.2,79.2z"/>
		<path fill="#362922" d="M128.9,69.8c-5.2,5.9-11.2,2.1-17,1.6c-2.6-2.3-1.6-5.1-1.1-7.8c6.7-5.5,9.6-5.2,16.6,1.6l0,0
			c0.5,0.5,1,1,1.5,1.5l0,0C129.9,67.8,129.9,68.8,128.9,69.8z"/>
		<path fill="#473C2A" d="M141.3,52.9c3.1,6,3.1,6,12.5,9.8c0,3.4,0,6.8,0,10.3c-1.5-0.5-3.1-1-4.6-1.5c-0.8-0.9-1.4-1.9-1.6-3.1
			c-2.6-3.6-5.2-7.2-7.8-10.8C139.8,55.8,139.9,54.1,141.3,52.9z"/>
		<path fill="#796C5F" d="M127.5,77.7c2.1,0.4,4.2,0.9,6.3,1.3c-1.6,4.5-4.8,7.7-8.4,10.5c-2,0.7-4.2,0.8-6.3,1.4
			c-0.8,0-1.5-0.1-2.2-0.4c-2.7-1.7-4.9-3.9-5.3-7.3c0-1.7,0.3-3.2,1.8-4.2c1,0.6,2.1,1.1,3.1,1.7C121.3,83.7,124.8,82.2,127.5,77.7
			z"/>
		<path fill="#8A7D74" d="M124.3,88.5c3.2-3.2,6.4-6.4,9.5-9.6c0.5,0.1,0.9,0.1,1.4,0.2c1,1.5,2.1,3.1,3.1,4.6
			c-1.7,2.9-4.4,5-6.7,7.2C128.5,93.9,125,94.2,124.3,88.5z"/>
		<path fill="#48372D" d="M127.4,65.1c-5-1.7-9.8-5.3-15.3-1.5c-0.6-0.5-0.9-1.1-1-1.9c1.2-3.4,5.2-2.2,7.1-4.4
			C124.7,56,126.5,60,127.4,65.1z"/>
		<path fill="#362A1A" d="M147.6,68.2c2.4,0.1,2.4,1.4,1.6,3.1c-1.2,1.6-2.2,4.2-3.6,4.5c-3.1,0.6-5.8-1-6.8-5.7
			C143,73.2,144.8,69.5,147.6,68.2z"/>
		<path fill="#745F45" d="M111.9,62.1c0,0.5,0.1,1,0.2,1.5c-0.1,2.6-0.1,5.1-0.2,7.7c0.5,2.6,1,5.1,1.5,7.7c0,1.7-0.1,3.3-0.1,5
			c-0.9,1.4-2.2,2.2-3.9,2c-0.8-0.2-1.4-0.7-1.8-1.4c-1-1.9-1-3.8-0.6-5.8c1.7-3.6,0.4-7.9,2.2-11.5c0.3-0.8,0.4-1.5,0.3-2.3
			C109.4,63.3,109.3,61.5,111.9,62.1z"/>
		<path fill="#62554A" d="M127.5,77.7c0,3.3-1.2,6.2-4.5,7.2c-3.3,1-4.9-1.8-6.5-4.1C120.2,79.7,123.9,78.7,127.5,77.7z"/>
		<path fill="#8F7048" d="M111.9,62.1c-0.6,1.1-1.2,2.1-1.7,3.2c-0.5,0.7-1,0.7-1.4-0.1l0,0c-0.5-0.6-1-1.1-1.5-1.6c0-0.5,0-1,0-1.6
			c-0.4-0.4-0.5-0.7-0.3-1c0.1-0.3,0.3-0.5,0.4-0.5c3.9-0.3-0.3-6.6,4.6-6.2c0.7,1.2,1.5,2.5,2.3,3.9c1.5-0.9,2.8-1.6,4-2.3
			c0,0.5,0,1,0.1,1.5C116.1,59,114,60.6,111.9,62.1z"/>
		<path fill="#6A5E4E" d="M136.8,68.7c-0.7,0.8-1.2,1.3-1.6,1.7c-0.4-0.5-1-1-1.1-1.6c-0.1-0.3,0.6-1.2,0.7-1.2
			C135.4,67.8,135.9,68.2,136.8,68.7z"/>
		<path fill="#2C1A0A" d="M141.3,52.9c-0.5,1.5-1,3.1-1.5,4.6c-0.5-1.6-1-3.1-1.5-4.7C139.3,52.8,140.3,52.8,141.3,52.9z"/>
		<path fill="#8A7D74" d="M143,79.1c-2.3,2.1-3.9,1.9-4.7-1.4c1,0,2,0,3.1,0C141.9,78.2,142.5,78.6,143,79.1L143,79.1z"/>
		<path fill="#48372D" d="M128.9,69.8c0-1,0.1-2,0.1-3.1c0.6,0.5,1.3,0.9,1.9,1.4C130.2,68.6,129.6,69.2,128.9,69.8z"/>
		<path fill="#7D7462" d="M143,79.1c-0.5-0.5-1.1-0.9-1.6-1.4C141.9,78.2,142.5,78.7,143,79.1z"/>
		<path fill="#48372D" d="M129,66.7c-0.5-0.5-1-1-1.5-1.5C128,65.7,128.5,66.2,129,66.7z"/>
		<path fill="#D8C7B5" d="M66.7,91.5c-2.5,1-5,2-7.5,3c-0.6-5.6-1.1-11.3-1.7-16.9c0.5-0.6,0.9-1.1,1.5-1.6l0,0
			c0.5-0.5,1-1.1,1.5-1.6l0,0c1.6-1.7,1.5-4.4,3.1-6.1c0,0,0.1,0,0.1,0c1.6-0.5,3.1-0.9,4.7-1.4c1.6,0.5,3.2,1.1,4.8,1.6
			c0,0.3,0,0.6,0.1,0.9c-0.1,0.6-0.2,1.2-0.4,1.7c-0.5,1.1-1,2.1-1.4,3.2c-0.4,1.3,0.1,2.4,0.3,3.6c0.2,0.7,0.2,1.4,0.3,2.1
			C72.2,84.8,72.5,89.6,66.7,91.5z"/>
		<path fill="#A99372" d="M58.9,94.8c3.5,2.3,7,4.7,11.4,7.7c-2.8,0.8-4.5,1.3-7.7,2.2c2.7,4.2,5,7.9,7.4,11.6
			c1.5,2.1,1.6,4.3,0,6.4c0,0.5-0.1,1-0.1,1.5c-0.5,0.5-1,1-1.5,1.5c-2.6,0-5.1,0-7.7-0.1c-0.5-0.5-0.8-1.2-0.6-2
			c-0.7-8.9-0.8-18-6.3-25.7c-0.8-0.9-1.2-1.8-1.5-3c0-0.4,0-0.7,0-1.1c0.2-0.3,0.4-0.6,0.6-0.9c1.5,0.6,3,1.1,4.5,1.7
			C58,94.7,58.5,94.8,58.9,94.8z"/>
		<path fill="#CFB699" d="M63.8,68.4c-1,2-2.1,4.1-3.1,6.1C61.7,72.4,62.7,70.4,63.8,68.4z"/>
		<path fill="#CFB699" d="M59.1,76.1c-0.5,0.5-1,1.1-1.5,1.6C58.1,77.1,58.6,76.6,59.1,76.1z"/>
		<path fill="#CFB699" d="M60.6,74.5c-0.5,0.5-1,1-1.5,1.6C59.6,75.5,60.1,75,60.6,74.5z"/>
		<path fill="#D6C4B7" d="M97.9,76.1c-2.4,4.4,6.3,15.8-8,12.7c-0.9,0.2-1.7-0.1-2.3-0.8c-1.3-5.4-4.9-10.6-0.7-16.2
			C92.6,67.6,93.8,75.4,97.9,76.1z"/>
		<path fill="#8F654D" d="M70,73c0.5-1,1-2.1,1.5-3.1c0.5-0.6,1-1.1,1.7-1.5c0,0,0.1,0.1,0.1,0.1c2-0.1,3.9-0.1,5.9-0.2
			c1.4,1.3,3.4,0.1,4.8,1.3l0.1,0c1.9,2.7,2.6,5.6,2.1,8.9c-1.1,2.6-2.5,4.9-5.1,6.3c-1.5,0.6-3,0.7-4.6,0.2
			c-3.6-1.1-4.6-4.8-6.7-7.3l0.1,0C69,76.1,68.8,74.5,70,73z"/>
		<path fill="#A9866C" d="M85.4,79.1c-0.4-3.1-0.9-6.2-1.3-9.3c0.9,0.6,1.8,1.3,2.7,1.9c0.7,5.6,1.3,11.1,2,16.7
			c-0.6,0.4-1.3,0.6-2.1,0.5c-1.1-0.3-2-1-2.8-1.8C81.6,83.9,83.5,81.5,85.4,79.1z"/>
		<path fill="#A9866C" d="M84,69.7c-1.6-0.4-3.2-0.9-4.8-1.3C80.8,68.8,82.4,69.3,84,69.7z"/>
		<path fill="#BA9367" d="M97.9,72.9c1,0,2.1,0,3.1,0.1c0.8,1.7,1.1,3.1-1.6,3l0,0c-0.6-0.4-1-1-1.4-1.6
			C98,73.9,97.9,73.4,97.9,72.9z"/>
		<path fill="#C3A97A" d="M98,74.5c0.5,0.5,1,1,1.4,1.6c0,0-0.7,0-0.7,0S98,76,98,76C98,75.5,98,75,98,74.5z"/>
		<path fill="#C3A97A" d="M99.5,76c0.5-1,1-2,1.6-3c0,0,0,0,0,0c0.5-0.5,1-1.1,1.5-1.6c0.5-0.5,1-1.1,1.5-1.6c1.6-1,3.2-1.2,4.8,0.1
			c0.8,2.1-1.6,4.5,0.5,6.5c0,0.7-0.2,1.4-0.6,2c-3.7,6.2-4.5,6.3-7.7,0.8C100.5,78.1,100,77.1,99.5,76z"/>
		<path fill="#AF9672" d="M108.7,77.5c0-0.5,0-1,0-1.5c-1.2-1.5-1.1-3,0.1-4.5c-1.5-0.6-3.1-1.1-4.6-1.7c0-0.5,0-1,0.1-1.4
			c1.5-0.5,3.1-1.1,4.6-1.6c0.5-0.7,0.9-0.7,1.2,0.1c-0.4,4.2-0.8,8.3-1.1,12.5C108,78.8,108,78.2,108.7,77.5z"/>
		<path fill="#BA9367" d="M102.6,71.4c-0.5,0.5-1,1-1.5,1.6C101.6,72.4,102.1,71.9,102.6,71.4z"/>
		<path fill="#5B4B40" d="M34.5,83.6c6.2,0,4.9,8.5,10.4,9.3c0.3,0.2,0.6,0.5,0.9,0.7c0.3,0.7,0.4,1.4,0.3,2.2
			c-0.4,1.5-1.4,2.6-2.8,3.3c-1.5,0.5-3,0.5-4.4-0.1c-1-0.5-1.8-1.3-2.3-2.4c-0.1-2.9-0.6-5.6-2.2-8.1l0,0c-1.3-1.3-0.9-2.8-0.4-4.3
			L34.5,83.6z"/>
		<path fill="#5B4B40" d="M46.7,85.3c0.4,0,0.8,0.1,1.1,0.2c1.3,0.6,1,2.2,1.8,3.1l0,0c1.1,0.7,0.7,2.2,1.7,2.9l0.1,0.1
			c0.2,0.3,0.3,0.6,0.5,0.9c-0.1,0.7-0.5,1.2-1,1.6c-0.9,0.4-1.9,0.6-3,0.5c-1-0.2-1.9-0.7-2.7-1.3c0,0-0.3-0.3-0.3-0.3
			C45.5,90.4,46.1,87.8,46.7,85.3z"/>
		<path fill="#8A7F69" d="M28.1,69.9c0.7-1.2,1.4-2.3,2.8-4.6c-2.3,0.7-3.4,1-4.4,1.4c0-1,0-2-0.1-3c1.5-0.5,3.1-1,4.6-1.5
			c1.7,3,3.3,6.1,5,9.1c-0.5,1.8-2.4,1.9-3.4,3.1c-1,0.1-2.1,0.2-3.1,0.3C29.1,73,28.6,71.5,28.1,69.9z"/>
		<path fill="#928772" d="M32.7,74.3c1.1-1,2.2-2.1,3.4-3.1c0.3,0.9,0.6,1.8,0.9,2.7C35.5,74,34.1,74.2,32.7,74.3z"/>
		<path fill="#A99372" d="M51.4,91.4c-0.6-1-1.1-1.9-1.7-2.9C50.2,89.5,50.8,90.5,51.4,91.4z"/>
		<path fill="#A99372" d="M49.7,88.5c-0.6-1-1.2-2-1.8-3.1C48.5,86.5,49.1,87.5,49.7,88.5z"/>
		<path fill="#A99372" d="M51.4,93.1c-0.1-0.5-0.1-1,0-1.5c0.5,0.5,1.1,0.9,1.6,1.4c0,0-0.2,0.2-0.2,0.2
			C52.3,93.6,51.9,93.6,51.4,93.1z"/>
		<path fill="#A4835A" d="M107.2,63.6c0.5,0.5,1,1,1.5,1.6C108.2,64.7,107.7,64.1,107.2,63.6z"/>
		<path fill="#A4835A" d="M107.3,60.5c0,0.5-0.1,1-0.1,1.5c-0.1-0.4-0.3-0.7-0.4-1.1C106.8,60.9,107.1,60.7,107.3,60.5z"/>
		<path fill="#A4835A" d="M110,66.9c-0.4-0.1-0.8-0.1-1.2-0.1c0-0.5,0-1,0-1.5c0.5,0,0.9,0,1.4,0.1C110.2,65.8,110.1,66.4,110,66.9z
			"/>
		<path fill="#7F735F" d="M33.9,84.1c0.1,1.4,0.2,2.9,0.4,4.3c-0.6-1.5-1.1-3-1.7-4.5C33.1,83.9,33.5,84,33.9,84.1z"/>
		<path fill="#8A7F69" d="M28,76c0.5-0.5,1.1-1,1.6-1.5C29.1,75,28.5,75.5,28,76z"/>
		<path fill="#8A7F69" d="M26.5,77.3c0.5-0.4,1-0.8,1.5-1.2C27.5,76.4,27,76.9,26.5,77.3z"/>
		<path fill="#9B998C" d="M147.5,141.2c-0.5,0.2-0.9,0.2-1.4,0.2c-1.4-1.6-1.6-3.5,0-4.8c1.8-1.5,3.3-0.3,4.5,1.4
			c0,0,0.2,0.3,0.2,0.3C149.7,139.3,148.6,140.2,147.5,141.2z"/>
		<path fill="#96978F" d="M102.5,156.8c3.1-0.5,6.2-1,9.3-1.6c0.2-0.3,0.4-0.5,0.6-0.8c2.5-1.8,4.9-3.8,5.4-7.1
			c0.6-1.1,1.3-1.9,2.5-2.3c3.6,0.2,5.6,1.5,3.9,5.5c-1.6,3.1-3.1,6.2-4.7,9.3c-1.6,0-3.2-0.1-4.8-0.1c-4.4-1.5-8.4-0.5-12.3,1.6
			c-0.5-1-1-2.1-1.6-3.1c0,0,0,0,0,0C101.6,157.9,102.1,157.4,102.5,156.8L102.5,156.8z"/>
		<path fill="#96978F" d="M119.7,159.9c-0.5,0.5-1,1.1-1.4,1.6C118.7,161,119.2,160.5,119.7,159.9z"/>
		<path fill="#9D8F7B" d="M37.4,96.2c0.6,0.5,1.2,1,1.7,1.5c0.7,0.8,1.7,1,2.6,1.6c1.2,1.5,4.7,2.9,0.2,4.7c-0.5,0-1,0-1.5,0
			c-3.4-3.1-4.9,2-7.9,2c0-2.9,0-5.5,0-8.1c1.1-1,2.1-2.1,3.2-3.1C36.7,94.7,36.8,95.7,37.4,96.2z"/>
		<path fill="#7F735F" d="M41.9,104c-0.5-1.6-0.9-3.2-1.4-4.7c0.7-1,2.2-0.4,2.8-1.5c0.6-1,1.2-2,1.8-3c0.8-0.9,1.9-0.9,2.9-0.5
			c1,0.7,1.3,1.6,1.4,2.7c0,1-0.2,2.1-0.5,3.1c-0.2,0.6-0.4,1.3-0.6,1.9c-0.8,1.6-0.3,3,0.6,4.5c0.4,1,0.5,2,0.3,3
			c-0.2,0.7-0.7,1.2-1.2,1.6c-1.1,0.3-2,0.2-2.8-0.6c-0.6,0-1.2-0.1-1.8-0.1C42.9,108.1,42.4,106,41.9,104z"/>
		<path fill="#BAAB97" d="M29.1,113.3c4.3,0.2,6.3,0.3,9.1,0.4C35.2,117.4,33.3,115.1,29.1,113.3z"/>
		<path fill="#A29B8F" d="M45.2,110.2c0.9,0,1.8,0.1,2.7,0.1c4.6,2.8,7.7,6.2,4.6,12c-1.6,1.2-3.3,0.9-5,0.5c-0.3,0-0.7,0-1,0
			C46.1,118.6,45.7,114.4,45.2,110.2z"/>
		<path fill="#463A2C" d="M43.6,130.3C43.6,128.9,43.6,127.4,43.6,130.3C44.5,127.6,44.1,129,43.6,130.3
			C43.6,130.3,43.6,130.3,43.6,130.3z"/>
		<path fill="#A29B8F" d="M48.1,125.8c-0.5-1-1-2.1-1.5-3.1c0,0,0.2-0.2,0.2-0.2c2.7,0,2.5,1.3,1.5,3.1L48.1,125.8z"/>
		<path fill="#7F735F" d="M37.4,96.2c-0.6-0.5-1.1-1-1.7-1.4c-0.5-2.1-0.9-4.2-1.4-6.3C37.6,90.1,37.2,93.3,37.4,96.2z"/>
		<path fill="#C8C6C3" d="M135.2,201.9c-2.1,0.5-4.2,1-6.3,1.6c-1-0.6-2-1.1-2.9-1.7c-1.2-0.9-2.4-1.7-3.6-2.6
			C126.5,201.2,134,188.1,135.2,201.9z"/>
		<path fill="#999993" d="M144.4,177.1c0.1,0.5,0.2,1,0.4,1.4c0.3,0.6,0.7,1.2,1.1,1.7c0,0.5,0.1,0.9,0.2,1.3c0,1.1-0.1,2.1-0.1,3.2
			c-1,0-2,0-3,0.1c-1.6-1.1-3.1-2.1-4.7-3.2c-0.3-0.2-0.6-0.3-0.9-0.5c-1.4-2.1-3.6-3.4-5.3-5.2c-0.4-0.6-0.6-1.3-0.6-2.1
			c1.4-3.8,4.5-4.5,8.1-4.2c0.7,0.2,1.3,0.6,1.9,1.1l0,0c0.7,0.7,0.8,1.6,0.7,2.5c-0.2,1.1-0.4,2.3,1,2.9
			C143.6,176.4,144.1,176.7,144.4,177.1z"/>
		<path fill="#999993" d="M132.1,187.8c-1.9-1.5-5.1,3-6.4-1.4c1-1.2,1-2.8,1.6-4.1c1-1.5,2.2-2.6,4-3c2.7-0.4,5.1,0.3,7,2.4
			c0,0,0,0,0,0C136.7,184.2,137,188.5,132.1,187.8z"/>
		<path fill="#5A5C50" d="M138.3,142.8c0.4,6.2,4.1,12.4,0.2,18.7c-1.6,1.3-1.3,3.8-2.8,5c-1.7,1.3-3.8,3.5-5.2-0.4
			c0.1-0.5,0.1-1,0.2-1.5c-0.9-3-4.1-5.4-2.4-9.1c0.5-3.3-0.8-6.3-1.7-9.3c0-2.6,1.3-4.8,1.7-7.3c3.3-3.8,5.9-0.7,8.6,1
			C137.6,140.7,137.8,141.8,138.3,142.8z"/>
		<path fill="#6A6B5F" d="M130.4,166.1c4.7,2,4.7-4.1,8-4.6c0.4,2.1,0.8,4.2,1.1,6.2c1.2,0.7,1.1,1.7,0.6,2.8
			c-2.7,1.1-5.5,2.2-8.2,3.3c-1.9,1.8-3.4,0.8-4.9-0.6c-0.4-0.6-0.6-1.4-0.7-2.1c0.1-0.8,0.5-1.4,1.1-1.9
			C128.5,168.2,129.5,167.2,130.4,166.1z"/>
		<path fill="#76746D" d="M127.5,172.3c1.5,0.5,3,1,4.5,1.5c0,0.5,0,1.1,0.1,1.6c0,0.3,0,0.6,0,0.9c-0.4,2-2.6,2.7-3.1,4.6
			c-0.3,0.9-0.8,1.6-1.5,2.3c0.8,1.8,0.8,3.1-1.7,3.2c-0.5-0.1-1-0.2-1.5-0.2c0.9-1.9,2.5-4-1.4-4.4c0-1.1-0.1-2.2-0.1-3.3
			c-0.6-2.8,1.3-4.6,2.8-6.6C126.3,171.7,126.9,171.8,127.5,172.3z"/>
		<path fill="#74766B" d="M127.4,146c4.4,2.5,3.2,5.8,1.4,9.2c-0.4,1-0.9,1-1.5,0.1c-1-1.6-2-3.1-3.1-4.7c-0.3-2.9-1.8-4.5-4.8-4.5
			c-2,0.2-2.3-1.1-2.2-2.6c0.3-0.7,0.8-1.1,1.4-1.4c1.8-0.4,3.4,0.2,5,0.7c0.9,0.4,1.8,0.9,2.5,1.7C126.6,144.9,127,145.5,127.4,146
			z"/>
		<path fill="#6A6B5F" d="M127.4,155.3c0.5,0,1,0,1.5-0.1c0.3,3.1-1.3,8.2,7.1,6.9c-1.8,0.8-3.6,1.7-5.4,2.5
			C124.1,163.3,124.8,159.6,127.4,155.3z"/>
		<path fill="#9B9A94" d="M126.1,172.4c-1.1,2-2.2,4-3.3,6c-2-4.9-0.7-8.1,4.8-9.2c-0.1,0.5-0.1,1-0.1,1.5
			C126.9,171.3,126.5,171.9,126.1,172.4z"/>
		<path fill="#695030" d="M110.2,119.5c-1,1-2,2-3,3c-1,1.2-2.1,0.9-3.3,0.5c-3.6-9-1.2-18.5-2.4-27.7c-0.3-2.3,1.8-4.6,4.4-5.7
			c0.9,0,1.7,0.3,2.3,0.9c4.8,6.4,2.2,13.9,2.9,20.9c0,1.5,0,2.9-0.4,4.4C110.3,116.9,110.2,118.2,110.2,119.5z"/>
		<path fill="#726A5E" d="M118.1,90c0.5,0,1,0,1.5,0c0.4,0.1,0.8,0.1,1.2,0.2c0.7,0.3,1.4,0.8,1.9,1.4c1,1.2,1.7,2.7,2.1,4.2
			c-0.4,3.7,4.6,8.3-1.8,11c-1.5-2.5-3.1-4.9-4.6-7.4c-0.5,0.6-1,0.7-1.7,0.4c-0.5-0.5-0.8-1-0.9-1.7c0-1,0.2-1.9,0.6-2.8
			C116.8,93.5,116.2,91.3,118.1,90z"/>
		<path fill="#413424" d="M114.8,114.8c-0.9,0.7-1.8,1.4-2.6,2.1c-0.7-0.3-1.2-0.8-1.5-1.5c-0.3-2.2-0.6-4.4-1.1-6.6
			c0.2-2.3-0.6-4.7,0.8-6.8c2.4-0.9,3.9,0.3,4.9,2.3c0.4,1.6,1.2,3.1,1.3,4.8C116.1,111,116.3,113.1,114.8,114.8z"/>
		<path fill="#8F8777" d="M123,106.8c3.4-4.1-1.3-8.1-0.2-12.1c0.4-0.2,0.7-0.3,1.1-0.5c0.4,0.1,0.8,0.1,1.2,0.2
			c1.1,0.6,1.9,1.4,2.4,2.5c1.2,3.5,1.2,7.1,0.2,10.7c-0.3,0.8-0.8,1.4-1.3,2c-1,0.8-2.1,1.2-3.4,0.7
			C122.9,109.1,122.9,108,123,106.8z"/>
		<path fill="#6C5B48" d="M113.5,105.6c-1.1-1.1-2.1-2.1-3.2-3.2c-1.2-1.4-0.7-2.6,0.5-3.6c2.1-1,3.9,0.7,5.9,0.5
			c0.5,0,1.1,0.1,1.6,0.1c0,1.5-0.1,2.9-0.1,4.4c0.6,0.9,0.7,2,0.5,3c-0.4,0.6-1,0.9-1.7,1C115.5,107.7,114.6,106.6,113.5,105.6z"/>
		<path fill="#726A5E" d="M122.9,110.3c0.9-0.5,1.9-1,2.8-1.5c3.3,2.8,2.6,6.2,1.5,9.7c-2.2,2.7-3.6,1.2-4.9-1
			c-0.2-0.9-0.1-1.7,0.3-2.5c0-0.6,0-1.2,0-1.8c-0.4-0.3-0.5-0.7-0.4-1c0.1-0.4,0.2-0.5,0.3-0.5
			C122.7,111.2,122.8,110.8,122.9,110.3z"/>
		<path fill="#7E766A" d="M116.6,107c0.5,0,1,0.1,1.5,0.1c0.9,1,0.9,2,0,3c-1.1,1.6-2.2,3.1-3.3,4.7c0-2,0-3.9,0-5.9
			C114.3,107.2,115,106.7,116.6,107z"/>
		<path fill="#726A5E" d="M118.1,110.1c0-1,0-2,0-3c0-1.1,0.1-2.2,0.1-3.3C118.6,105.9,123.9,108.1,118.1,110.1z"/>
		<path fill="#9F8E74" d="M102.7,124.4c-1.6,1.5-3.2,3-4.8,4.5c0,0-0.3-0.3-0.3-0.3c-1.5-2.7,0.2-3.9,2.3-5c0.7-0.2,1.4-0.2,2.1,0
			C102.3,123.9,102.5,124.1,102.7,124.4z"/>
		<path fill="#54402B" d="M110.2,119.5c-0.4-0.5-0.9-1-1.3-1.6c0.7-1,1.2-2.3,2.8-1.8c0.2,0.2,0.3,0.5,0.4,0.8
			C111.5,117.8,110.8,118.6,110.2,119.5z"/>
		<path fill="#9F8E74" d="M104.1,122.6c1,0,2-0.1,3-0.1c-1.5,0.6-2.9,1.3-4.4,1.9c0,0-0.3-0.3-0.3-0.3
			C102.3,122.8,102.8,122.2,104.1,122.6z"/>
		<path fill="#8F8777" d="M122.6,111.7c0,0.5,0.1,1,0.1,1.6c-0.5,0-1,0-1.6-0.1C121.6,112.7,122.1,112.2,122.6,111.7z"/>
		<path fill="#878677" d="M120.1,143c-0.6-0.1-1.3-0.1-1.9-0.2c-1.3,0.2-2.5,0.1-3.6-0.6c-1.5-0.9-1.6-2.7-2.5-3.9
			c0,0-0.4-0.2-0.4-0.2c0-1.5,0.1-3.1,0.1-4.6c0.5-1,1-2.1,1.6-3.1c2-5.7,5.7-3.4,9.2-2c1.3,0.5,2,1.6,2.7,2.7
			c0.8,2.3,2.5,2,4.3,1.7c0.7,0,1.3,0.2,2,0.5c2.3,2.3,6.7,3.4,5,8.2c-2.8,0.6-4.3-4.7-7.7-1.7c-0.6,0.8-1.5,0.9-2.4,0.7
			c-0.3-0.2-0.5-0.9-0.9-0.2c0.5-0.1,0.7,0.2,0.4,0.8C124.6,143.4,122.2,142.8,120.1,143z"/>
		<path fill="#605C4F" d="M122.7,128.6c-1.2,2-2.5,4-5.5,9c0.5-5.4,0.7-7.5,1-10.1c-1.8,1.1-3.3,2-4.7,2.9c0-0.5,0-1,0-1.6
			c0.5-4.5,3.9-6.5,7.4-8.3c2.4,0.8,3.2,2.9,4.1,4.9C125,127.1,124.4,128.2,122.7,128.6z"/>
		<path fill="#938F83" d="M121.2,121.1c-2.6,2.6-5.2,5.2-7.8,7.7c-2.1,0.8-4.1,1.6-1.9,0.7c2-2.6,6.6-8.6,11.1-14.6
			c0.1,0.6,0.2,1.1,0.3,1.7c0.5,0.4,0.6,0.8,0.4,1.4c-0.2,0.7-0.4,1.5-0.8,2.2C122.1,120.6,121.7,120.9,121.2,121.1z"/>
		<path fill="#B1B1A8" d="M115.3,141.5c1,0.4,2,0.9,2.9,1.3c0.4,1.1,0.9,2.1,1.3,3.2c0,1,0.1,2,0.1,2.9c-0.8,4.3-5.2,4.1-7.8,6.2
			c0,0,0,0,0,0c-2.6-0.5-5.2-1.1-7.8-1.6c3-2.7,6.1-5.3,9.1-8c-0.3-0.4-0.5-0.9-0.5-1.5c0.2-0.8,0.6-1.5,1.1-2.1
			C114.2,141.7,114.7,141.5,115.3,141.5z"/>
		<path fill="#737167" d="M113.6,144.6c-0.1,0.4-0.2,0.7-0.4,1.1c-1.4-0.5-2.8-1.1-4.4-1.6c1.1-2,2.2-3.8,3.3-5.7
			c1.1,1.1,2.1,2.1,3.2,3.2c-0.1,0.4-0.2,0.9-0.3,1.3C114.4,143.3,113.9,143.9,113.6,144.6z"/>
		<path fill="#A2A198" d="M102.6,156.8c-0.5,0.5-1,1-1.6,1.6C101.5,157.8,102,157.3,102.6,156.8z"/>
		<path fill="#98765D" d="M87.1,88.4c0.5,0,1.1,0,1.6,0c0.4,0.1,0.7,0.2,1.1,0.4c-7.1,6.1-14.8,6.9-23.1,2.8c3-4.2,3.4-8.9,3-13.8
			c2.2,2,4.3,4.1,6.5,6.1c0.9,1.5,2.3,1.6,3.8,1.5c0.6,0,1.2,0,1.8,0.2c0.6,0.2,1.1,0.5,1.5,0.9c0.8,0.9,1.6,1.7,2.9,1.9
			C86.5,88.4,86.8,88.4,87.1,88.4z"/>
		<path fill="#AD9B7C" d="M91.7,116.4c2.8-23.8-11.7-0.9-16.8-8c-0.1-0.4-0.7-3.1-1.5-7.1c7.8,2.7,14.1,0.7,19.8-3.6
			c1.7,0.6,2.6,1.9,3.2,3.5c0.6,2,0.6,4,0.2,6.1c-1.5,2.9-0.5,6.5-2.8,9.1C93.2,116.9,92.5,117,91.7,116.4z"/>
		<path fill="#AE9972" d="M94.8,100.9c-0.5-1.1-1-2.1-1.6-3.2c6.2-4.7,6.5-11.8,7.9-18.5c3.7,4.8,5.5,0.8,7.6-1.7
			c0.1,0.6,0.1,1.2,0.2,1.8c0,2,0,4-0.1,6c0.9,0.8,1.1,1.8,0.8,2.9c-0.4,0.6-0.8,1.1-1.5,1.5c-0.4,0-0.7,0-1.1,0.1
			c-0.5,0-0.9,0-1.3,0.3c-1.1,1.7-2.7,2.9-3.8,4.5c-0.7,1.1-1.5,2.1-2.5,3C99,98,98.5,98.4,98,98.9c-0.2,0.2-0.5,0.4-0.7,0.6
			C96.5,100.2,95.8,100.7,94.8,100.9z"/>
		<path fill="#A6875E" d="M94.8,100.9c0.5-1,1-2.1,1.5-3.1c2.6,0.7,3.6,2.7,3.8,5.2c0.6,5.9-1.1,11.6-0.5,17.5
			c0.3,2.7-2,4.6-4.9,5.2c-1-1-2-2-3-3c0-2.1,0-4.2,0-6.3c0.5,0,1,0,1.5,0c2-2.9-0.4-6.4,1.6-9.3C94.8,105,94.8,103,94.8,100.9z"/>
		<path fill="#D2C4B4" d="M73,122.5c3.1,0.4,7-4.2,9.1,1.3c0.4,1.1-0.3,3.8-1,4c-4.6,1.4-7.3-1.5-9.5-5.1
			C72,122.2,72.4,122.1,73,122.5z"/>
		<path fill="#A2A098" d="M48.3,125.7c-0.5-1-1-2.1-1.5-3.1c0.3-1.1,0.7-2.2,1.2-4.1c1.5,1.7,2.4,2.9,3.4,4.1c0.3,0,0.6,0,0.9,0
			c0.6,0,1.2,0.1,1.8,0.3c0.5,0.3,1,0.6,1.4,1.1c0.3,0.5,0.5,1.1,0.5,1.7c0,0.5,0,1.1,0,1.6C53.4,126.8,50.8,126.2,48.3,125.7z"/>
		<path fill="#A2A098" d="M62.2,128.8c-1.5,0.5-3.1,1-4.6,1.5c-1.5,0.5-3.1,1.1-4.6,1.6c-2.9-4.1,2.9-2.5,3-4.6
			C58,127.8,60.1,128.3,62.2,128.8z"/>
		<path fill="#B7A080" d="M73,122.5c-0.5,0.1-0.9,0.2-1.4,0.2c-0.5,0-1.1,0-1.6,0c0-2.1,0-4.3,0-6.4C73.6,117.2,73,120,73,122.5z"/>
		<path fill="#A29B8F" d="M55.9,125.7c-0.4-0.6-0.9-1.1-1.3-1.7c2.1-1.7,4.1-1.7,6.1,0.1c0,0.5,0,1,0.1,1.5
			C59.1,125.7,57.5,125.7,55.9,125.7z"/>
		<path fill="#A2A098" d="M70,130.3c-1.6-0.5-3.2-0.9-4.8-1.4C66.8,129.4,68.4,129.9,70,130.3z"/>
		<path fill="#A29B8F" d="M68.4,125.7c0.5-0.5,1-1,1.5-1.5C69.4,124.7,68.9,125.2,68.4,125.7z"/>
		<path fill="#967549" d="M94.8,125.7c4.2-9.1,3.6-18.5,1.5-27.9c0,0,0,0,0,0c0.5-0.5,1-1,1.5-1.5c1-0.5,2.1-1.1,3.1-1.6
			c4.8,9.9,1.8,19.8,0.1,29.7c-1.1,1.4-2.2,2.9-3.4,4.3C96.7,127.6,95.7,126.7,94.8,125.7z"/>
		<path fill="#A2A098" d="M54.5,133.5c-0.5-0.5-1-1-1.6-1.6C53.4,132.4,53.9,133,54.5,133.5z"/>
		<path fill="#8F8777" d="M122.7,128.6c0.4-1.1,0.9-2.1,1.3-3.2c-0.9-2.4-0.4-4.3,1.7-5.8c0-3.6,0-7.3,0-10.9c0,0,0.3-0.2,0.3-0.2
			c6.1,2,3.4,6.7,3.5,10c1.8-7.8,1.8-7.8,6.5-9c-0.1-5.7-4-12.3,3.4-16.5c2.5-0.8,4.7-0.3,6.6,1.6c-2.1,1.3-4.2,2.7-6.8,4.3
			c1.4,2.8,2.6,5.4,3.9,8c2.5-0.3,3.1,1.7,3.9,3.4c1.5,2.2,2.7,4.5,2.1,7.3c-0.5,2.1-1.6,3.8-3.1,5.4c2.1-0.3,3.8-1.9,6-1.5
			c0.7,0.2,1.3,0.5,1.8,1.1c-5.7,6.8,6.4,3.1,4.6,7.6c-0.5,0.5-1,1-1.5,1.6c-2.1,2-4.2,4-6.3,6c-3.7-1.7-4.8-0.1-4.5,3.4
			c-1.1,0-2.1,0-3.2,0c-2.4-2.7-8.1-1.1-8.5-6.6c1.4-4.1,5.5-2.6,8-3.4c-4.2-1.8-7.6,2.1-11.8,2.1l-0.2-0.1
			c-1.8-1.3-4.3,0.8-5.9-1.4C123.9,130.9,123.3,129.8,122.7,128.6z"/>
		<path fill="#9A8D82" d="M146,94.7c-2.6,0-5.2,0-7.7,0c-4.6,4-9.3,2.7-13.9,0c-0.5,0-1.1,0-1.6,0c-0.6-1-1.1-2.1-1.7-3.1
			c-0.5-0.5-1-1-1.5-1.5c0,0,0,0,0,0c0.5-3.8,2.6-2.4,4.6-1.5c7.9,8.2,6.8-10.5,14-4.7c2.8,1.5,5.6,2.9,8.5,4.5
			C146.5,90.3,146.3,92.5,146,94.7z"/>
		<path fill="#736C57" d="M153.9,122.7c-0.5,0-1.1,0-1.6-0.1c-1.6-1.5-4.4-1.9-4.7-4.7c-1-2.1-2-4.1-3-6.2c3-1.7-1-7.5,4.5-7.7
			c2.6,0.5,5.2,1,7.8,1.6c0,1-0.1,2-0.1,3C150.4,112.1,157.4,118.5,153.9,122.7z"/>
		<path fill="#635B46" d="M149.1,104c-2.8,1.8,0.2,7.1-4.5,7.7c-0.5-1.6-1-3.2-1.5-4.7c1.8-3.2,2.5-7.6,7.5-7.7l0.1,0.1
			C150.2,100.9,149.7,102.4,149.1,104z"/>
		<path fill="#54402B" d="M118.1,90c0,2.1,0,4.2,0,6.2c-0.3,0-0.6,0-0.9,0c-0.6,0-1.2,0-1.8-0.1c-1.3-0.3-2.2-1.1-2.8-2.3
			c-0.2-0.6-0.4-1.2-0.5-1.9c-0.4-1.9-1.3-3.7-1.7-5.6c0-0.3-0.1-0.7-0.1-1c1-0.5,2-0.9,3-1.4C114.9,86,116.5,88,118.1,90z"/>
		<path fill="#54402B" d="M108.6,88c0.1-0.9,0.1-1.7,0.2-2.6c0.5,0,1,0,1.5,0c0,0,0.2,0.3,0.2,0.3c0.8,2.5,2.7,4.5,3,7.2l-0.2,0.3
			c-1.4,1.7,1,2.8,0.6,4.3c-0.3,1.1-1.2,1.4-2.1,1.8c-0.5,1-1,2.1-1.6,3.1c0,2.6,0,5.2,0,7.9c1,1.8,1.1,3.1-1.4,3.2
			c-0.6-7.9-1.3-15.8-1.9-23.7c0,0,0.1,0.1,0.1,0.1C107.9,89.5,108.4,88.9,108.6,88z"/>
		<path fill="#98765D" d="M70,73c-0.1,1.6-0.1,3.2-0.2,4.7C69.8,76.2,69.9,74.6,70,73z"/>
		<path fill="#CFB699" d="M73.2,68.4c-0.6,0.5-1.1,1-1.7,1.5C72.1,69.4,72.7,68.9,73.2,68.4z"/>
		<path fill="#735D3C" d="M60.6,124.2c-2,0-4-0.1-6.1-0.1c0,0,0,0.1,0,0.1c-0.9-0.8-2.4-0.5-3.2-1.5c0,0,0,0,0,0
			c2.6-5.1-3.4-7.9-3.4-12.3c0,0,0.7-0.4,0.7-0.4c1.5-4.3-0.2-9.6,4.1-13c0.6-0.4,1.2-0.8,1.9-1c10.7,3.6,0.7,18,11.6,21.7
			C65.3,120.8,64.1,123.4,60.6,124.2z"/>
		<path fill="#735D3C" d="M51.4,93.1c0.5,0.1,0.9,0.1,1.4,0.1c0,0.5,0.1,0.9,0.2,1.3c-0.3,0.2-0.7,0.3-1,0.5
			c-0.7-0.4-1.1-0.9-1.1-1.7L51.4,93.1z"/>
		<path fill="#735D3C" d="M53.1,94.5c0.5,0.5,1,1,1.6,1.5c0,0-0.5,0.4-0.5,0.4c-1.1,0-1.6-0.5-1.5-1.6L53.1,94.5z"/>
		<path fill="#98765D" d="M85.4,79.1c0.1,2.6,0.1,5.2,0.2,7.8c-0.2,0.2-0.4,0.4-0.7,0.7c-1,0.3-1.8,0.2-2.5-0.6l0,0
			c-0.6-0.6-1.3-1.3-1.6-2.2c0-0.3,0-0.6,0-0.9C82.3,82.2,83.8,80.6,85.4,79.1z"/>
		<path fill="#7E5135" d="M80.8,86.9c-1.6,0.3-3.2,0.7-5.6,1.2c0.4-1.8,0.7-3,1-4.2c1.5,0,3.1,0,4.6-0.1c0,0,0,0,0,0
			C81.7,84.8,81.8,85.9,80.8,86.9z"/>
		<path fill="#6B432D" d="M76.2,73.3c-0.5,0.8-0.9,1.3-1.3,1.8c-0.5-0.4-1.3-0.7-1.4-1.2c-0.1-0.5,0.5-1.1,0.9-1.7
			C74.9,72.5,75.5,72.9,76.2,73.3z"/>
		<path fill="#532C13" d="M82,73.3c-0.2,0-0.4,0.2-0.5,0.1c-0.1-0.1-0.2-0.4-0.3-0.6c0.3-0.1,0.6-0.1,0.9-0.2
			C82,72.9,82,73.1,82,73.3z"/>
		<path fill="#98765D" d="M85.5,86.9c0.5,0.5,1,1,1.6,1.5c0,0-0.1,0.1-0.1,0.1C85.5,89,85.1,88.3,85.5,86.9L85.5,86.9z"/>
		<path fill="#D4BB8C" d="M108.7,71.4c0,1.5,0,3-0.1,4.5c-1.4-0.8-2.8-1.5-4.1-2.3C105.9,72.9,107.3,72.2,108.7,71.4z"/>
		<path fill="#735D3C" d="M48.1,94.7c-1,0-1.9,0-2.9,0c0-0.5,0-1,0-1.5c1,0,2.1,0.1,3.1,0.1C48.7,93.8,48.7,94.3,48.1,94.7z"/>
		<path fill="#735D3C" d="M43.4,97.7c-0.9,0.5-1.9,1-2.8,1.5c-0.5-0.5-0.9-1-1.4-1.5C40.5,97.7,41.9,97.7,43.4,97.7z"/>
		<path fill="#4D3620" d="M48.1,94.7c0.1-0.5,0.2-1,0.2-1.4c0.9,0,1.7,0,2.6,0c0.6,0.5,1.1,1.1,1.7,1.6c0.5,0.5,1,1,1.5,1.6
			c-1.8,4.5-3.7,9-5.5,13.5c-0.1-1-0.2-1.9-0.4-2.9c-0.7-2-3.6-3.4-1.7-6.1c0.1-0.5,0.2-1,0.3-1.4c0.3-0.6,0.7-1.2,1.2-1.7
			C48.1,96.7,48.1,95.7,48.1,94.7z"/>
		<path fill="#9E9888" d="M130.6,133.5c5-7,12.5-3.8,19.5-5.1c-2.8,7.4-9.1,5.3-15.2,6.1c3.2,2.7,5.5,4.8,7.9,6.9
			c-1.5,0.5-3.1,1-4.6,1.4c-0.5-0.5-1.1-0.9-1.6-1.4C134.6,138.8,132.6,136.2,130.6,133.5z"/>
		<path fill="#CBCDCD" d="M141.4,173.9c0-1,0-2.1,0-3.1c0.6,1.5,1.2,3,1.8,4.4c-0.3,0.2-0.5,0.4-0.8,0.7
			C141.3,175.6,140.4,175.2,141.4,173.9z"/>
		<path fill="#CBCDCD" d="M140.2,170.5c-0.2-0.9-0.4-1.9-0.6-2.8c0.6,1,1.2,2,1.8,3C141,170.7,140.6,170.6,140.2,170.5z"/>
		<path fill="#CBCDCD" d="M144.4,177.1c-0.5-0.1-0.9-0.2-1.4-0.2c-0.4-0.2-0.5-0.5-0.5-0.8c0-0.3,0.1-0.5,0.2-0.5
			c0,0,0.4-0.4,0.4-0.4C143.6,175.9,144,176.5,144.4,177.1z"/>
		<path fill="#CBCDCD" d="M146,180.3c-0.4-0.6-0.7-1.2-1.1-1.7C145.2,179.1,145.6,179.7,146,180.3z"/>
		<path fill="#A2A199" d="M111.9,155.2c2.6-2.1,5.2-4.1,7.8-6.2C119.3,154,116.3,155.5,111.9,155.2z"/>
		<path fill="#735D3C" d="M46.6,100.9c0.6,2,1.1,4.1,1.7,6.1C44.1,106,44.6,103.7,46.6,100.9z"/>
		<path fill="#735D3C" d="M48,97.8c-0.4,0.6-0.8,1.1-1.2,1.7C47.3,98.9,47.7,98.3,48,97.8z"/>
		<path fill="#B3B2AB" d="M138.3,181.7c-2.6-0.5-5.2-1-7.8-1.6c-0.1-0.3-0.3-0.6-0.4-1c0.4-1.4,1.1-2.5,2-3.7c0,0,0,0,0,0
			C136.7,175,138.9,176.9,138.3,181.7z"/>
		<path fill="#6A6B5F" d="M142.8,175.6c0,0.5,0.1,0.9,0.3,1.3c-0.7,0.5-1.5,0.9-2.2,1.4c0.2-1.5,0.4-2.9,0.6-4.4
			C141.9,174.4,142.3,175,142.8,175.6z"/>
		<path fill="#B2B0AA" d="M127.4,183.2c0.1-1,0.2-1.9,0.3-2.9c0.9-1.1,1.8-1.2,2.8-0.2c0,0,0,0,0,0
			C129.5,181.1,128.5,182.2,127.4,183.2z"/>
		<path fill="#414237" d="M120.1,143c1.9-1.1,3.8-2.2,5.8-3.3l0,0c1,0,2.1,0,3.1,0c3.2,3-0.1,4.4-1.5,6.3c-0.5,0-1.1,0-1.6,0
			c-0.5-0.6-1.1-1-1.6-1.5C122.9,144,121.5,143.5,120.1,143z"/>
		<path fill="#83837B" d="M126.1,172.4c0.4-0.6,0.9-1.1,1.3-1.7c0,0.5,0.1,1.1,0.1,1.6C127,172.4,126.5,172.4,126.1,172.4z"/>
		<path fill="#999993" d="M130.5,180.1c-0.9,0.1-1.9,0.1-2.8,0.2c1.4-1.6,2.9-3.3,4.3-4.9C131.5,177,131,178.6,130.5,180.1z"/>
		<path fill="#5A5C50" d="M124.2,144.5c0.5,0.5,1.1,1,1.6,1.5C125.3,145.5,124.8,145,124.2,144.5z"/>
		<path fill="#84653D" d="M101,124.3c-2.2-9.9,4.3-19.8-0.1-29.7c1.6-1.5,3.2-3,4.8-4.5c-4.5,10.7,0.7,21.8-1.6,32.5
			c-0.5,0.5-1.1,1-1.6,1.5C102,124.1,101.5,124.2,101,124.3z"/>
		<path fill="#241409" d="M108.9,113.5c0.5-1.1,1-2.1,1.4-3.2c0.5,1.9,0.9,3.9,1.4,5.8c-1,0.6-1.9,1.2-2.8,1.8
			C108.9,116.5,108.9,115,108.9,113.5z"/>
		<path fill="#847769" d="M113.7,97.6c-0.6-1.4-5.5-2.6-0.3-4.4c1,0.6,2.1,1.2,3.1,1.8c0.6,0.3,1.1,0.8,1.5,1.3c0,0,0,0,0,0
			c-0.6,0.6-1.2,1.2-1.8,1.7C115.3,98.7,114.4,98.6,113.7,97.6z"/>
		<path fill="#413424" d="M113.7,97.6c0.9,0.1,1.7,0.3,2.6,0.4c0.1,0.4,0.3,0.9,0.5,1.3c-0.2,1.1-0.4,2.2-0.6,3.4
			c-1.6-1.4-2.9-2.4-4.2-3.4C112.5,98.7,113.1,98.2,113.7,97.6z"/>
		<path fill="#796C5F" d="M119.6,90c0.5,0.5,1,1,1.5,1.5C120.6,91,120.1,90.5,119.6,90z"/>
		<path fill="#726A5E" d="M116.6,107c-0.6,0.6-1.2,1.2-1.8,1.9c-0.4-1.1-0.8-2.2-1.3-3.3C114.6,106.1,115.6,106.5,116.6,107z"/>
		<path fill="#AB9F93" d="M124.4,94.6c4.6,0,9.3,0,13.9,0c-3.2,7.6,2,14.5,1.6,23.2c-2.5-2.6-4.4-4.6-7-7.3
			c-0.8,6.1-1.5,11.3-2.9,20.9c-1.9-10.6-3-16.7-4.1-22.9c-0.1-4.1-0.1-8.2-0.2-12.3C125.3,95.7,124.8,95.2,124.4,94.6L124.4,94.6z"
			/>
		<path fill="#9A8D82" d="M124.3,94.7c0.5,0.5,1,1.1,1.5,1.6C125.3,95.7,124.8,95.2,124.3,94.7z"/>
		<path fill="#342D1E" d="M125.7,119.7c-0.6,1.9-1.1,3.9-1.7,5.8c-0.9-1.5-1.9-2.9-2.8-4.4c0.1-0.5,0.2-0.9,0.4-1.4
			c0.3-0.7,0.6-1.3,1-1.9c0.1-0.4,0.2-0.8,0.3-1.2C123.8,117.7,124.8,118.7,125.7,119.7z"/>
		<path fill="#6C6958" d="M124.5,132.1c2,0.4,5-3.7,5.9,1.4c-1.8,1.6-3.3,4.3-6.2,2.4C123.7,135.6,124.4,133.4,124.5,132.1z"/>
		<path fill="#ADAD9C" d="M125.9,139.7C125.3,139.5,124.7,139.3,125.9,139.7C124.9,139,125.4,139.4,125.9,139.7
			C125.9,139.7,125.9,139.7,125.9,139.7z"/>
		<path fill="#605C4F" d="M122.6,117.8c-0.3,0.6-0.7,1.3-1,1.9C121.9,119.1,122.2,118.5,122.6,117.8z"/>
		<path fill="#878677" d="M113.6,144.6c0.5-0.6,1-1.2,1.5-1.7C114.5,143.4,114,144,113.6,144.6z"/>
		<path fill="#8F654D" d="M85.4,87c0.5,0.5,1,1,1.6,1.5c-2.5,2.4-4,1.5-4.7-1.6C83.4,86.9,84.4,86.9,85.4,87z"/>
		<path fill="#8F654D" d="M80.8,86.9c0-1,0-2.1,0.1-3.1c0.5,1,1,2.1,1.5,3.1C81.8,86.9,81.3,86.9,80.8,86.9z"/>
		<path fill="#AE9972" d="M94.8,107.1c-0.5,3.1-1,6.2-1.6,9.3C93.8,113.3,94.3,110.2,94.8,107.1z"/>
		<path fill="#695030" d="M108.6,88c-0.5,0.6-1,1.3-1.5,1.9C107.6,89.3,108.1,88.6,108.6,88z"/>
		<path fill="#A6875E" d="M97.8,96.2c-0.5,0.5-1,1-1.5,1.5C96.8,97.2,97.3,96.7,97.8,96.2z"/>
		<path fill="#A29B8F" d="M51.3,122.6c1.1,0.5,2.1,1,3.2,1.5C53.5,123.6,52.4,123.1,51.3,122.6z"/>
		<path fill="#655E48" d="M147.5,117.9c1.3,1.9,6.2,0.1,4.7,4.7c-4.4,3-8.8,5.6-14.9,4.2C141.1,123.5,144.3,120.7,147.5,117.9z"/>
		<path fill="#3D2219" d="M113.6,92.9c-2.7-1.7-3.8-4-3-7.2C112.9,87.5,115.8,89.1,113.6,92.9z"/>
		<path fill="#726A5E" d="M118.1,96.2c-0.5-0.4-1-0.9-1.5-1.3C117,95.4,117.6,95.8,118.1,96.2z"/>
		<path fill="#9D9785" d="M157.1,74.3c0.4,1.7,0.8,3.4,1.2,5.1c-0.9,0.7-0.5,2.1-1.4,2.8l0,0c-0.9,1-0.9,2.1-0.2,3.3
			c0.7,0.4,1.5,0.6,2.3,0.4c2.7-1.5,4.7-3.4,2.6-6.8C161.8,75.9,160.3,74.4,157.1,74.3z"/>
		<path fill="#6B6352" d="M156.9,82.2c0.5-0.9,0.9-1.9,1.4-2.8c-0.5-0.1-1-0.1-1.5-0.1C156.9,80.3,156.9,81.2,156.9,82.2z"/>
		<path fill="#C2C0B8" d="M164.7,77.6c-0.5,0.5-1,1-1.6,1.6C163.6,78.6,164.2,78.1,164.7,77.6z"/>
		<path fill="#6B6352" d="M157.2,85.3c-0.1-1-0.2-2-0.3-3c-1.1,0.1-2.2,0.1-3.3,0.2c-0.9,2-5.4,2.2-3,5.7c1.5,2.2,3.5,3.7,6.4,1.9
			c0.3-0.1,0.6-0.1,0.9-0.2c0.5-0.4,0.9-0.8,1.2-1.4C159.3,86.8,158,86.2,157.2,85.3z"/>
		<path fill="#8D887C" d="M157.2,85.3c0.4,1.1,0.8,2.1,1.2,3.2c-0.5,0.5-0.9,1.2-1.5,1.6c0,0,0,0,0,0c4.3,5.2-0.3,10.3,0,15.5
			c-0.8,1.7-1.2,3.3,1.1,4.1c2.4,0.6,3.7-1.2,5.2-2.5c3.7-8.4-1.4-14.9-4.6-21.9C158.1,85.3,157.7,85.3,157.2,85.3z"/>
		<path fill="#9B998C" d="M156.8,108.5c-4.1-1.8-4.1,1.5-4.7,3.9c-0.8,3,0.8,6.2-0.2,9.2c-2.4,5.8-0.7,8.8,5.8,8.8
			c0.3,0.1,0.7,0.1,1,0.2c6.2-6.9,0-16.2,4.6-23.4C161.1,107.6,158.9,108.1,156.8,108.5z"/>
		<path fill="#9B998C" d="M157.1,132.1c0.5,4.7-1.8,6.6-6.3,6.2c-0.2-0.3-0.5-0.5-0.7-0.8c-0.3-4.4,2.7-5.4,6.1-6
			C156.5,131.7,156.8,131.9,157.1,132.1z"/>
		<path fill="#9B998C" d="M156.9,131.9c0,0,0.2,0.2,0.2,0.2c0.5-0.5,1-1,1.5-1.5l-0.2-0.2C157.1,130.1,156.6,130.6,156.9,131.9z"/>
		<path fill="#635B46" d="M150.6,99.3c-0.2-1.8-0.5-3.6-0.8-6.2c4.7,2.6,2.7,4.4,0.9,6.3C150.8,99.4,150.6,99.3,150.6,99.3z"/>
		<path fill="#7D7462" d="M158.4,88.4c-0.5,0.5-1,1.1-1.5,1.6C157.4,89.5,157.9,89,158.4,88.4z"/>
		<path fill="#B8B4A6" d="M163.1,79.2C163.1,79.1,163.1,79.1,163.1,79.2C163.1,79.1,163.1,79.1,163.1,79.2
			C163.1,79.1,163.1,79.2,163.1,79.2z"/>
	</g>
</g>
</svg>
